<?xml version="1.0" encoding="utf-8"?>
<!-- Generator: Adobe Illustrator 22.0.1, SVG Export Plug-In . SVG Version: 6.00 Build 0)  -->
<svg version="1.1" id="Camada_1" xmlns="http://www.w3.org/2000/svg" xmlns:xlink="http://www.w3.org/1999/xlink" x="0px" y="0px"
	 viewBox="0 0 1520.2 490.8" style="enable-background:new 0 0 1520.2 490.8;" xml:space="preserve">
<style type="text/css">
	.st0{fill:#FFFFFF;}
	.st1{fill:#003366;}
	.st2{enable-background:new    ;}
</style>
<title>Asset 4</title>
<g id="Layer_2">
	<g id="Objects">
		<g>
			<path class="st0" d="M157.4,104.2l43.6-1.6L164.9,334l50.1-1.9l-8.7,55.1l-163.7,6l8.7-55.1l50.1-1.9l26-166.7l-50.2,1.9
				l6.8-42.7L157.4,104.2z"/>
		</g>
		<g>
			<polygon class="st1" points="0,431.1 20.2,303 70.3,301.2 84.9,207.4 34.7,209.3 51.7,101.4 150.9,68.2 243.6,64.8 207.5,296.1 
				257.7,294.3 237.5,422.3 			"/>
		</g>
		<g>
			<path class="st0" d="M223.9,378.8l3.2-53.1l115.6-4.3l-3.2,53.1L223.9,378.8z M253.7,129.9c1.7-10,5.6-17.5,11.5-22.5
				c6-4.8,16.6-7.6,31.8-8.2l34.3-1.3c15.2-0.5,24.9,1.5,29.2,6c2.9,3.1,4.5,7.3,4.7,12.8c0.1,3-0.2,6.1-0.7,9.1l-20,113.5
				c-1.7,10-5.6,17.5-11.6,22.4c-6,4.8-16.5,7.5-31.7,8.2l-34.3,1.3c-15.2,0.5-24.9-1.5-29.3-6c-2.8-3.1-4.3-7.3-4.5-12.7
				c-0.1-3.1,0.2-6.2,0.7-9.2L253.7,129.9z M277,233.5c-0.1,0.4-0.1,0.9-0.1,1.3c0.1,2.1,1.4,3.2,4,3.1l17.4-0.6
				c3.2-0.1,5.1-1.7,5.6-4.7l17-96.7c0.1-0.4,0.1-0.9,0.1-1.3c-0.1-2.1-1.5-3.2-4.2-3.1l-17.4,0.6c-3.1,0.1-5,1.7-5.5,4.7L277,233.5
				z"/>
		</g>
		<g>
			<path class="st1" d="M185.3,416.5l7.6-125.8L211,290l-0.2-0.2c-6.1-6.6-13.4-18.2-14.1-35.9c-0.2-5.6,0.2-11.2,1.2-16.7l20-113.6
				c3.2-18.6,11.3-33.3,23.9-43.9l0.7-0.6c12.5-10,29.3-15.1,52.9-16.1l34.5-1.3c16.9-0.5,40.9,0.7,56.6,17.1
				c6.5,6.8,14.1,18.5,14.7,36.6c0.2,5.5-0.2,11.1-1.2,16.5L380,245.6c-2.7,15.7-9,28.8-18.6,38.8l19.9-0.7l-7.6,125.8L185.3,416.5z
				"/>
		</g>
		<g>
			<path class="st0" d="M536.6,90.2l63.4-2.3l-36.1,231.3l71.8-2.6l-8.7,55.1l-135.2,5L536.6,90.2z"/>
		</g>
		<g>
			<polygon class="st1" points="449.1,414.5 505.4,55.1 642.6,50 606.5,281.4 678.3,278.8 658.1,406.8 			"/>
		</g>
		<g>
			<path class="st0" d="M795.4,80.7l63.4-2.3l-37.3,237.7c-2.6,16.6-8.4,29.1-17.5,37.4c-9,8-24.9,12.5-47.9,13.5l-51.9,1.9
				c-23,0.7-37.8-2.6-44.4-10.1c-4.3-5.1-6.6-12.2-6.9-21.2c-0.1-5.1,0.2-10.3,1-15.3l37.3-237.7l63.4-2.3l-35,223.8
				c-0.1,0.7-0.1,1.5-0.1,2.2c0.1,3.6,2.2,5.3,6.1,5.1l26.3-1c4.9-0.2,7.7-2.8,8.5-7.9L795.4,80.7z"/>
		</g>
		<g>
			<path class="st1" d="M698,405.2c-21.4,0-48.3-3.3-65.2-22.3L632,382c-9.6-11.4-14.7-25.9-15.4-43.1c-0.2-7.4,0.2-14.8,1.4-22.2
				L660,49.4l241.5-8.9l-44.1,281.2c-3.8,24.9-13.6,44.6-28.9,58.5l-0.3,0.2c-15.6,13.9-38.6,21.3-70.5,22.6l-52.1,1.9
				C703.1,405.1,700.6,405.2,698,405.2z M689.2,332.3l1.7,0.1c-0.5-0.7-1-1.5-1.5-2.2C689.3,331,689.2,331.7,689.2,332.3
				L689.2,332.3z"/>
		</g>
		<g>
			<path class="st0" d="M1048.8,202.3l-16.7,106c-2.6,16.7-8.4,29.1-17.5,37.4c-9,8-24.9,12.5-47.9,13.5l-51.9,1.9
				c-23,0.7-37.8-2.6-44.4-10.1c-4.3-5.1-6.6-12.2-6.9-21.2c-0.1-5.1,0.2-10.3,1-15.3l29.7-189c2.6-16.6,8.3-29.1,17.3-37.3
				c9.1-8,25.1-12.5,48.1-13.5l50-1.8c23-0.7,37.7,2.6,44.2,10.1c4.4,5.1,6.8,12.3,7.1,21.4c0.1,5.1-0.2,10.1-1,15.1l-7.9,50.3
				l-61.4,2.3l5.6-36.3c0.1-0.7,0.1-1.5,0.1-2.2c-0.1-3.6-2.3-5.3-6.3-5.1l-26.4,1c-4.8,0.2-7.5,2.8-8.2,7.9L930,298.2
				c-0.1,0.7-0.1,1.5-0.1,2.2c0.1,3.6,2.2,5.3,6.1,5.1l28.3-1c4.9-0.2,7.7-2.8,8.5-7.9l5.8-36.9l-21.2,0.8l8.7-55.1L1048.8,202.3z"
				/>
		</g>
		<g>
			<path class="st1" d="M908.5,397.4c-21.4,0-48.3-3.3-65.2-22.3l-0.7-0.9c-9.5-11.4-14.7-25.9-15.3-43.1
				c-0.2-7.4,0.2-14.8,1.4-22.2l29.8-189.2c3.8-24.8,13.4-44.4,28.5-58.4l0.6-0.6c15.7-13.8,38.7-21.1,70.6-22.5l50.2-1.8
				c22.4-0.7,54,0.9,72.9,22.5c10,11.7,15.4,26.4,16,43.9c0.2,7.3-0.3,14.7-1.4,21.9l-6.2,39.8l2-0.1L1067.8,314
				c-3.8,24.8-13.5,44.5-28.9,58.5l-0.3,0.2c-15.6,13.9-38.6,21.3-70.5,22.6l-52.2,1.9C913.6,397.4,911.1,397.4,908.5,397.4z
				 M899.7,324.5l1.7,0.1c-0.5-0.7-1-1.5-1.5-2.2C899.8,323.2,899.7,323.9,899.7,324.5z"/>
		</g>
		<g>
			<path class="st0" d="M1146.8,67.7l100.9-3.7l6.7,284.5l-63.4,2.3l-0.8-53.8l-58.5,2.2l-17.8,54.4l-63.4,2.3L1146.8,67.7z
				 M1189.8,114.6L1149.9,244l39-1.4L1189.8,114.6z"/>
		</g>
		<g>
			<polyline class="st1" points="1226.6,28.5 1283,26.4 1291.5,383.4 1155.3,388.5 1154.7,345.7 1140.5,389 999.5,394.2 
				1120.4,32.4 1177.8,30.3 			"/>
		</g>
		<g>
			<path class="st0" d="M1359,245.6l-15.6,99.6l-63.4,2.3l44.8-286.4l107.8-4c23-0.7,37.7,2.7,44.2,10.1c4.4,5.1,6.8,12.3,7.2,21.4
				c0.1,5.1-0.2,10.1-1,15.1l-11,69.3c-2.6,16.6-11.7,29.2-27.4,37.7c-3.9,1.7-6,3.3-6.4,4.6v0.2c0,1.1,1.7,2.3,5.1,3.8
				c11.7,6,17.8,15.1,18.3,27.3c0.1,2.9-0.1,5.9-0.5,8.8l-13.5,86l-63.4,2.3l14.5-92c0.1-0.7,0.1-1.5,0.1-2.2
				c-0.1-3.6-2.3-5.3-6.3-5.1L1359,245.6z M1379.5,113.9l-11.9,76.4l33.5-1.2c4.9-0.2,7.7-2.8,8.4-7.9l9.7-61.3
				c0.1-0.7,0.1-1.5,0.1-2.2c-0.1-3.6-2.3-5.3-6.3-5.1L1379.5,113.9z"/>
		</g>
		<g>
			<path class="st1" d="M1237.4,385.4L1293.6,26l137.7-5c22.4-0.7,54,0.9,72.8,22.4c10.1,11.7,15.4,26.4,16.1,43.9
				c0.2,7.3-0.3,14.7-1.4,21.9l-11,69.5c-2.1,14.3-7.8,27.9-16.6,39.4c4.1,8.5,6.3,17.8,6.6,27.2c0.2,5-0.1,10-0.8,15l-0.1,0.7
				l-18.1,115.5L1237.4,385.4z"/>
		</g>
		<g class="st2">
			<path class="st0" d="M157.8,109.5l43.6-1.6l-36.1,231.3l50.1-1.8l-8.7,55.1l-163.7,6l8.7-55.1l50.1-1.8l26-166.7l-50.1,1.8
				l6.8-42.7L157.8,109.5z"/>
			<path class="st0" d="M224.3,384.1l3.2-53.1l115.6-4.3l-3.2,53.1L224.3,384.1z M254.1,135.3c1.7-10,5.6-17.5,11.5-22.4
				c6-4.8,16.6-7.6,31.8-8.2l34.3-1.3c15.2-0.5,24.9,1.5,29.2,6c2.9,3.1,4.5,7.3,4.7,12.8c0.1,2.7-0.1,5.7-0.7,9.1l-20.1,113.5
				c-1.7,10-5.6,17.5-11.6,22.5c-5.9,4.8-16.5,7.6-31.7,8.2l-34.3,1.3c-15.2,0.5-24.9-1.5-29.3-5.9c-2.8-3.1-4.3-7.3-4.5-12.7
				c-0.1-2.8,0.1-5.8,0.7-9.2L254.1,135.3z M277.4,238.8c-0.1,0.5-0.1,0.9-0.1,1.3c0.1,2.1,1.4,3.2,4,3.1l17.4-0.6
				c3.2-0.1,5.1-1.7,5.6-4.7l17-96.7c0.1-0.5,0.1-0.9,0.1-1.3c-0.1-2.1-1.5-3.2-4.2-3.1l-17.4,0.6c-3.1,0.1-5,1.7-5.5,4.7
				L277.4,238.8z"/>
			<path class="st0" d="M537,95.6l63.4-2.3l-36.1,231.3l71.7-2.6l-8.7,55.1l-135.2,5L537,95.6z"/>
			<path class="st0" d="M795.8,86l63.4-2.3L822,321.4c-2.6,16.6-8.4,29.1-17.5,37.4c-9,8-24.9,12.5-47.9,13.5l-51.9,1.9
				c-23,0.7-37.8-2.6-44.4-10.1c-4.3-5.1-6.6-12.2-6.9-21.2c-0.2-4.6,0.2-9.7,1-15.3l37.3-237.7l63.4-2.3l-35,223.8
				c-0.1,0.8-0.1,1.5-0.1,2.2c0.1,3.6,2.2,5.3,6.1,5.1l26.4-1c4.9-0.2,7.7-2.8,8.4-7.9L795.8,86z"/>
			<path class="st0" d="M1049.2,207.7l-16.7,106c-2.6,16.6-8.4,29.1-17.5,37.4c-9,8-24.9,12.5-47.9,13.5l-51.9,1.9
				c-23,0.7-37.8-2.6-44.4-10.1c-4.3-5.1-6.6-12.2-6.9-21.2c-0.2-4.6,0.2-9.7,1-15.3l29.8-189c2.6-16.6,8.3-29.1,17.3-37.4
				c9.1-8,25.1-12.5,48.1-13.5l49.9-1.8c23-0.7,37.7,2.6,44.2,10.1c4.4,5.1,6.8,12.3,7.1,21.4c0.2,4.5-0.2,9.5-1,15.1l-7.9,50.3
				l-61.4,2.3l5.6-36.3c0.1-0.8,0.1-1.5,0.1-2.2c-0.1-3.6-2.2-5.3-6.3-5.1l-26.4,1c-4.8,0.2-7.5,2.8-8.2,7.8l-25.2,161.1
				c-0.1,0.8-0.1,1.5-0.1,2.2c0.1,3.6,2.2,5.3,6.1,5.1l28.3-1c4.9-0.2,7.7-2.8,8.4-7.9L979,265l-21.2,0.8l8.7-55.1L1049.2,207.7z"/>
			<path class="st0" d="M1147.2,73.1l100.9-3.7l6.7,284.5l-63.4,2.3l-0.8-53.8l-58.5,2.2l-17.8,54.4l-63.4,2.3L1147.2,73.1z
				 M1190.2,119.9l-39.9,129.5l39-1.4L1190.2,119.9z"/>
			<path class="st0" d="M1359.4,251l-15.6,99.6l-63.4,2.3l44.8-286.4l107.8-4c23-0.7,37.7,2.6,44.2,10.1c4.4,5.1,6.8,12.3,7.1,21.4
				c0.2,4.5-0.2,9.5-1,15.1l-10.9,69.3c-2.6,16.6-11.7,29.2-27.4,37.7c-3.9,1.7-6,3.3-6.4,4.6l0,0.2c0,1.1,1.7,2.3,5.1,3.8
				c11.7,6.1,17.8,15.2,18.3,27.3c0.1,2.8-0.1,5.7-0.5,8.7l-13.5,86l-63.4,2.3l14.5-92c0.1-0.8,0.1-1.5,0.1-2.2
				c-0.1-3.6-2.2-5.3-6.3-5.1L1359.4,251z M1379.9,119.3l-11.9,76.4l33.5-1.2c4.9-0.2,7.7-2.8,8.4-7.9l9.7-61.3
				c0.1-0.8,0.1-1.5,0.1-2.2c-0.1-3.6-2.2-5.3-6.3-5.1L1379.9,119.3z"/>
		</g>
	</g>
</g>
</svg>
