<?xml version="1.0" encoding="utf-8"?>
<!-- Generator: Adobe Illustrator 22.0.1, SVG Export Plug-In . SVG Version: 6.00 Build 0)  -->
<svg version="1.1" id="Camada_1" xmlns="http://www.w3.org/2000/svg" xmlns:xlink="http://www.w3.org/1999/xlink" x="0px" y="0px"
	 viewBox="0 0 1537.8 491.8" style="enable-background:new 0 0 1537.8 491.8;" xml:space="preserve">
<style type="text/css">
	.st0{fill:#003366;}
	.st1{enable-background:new    ;}
	.st2{fill:#FFFFFF;}
</style>
<title>Asset 6</title>
<g id="Layer_2">
	<g id="Objects">
		<g>
			<path class="st0" d="M115.3,336.1l100.3-3.7l-8.7,55.1l-163.7,6L55,317.3c2.8-18,8.7-31.1,17.8-39.4c9-8,27.4-19.5,55.2-34.5
				s42.3-25.7,43.4-32.1l7.1-45.3c0.1-0.7,0.1-1.5,0.1-2.2c-0.1-3.6-2.2-5.3-6.1-5.1l-22.4,0.8c-4.9,0.2-7.7,2.8-8.4,7.9l-4.8,30.3
				l-61.4,2.3l7.1-44.3c2.6-16.6,8.3-29.1,17.3-37.3c9.1-8,25.1-12.5,48.1-13.5l46-1.7c23-0.7,37.7,2.6,44.2,10.1
				c4.4,5.1,6.8,12.3,7.1,21.4c0.1,5.1-0.2,10.1-1,15.1l-10.3,65.3c-2.8,18-8.7,31.1-17.8,39.4c-9,8-27.4,19.5-55.2,34.5
				c-27.8,15-42.2,25-43.1,30.1L115.3,336.1z"/>
		</g>
		<g>
			<path class="st0" d="M31.4,404l13.7-88.2c3.1-20.2,10.2-35.4,21-45.2c9.7-8.7,28.4-20.4,57.2-35.9c31.4-16.9,37.3-24,38.3-25.6
				l6.2-40.1l-16.5,0.6l-6,37.9l-81.8,3l9-56.3c2.9-18.8,9.8-33.3,20.4-43.1l0.2-0.2c11-9.7,28.7-14.9,54.3-16l46-1.7
				c26.8-0.8,43.4,3.5,52.1,13.5c6,6.9,9.2,16.2,9.6,27.6c0.2,5.7-0.2,11.4-1.1,17l-10.3,65.3c-3.1,20.2-10.2,35.4-20.9,45.2
				c-9.7,8.7-28.4,20.4-57.2,35.9c-29.1,15.7-36.4,22.2-38.1,24.2l-0.6,3.8l100.4-3.7l-11.9,75.2L31.4,404z M172.9,148.8
				c9.1,0,15.4,5.9,15.7,14.8c0,1.3,0,2.5-0.2,3.8v0.3l-7.1,45.4c-1.5,8.6-10.3,18.6-48.5,39.2c-27,14.5-44.9,25.7-53.3,33.1
				c-7.3,6.6-12.2,17.9-14.6,33.4l-10,64.3l143.4-5.3l5.5-35l-100.2,3.7l4.3-29.3c1.1-6.5,5.7-14.3,48.2-37.2
				c27-14.5,44.9-25.7,53.3-33.1c7.2-6.6,12.2-17.9,14.6-33.4l10.3-65.3c0.7-4.4,1-8.8,0.9-13.2c-0.3-6.7-1.8-11.9-4.7-15.2
				c-1.9-2.2-9.5-7.4-36.4-6.6l-45.9,1.7c-25.4,1.1-36.7,6.5-41.8,10.9c-7.2,6.7-11.9,17.2-14.1,31.4l-5.2,32.4l41.1-1.5l3.5-22.1
				c1.4-9.7,8.3-16,18-16.3l22.4-0.8L172.9,148.8z"/>
		</g>
		<g>
			<path class="st0" d="M13.2,420.2l16.6-106.8c3.7-23.8,12.4-42,25.8-54.3l0.2-0.2c10-8.9,27.2-20,54-34.6l-64.6,2.4l12-74.9
				c3.5-22.4,11.9-39.9,25.2-52.1l0.4-0.4c13.7-12.1,34.6-18.6,63.9-19.8h0.1l46.1-1.7c20-0.6,48.4,0.7,64.2,18.8l0.1,0.1
				c8.3,9.6,12.8,22.1,13.3,37.1c0.2,6.7-0.2,13.3-1.3,19.9v0.1L259,219.1c-3.7,23.7-12.4,42-25.8,54.2l-0.2,0.2
				c-10,9-27.4,20.1-54.4,34.8l66.9-2.5l-16.7,106.4L13.2,420.2z M89.9,296.9c-4.5,4.2-7.9,12.6-9.7,24.3L73.1,367l111.9-4.2
				l0.6-3.8l-100,3.7l7.1-48.1c2.6-15.4,15.2-26.2,56.1-48.2c33.7-18.2,45.9-27.2,50.2-31c4.5-4.2,7.9-12.6,9.7-24.3l10.3-65.2
				c0.6-3.4,0.8-6.8,0.8-10.3c0-1.6-0.2-3.2-0.7-4.8c-2.5-0.9-9.3-2.5-24.4-2.1l-45.8,1.7c-23.1,1-30.5,5.7-32.1,7
				c-5.5,5.3-8,15-9.1,22.3v0.1l-2.2,13.7l9.5-0.4l1.5-9.5c2.6-17,15.7-28.8,32.7-29.4l22.4-0.8c18-0.7,31.9,12.1,32.6,29.7
				c0.1,2.1,0,4.2-0.3,6.3l-0.1,0.7l-7.1,45.7c-2.8,16.3-17,29-56.4,50.2C106.4,284.1,94.2,293.1,89.9,296.9L89.9,296.9z"/>
		</g>
		<g>
			<path class="st0" d="M1.5,430.6L20,311.9c4-26.1,13.8-46.3,29-60.1l0.2-0.2c6.7-5.8,13.9-11,21.4-15.7l-37.1,1.4l13.9-86.9
				c3.8-24.6,13.3-44.1,28.3-57.9l0.6-0.6c15.5-13.7,38.4-21,70.1-22.3h0.2l46.2-1.7c22.1-0.7,53.5,0.9,72.1,22.2l0.1,0.1
				c9.8,11.4,15.1,26,15.8,43.3c0.2,7.3-0.3,14.6-1.4,21.8v0.1L269,220.6c-4,26-13.8,46.2-29,60.1l-0.2,0.2
				c-6.8,5.9-14.1,11.2-21.8,15.9l39.3-1.5L237.4,422L1.5,430.6z M151.8,212.8l-37.2,20.3c-25.8,14.1-42.9,25-52.2,33.3l-0.1,0.1
				c-11.7,10.6-19.3,26.9-22.6,48.4L25,409.8l195.2-7.2l13.6-86.3l-97.2,3.6l37.2-20.3c26-14.2,43.2-25.2,52.5-33.5l0.1-0.1
				c11.7-10.6,19.3-26.9,22.6-48.3l10.3-65.4c1-5.9,1.4-12,1.2-18c-0.5-12.7-4.1-23.1-10.9-30.9l-0.1-0.1
				c-13-14.9-38.4-15.9-56.4-15.4l-46.2,1.7c-26.8,1.1-45.7,6.8-57.6,17.3l-0.4,0.3c-11.5,10.7-18.9,26.2-22,46.3L57,216.3
				L151.8,212.8z M61.4,377.4l9-57.7c2.2-14.2,6.5-24.3,12.8-30.1l0.2-0.1c5.6-4.9,19.1-14.5,52.1-32.3c40.4-21.8,49.4-32.3,51.3-43
				l7.2-46.1c0.2-1.5,0.3-3.1,0.2-4.6c-0.1-5.6-2.5-10.9-6.5-14.7c-4.3-3.8-9.9-5.7-15.7-5.4l-22.4,0.8
				c-12.2,0.4-21.3,8.7-23.2,20.9l-2.8,17.7l-29.8,1.1l4.1-25.8c2-12.7,6-22.1,12.1-27.9l0.7-0.6c4.5-3.6,14.8-8.2,38-9.2l45.9-1.7
				c15.6-0.5,23.8,1.2,28,2.6l4.8,1.7l1.5,4.9c0.7,2.4,1.1,4.9,1.1,7.3c0.1,4.1-0.2,8.1-0.9,12.2l-10.3,65.3
				c-2.2,14.2-6.5,24.3-12.8,30.1l-0.2,0.1c-5.6,4.9-19.1,14.5-52.1,32.3c-41,22.1-49.2,30.8-51,41l-5.3,36.1l100.1-3.7l-3.8,23.9
				L61.4,377.4z M205.5,138.8c1.3,1.7,2.5,3.5,3.6,5.4c0.3-1.8,0.5-3.6,0.6-5.1C208.5,139,207.1,138.9,205.5,138.8z"/>
		</g>
		<g>
			<path class="st0" d="M242.3,378.5l3.2-53.1l115.6-4.3l-3.2,53.1L242.3,378.5z M272.1,129.6c1.7-10,5.5-17.5,11.5-22.4
				c6-4.8,16.6-7.6,31.8-8.2l34.3-1.3c15.2-0.5,24.9,1.5,29.2,6c2.9,3.1,4.5,7.3,4.7,12.8c0.1,3-0.2,6.1-0.7,9.1l-20,113.5
				c-1.7,10-5.6,17.5-11.6,22.5c-5.9,4.8-16.5,7.6-31.7,8.2l-34.3,1.3c-15.2,0.5-24.9-1.5-29.3-5.9c-2.8-3.1-4.3-7.3-4.5-12.7
				c-0.1-3.1,0.2-6.2,0.7-9.2L272.1,129.6z M295.4,233.2c-0.1,0.4-0.1,0.9-0.1,1.3c0.1,2.1,1.4,3.2,4,3.1l17.4-0.6
				c3.2-0.1,5.1-1.7,5.6-4.7l17-96.7c0.1-0.4,0.1-0.9,0.1-1.3c-0.1-2.1-1.5-3.2-4.2-3.1l-17.4,0.6c-3.1,0.1-5,1.7-5.5,4.7
				L295.4,233.2z"/>
		</g>
		<g>
			<path class="st0" d="M231.6,388.9l4.4-73.2l135.7-5l-4.4,73.2L231.6,388.9z M254.9,335l-2,33l95.6-3.5l2-33L254.9,335z
				 M280.9,281c-15.9,0-26.2-2.9-32.2-9l-0.2-0.2c-4.5-4.9-6.9-11.3-7.2-19.1c-0.1-3.8,0.2-7.5,0.9-11.3l20-113.5
				c2.1-12.3,7.1-21.9,14.9-28.4l0.2-0.2c7.8-6.2,20.1-9.6,37.6-10.4l34.3-1.3c18.6-0.6,30.3,2.3,36.7,9c4.7,4.9,7.2,11.4,7.5,19.4
				c0.1,3.7-0.2,7.5-0.9,11.1l-20,113.5c-2.1,12.3-7.2,21.9-15.1,28.4c-7.8,6.3-20.1,9.7-37.6,10.5l-34.3,1.3
				C283.9,281,282.4,281,280.9,281L280.9,281z M263,258.1c0.6,0.5,4.8,3.4,21.8,2.9l34.2-1.3c16.9-0.7,23.4-4,25.7-6
				c4.1-3.4,6.7-8.8,8.1-16.4l20.1-113.5c0.4-2.3,0.6-4.7,0.6-7c-0.1-2.9-0.8-5.1-1.9-6.3l0,0c0,0-3.5-3.4-21.6-2.8l-34.2,1.4
				c-16.7,0.7-23.3,4-25.8,5.9c-4,3.4-6.7,8.9-8,16.4l-20,113.5c-0.4,2.3-0.6,4.7-0.6,7.1C261.4,254.7,262,256.8,263,258.1z
				 M299,247.6c-3.1,0.1-6.2-0.9-8.7-2.7c-3.1-2.4-5-6.1-5-10c0-1,0-2.1,0.2-3.1v-0.3l17-96.7c1.3-7.8,7-12.7,15-13l17.4-0.6h0.7
				c9.1,0,13.6,6.5,13.8,12.7c0,1,0,2.1-0.2,3.1l0,0.3l-17,96.7c-1.3,7.8-7.1,12.7-15.1,13l-17.4,0.6L299,247.6z M321.6,141.6
				l-15.1,85.7l6.5-0.2l15-85.7L321.6,141.6z"/>
		</g>
		<g>
			<path class="st0" d="M215.1,405l6.3-104.3l166.9-6.2L382,398.9L215.1,405z M269.5,350l-0.1,2l64.4-2.4l0.1-2L269.5,350z
				 M280.3,296.5c-14.7,0-31.5-2.2-42.7-13.7l-0.6-0.6c-4.8-5.3-10.7-14.5-11.2-29c-0.1-4.8,0.2-9.7,1.1-14.4v-0.1l20-113.5
				c2.8-16,9.6-28.6,20.2-37.5l0.5-0.4c10.6-8.5,25.4-12.9,46.6-13.8h0.1l34.4-1.3c15.9-0.5,35.7,0.6,48.4,13.8l0.1,0.1
				c5,5.3,11.1,14.7,11.6,29.4c0.1,4.8-0.2,9.6-1.1,14.3v0.1l-20,113.5c-2.8,16-9.7,28.7-20.5,37.7l-0.2,0.1
				c-10.5,8.6-25.4,13-46.7,13.9h-0.1l-34.4,1.3C284.1,296.5,282.2,296.5,280.3,296.5L280.3,296.5z"/>
		</g>
		<g>
			<path class="st0" d="M204.5,415.4l7.5-124.3l19-0.7c-0.2-0.2-0.4-0.4-0.6-0.6l-0.8-0.8c-6-6.5-13.2-17.9-13.9-35.4
				c-0.2-5.5,0.2-11.1,1.2-16.5v-0.2L237,123.4c3.2-18.3,11.1-33,23.6-43.5l0.6-0.5c12.4-9.9,29-15,52.5-16h0.2l34.4-1.3
				c18-0.6,40.5,0.8,55.9,16.8l0.1,0.2c6.2,6.6,13.8,18.1,14.4,36c0.2,5.5-0.2,11-1.2,16.4v0.1l-20,113.5
				c-2.8,16.3-9.4,29.6-19.7,39.8l21-0.8l-7.5,124.3L204.5,415.4z M230.8,310.4l-5.1,84.2l146.8-5.4l5.1-84.2L230.8,310.4z
				 M244.8,275.9c7.1,7.3,18.4,10.6,35.6,10.6c1.6,0,3.4,0,5.3-0.1l34.5-1.3c19-0.8,31.9-4.5,40.7-11.6l0.2-0.1
				c8.9-7.3,14.6-18,16.9-31.6L398,128.1c0.7-4,1-8.1,0.9-12.2c-0.4-11.6-5.1-18.9-8.9-22.9l-0.1-0.1c-9.9-10.3-27-11.1-40.8-10.7
				l-34.5,1.3c-18.9,0.8-31.8,4.5-40.7,11.5l-0.4,0.3c-8.7,7.4-14.4,18-16.7,31.6l-20.1,113.7c-0.7,4.1-1,8.2-0.9,12.3
				c0.4,11.4,4.9,18.5,8.6,22.5L244.8,275.9z M258.8,362.4l1.3-22l84.5-3.1l-1.3,22L258.8,362.4z"/>
		</g>
		<g>
			<path class="st0" d="M554.9,89.9l63.4-2.3l-36.1,231.3l71.8-2.6l-8.7,55.1l-135.2,5L554.9,89.9z"/>
		</g>
		<g>
			<path class="st0" d="M498.4,386.8l48-306.6l83.8-3.1L594,308.5l71.8-2.6l-11.9,75.2L498.4,386.8z M563.5,99.6l-41.7,266.3
				l114.8-4.2l5.5-35l-71.7,2.6L606.6,98L563.5,99.6z"/>
		</g>
		<g>
			<path class="st0" d="M480.1,403L533,65.2L648.3,61l-36.1,231.3l71.8-2.6l-16.8,106.4L480.1,403z M576.9,114.6l-36.8,235.1
				l83.3-3.1l0.6-3.8l-71.7,2.6l36.1-231.3L576.9,114.6z"/>
		</g>
		<g>
			<path class="st0" d="M468.4,413.4l56-357.9l135.7-5l-36.1,231.3l71.8-2.6l-20,126.5L468.4,413.4z M541.6,74.9l-49.7,317.6
				l166.7-6.1l13.6-86.3l-71.8,2.6l36.1-231.3L541.6,74.9z M528.3,360.2l39.9-255.2l31.9-1.2L564,335.1l71.7-2.6l-3.7,23.9
				L528.3,360.2z"/>
		</g>
		<g>
			<path class="st0" d="M813.8,80.4l63.4-2.4l-37.3,237.8c-2.6,16.7-8.4,29.1-17.5,37.4c-9,8-24.9,12.5-47.9,13.5l-51.9,1.9
				c-23,0.7-37.8-2.6-44.4-10.1c-4.3-5.1-6.6-12.2-6.9-21.2c-0.1-5.1,0.2-10.3,1-15.3l37.3-237.7l63.4-2.3l-35,223.8
				c-0.1,0.7-0.1,1.5-0.1,2.2c0.1,3.6,2.2,5.3,6.1,5.1l26.4-1c4.9-0.2,7.7-2.8,8.4-7.9L813.8,80.4z"/>
		</g>
		<g>
			<path class="st0" d="M716.6,378.6c-23.1,0-37.7-4.3-45.9-13.5l-0.2-0.2c-5.7-6.9-8.8-16-9.3-27.2c-0.2-5.8,0.2-11.5,1.1-17.2
				l38.6-245.9l83.8-3.1l-36.2,231.4L769,302l36.2-231.4l83.8-3.1l-39.2,249.8c-2.9,18.9-9.8,33.4-20.6,43.2s-28.6,15-54.2,16.1
				l-52,1.9C720.8,378.6,718.6,378.6,716.6,378.6z M685.7,351.9c2.2,2.4,10,7.5,36.6,6.6l51.9-1.9c25.5-1.1,36.7-6.5,41.6-11
				c7.2-6.6,12.1-17.2,14.3-31.4l35.4-225.8l-43,1.6l-33.8,215.6c-1.4,9.7-8.3,16-18,16.3l-26.4,1c-9.5,0.4-16.2-5.6-16.5-14.8
				c0-1.3,0-2.6,0.2-3.9v-0.2l33.2-211.8l-43.1,1.6l-36,229.6c-0.7,4.4-1,8.9-0.9,13.4C681.4,343.5,683,348.5,685.7,351.9z"/>
		</g>
		<g>
			<path class="st0" d="M716.8,394.1c-27.9,0-46.3-6-57.7-18.7l-0.5-0.6c-8-9.5-12.3-21.9-12.9-36.6c-0.2-6.7,0.2-13.5,1.3-20.1
				l40.5-258.6l219.6-8.1l-42.1,268.3c-3.5,22.4-12,40-25.5,52.3l-0.2,0.2c-13.6,12.2-34.5,18.7-63.8,19.9h-0.1l-52.1,1.9
				C721.1,394.1,718.9,394.1,716.8,394.1z M697.3,341c2.6,0.9,9.5,2.5,24.4,2.1l51.8-1.9c24-1,30.9-6.1,31.9-7
				c4.6-4.2,7.7-11.7,9.3-22.3l32.5-207.2l-11.5,0.4L804,308c-2.6,17-15.7,28.9-32.7,29.5l-26.4,1h-1.3c-17.3,0-30.6-12.6-31.3-29.7
				c-0.1-2.2,0-4.3,0.3-6.4l0.1-0.6L743,108.5l-11.5,0.4l-34,216.9c-0.6,3.5-0.8,7-0.7,10.5C696.8,337.9,696.9,339.5,697.3,341z"/>
		</g>
		<g>
			<path class="st0" d="M716.8,404.1c-31,0-51.7-7-65.1-22l-0.7-0.9c-9.4-11.3-14.5-25.6-15.2-42.6c-0.2-7.4,0.3-14.7,1.4-22
				L679,49.8L919,41l-44,280.3c-3.8,24.7-13.5,44.3-28.7,58.1l-0.2,0.2c-15.5,13.8-38.4,21.1-70.1,22.5h-0.2l-52.1,1.9
				C721.3,404.1,719,404.1,716.8,404.1z M666.6,368.8c9.3,10.4,25.3,15.3,50.1,15.3c2,0,4.1,0,6.3-0.1l52.1-1.9
				c26.9-1.1,45.7-6.8,57.6-17.4l0.1-0.1c11.7-10.7,19.2-26.3,22.3-46.4l40.2-256.3l-199.2,7.3l-39.3,250.5c-1,6-1.4,12.1-1.2,18.2
				c0.5,12.4,4,22.7,10.5,30.5L666.6,368.8z M716.7,353.1c-12.1,0-18.9-1.4-22.7-2.7l-5-1.7l-1.4-5.1c-0.6-2.3-0.9-4.6-1-6.9
				c-0.1-4.1,0.2-8.3,0.8-12.4l35.3-225.1l31.9-1.2l-32.1,205.6c-0.2,1.6-0.3,3.1-0.2,4.7c0.4,11.6,9.4,20.1,21.3,20.1h0.9l26.4-1
				c12.2-0.5,21.3-8.7,23.2-21l33-211.1l31.9-1.1l-34.4,219.2c-2,13-6,22.2-12.4,28.1l-0.3,0.3c-3.6,3-13.3,8.3-38,9.3l-51.8,1.9
				C720.2,353.1,718.4,353.1,716.7,353.1z M706.7,332.6c1.2,0.1,2.6,0.2,4.2,0.3c-1.4-1.7-2.6-3.6-3.6-5.5
				C707,329.4,706.8,331.1,706.7,332.6z"/>
		</g>
		<g>
			<path class="st0" d="M1067.1,202l-16.7,106c-2.6,16.6-8.4,29.1-17.5,37.4c-9,8-24.9,12.5-47.9,13.5l-51.9,1.9
				c-23,0.7-37.8-2.6-44.4-10.1c-4.3-5.1-6.6-12.2-6.9-21.2c-0.2-5.1,0.2-10.3,1-15.3l29.7-189c2.6-16.7,8.3-29.1,17.3-37.4
				c9.1-8,25.1-12.5,48.1-13.5l49.9-1.8c23-0.7,37.7,2.6,44.2,10.1c4.4,5.1,6.8,12.3,7.1,21.4c0.1,5.1-0.2,10.1-1,15.1l-7.9,50.3
				l-61.4,2.3l5.6-36.3c0.1-0.7,0.1-1.5,0.1-2.2c-0.1-3.6-2.2-5.3-6.3-5.1l-26.4,1c-4.7,0.2-7.5,2.8-8.2,7.8l-25.2,161.1
				c-0.1,0.7-0.1,1.5-0.1,2.2c0.1,3.6,2.2,5.3,6.2,5.1l28.3-1c4.9-0.2,7.7-2.8,8.4-7.9l5.8-36.9l-21.2,0.8l8.7-55.1L1067.1,202z"/>
		</g>
		<g>
			<path class="st0" d="M927.1,370.9c-23.1,0-37.7-4.3-45.9-13.5l-0.2-0.2c-5.7-6.9-8.8-16-9.3-27.2c-0.2-5.8,0.2-11.5,1.1-17.2
				l29.8-189.1c2.9-18.8,9.8-33.3,20.4-43.2l0.2-0.2c11-9.7,28.7-14.9,54.3-16l50-1.8c26.8-0.8,43.4,3.5,52.1,13.5
				c6,6.9,9.2,16.2,9.6,27.6c0.2,5.7-0.2,11.4-1.1,17l-9.1,58.5l-81.8,3l6.8-43.9l-20.5,0.8L959,295l22.5-0.8l3.8-24.4l-21.3,0.8
				l11.9-75.2l103-3.8l-18.6,118c-2.9,18.8-9.8,33.4-20.6,43.2c-10.9,9.8-28.6,15-54.2,16.1l-52,1.9
				C931.2,370.8,929.1,370.9,927.1,370.9z M896.2,344.1c2.2,2.4,10,7.5,36.6,6.6l51.9-1.9c25.5-1.1,36.7-6.5,41.6-10.9
				c7.2-6.6,12.1-17.2,14.3-31.4l14.8-94l-62.3,2.3l-5.5,35l21.2-0.8l-7.7,48.9c-1.5,9.7-8.3,16-18,16.4l-28.3,1
				c-4.1,0.3-8.1-0.9-11.3-3.5c-3.3-2.8-5.2-6.9-5.2-11.3c0-1.3,0-2.6,0.2-3.9v-0.3l25.2-161c1.5-9.7,8.3-16,17.8-16.3l26.3-1
				c4.1-0.3,8.1,0.9,11.3,3.4c3.4,2.8,5.4,7,5.4,11.4c0,1.3,0,2.5-0.2,3.8v0.3l-3.8,24.4l41.1-1.5l6.6-42.2c0.7-4.4,1-8.8,0.9-13.2
				c-0.2-6.8-1.8-11.9-4.7-15.2c-2-2.2-9.5-7.4-36.3-6.6l-49.9,1.8c-25.4,1.1-36.7,6.5-41.8,10.9c-7.2,6.7-11.9,17.2-14.1,31.4
				l-29.7,189c-0.7,4.4-1,8.9-0.9,13.4C891.9,335.7,893.4,340.8,896.2,344.1L896.2,344.1z"/>
		</g>
		<g>
			<path class="st0" d="M927.2,386.4c-27.9,0-46.3-6-57.7-18.7l-0.5-0.6c-8-9.5-12.3-21.9-12.9-36.6c-0.2-6.7,0.2-13.5,1.3-20.1
				v-0.1l29.7-189c3.4-22.3,11.9-39.9,25.2-52.1l0.5-0.4c13.7-12.1,34.6-18.6,63.9-19.8h0.1L1027,47c20-0.6,48.4,0.7,64.2,18.8
				l0.1,0.1c8.3,9.6,12.8,22.1,13.3,37.1c0.2,6.7-0.2,13.3-1.3,19.9l-8.2,52.6l2-0.1L1075.6,312c-3.4,22.4-12,40-25.5,52.2l-0.2,0.2
				c-13.6,12.2-34.5,18.7-63.8,19.9h-0.2l-52.1,1.9C931.6,386.3,929.4,386.4,927.2,386.4z M907.8,333.2c2.6,0.9,9.5,2.5,24.4,2.1
				l51.8-1.9c24-1,30.9-6.1,31.9-7c4.5-4.2,7.7-11.7,9.3-22.3l11.9-75.5l-30.7,1.1l-0.6,3.8l21.2-0.8l-10.5,67.4
				c-2.6,17-15.7,28.9-32.7,29.5l-28.3,1c-7.9,0.5-15.7-2.1-21.8-7.1c-6.7-5.6-10.6-13.8-10.8-22.5c-0.1-2.1,0-4.3,0.3-6.4l0.1-0.6
				l25.2-161c2.6-17,15.6-28.9,32.5-29.5l26.3-1c7.8-0.5,15.5,2,21.6,6.8c6.9,5.6,10.9,14,11.1,22.9c0.1,2.1,0,4.2-0.3,6.3l-0.1,0.7
				l-0.9,5.8l9.6-0.4l4.6-29.5c0.6-3.4,0.8-6.8,0.8-10.2c0-1.6-0.2-3.2-0.7-4.8c-2.4-0.9-9.3-2.6-24.4-2.1l-49.7,1.8
				c-23.2,1-30.5,5.7-32.1,7c-5.5,5.3-8,15-9.1,22.3l-29.7,189.1c-0.6,3.5-0.8,7-0.7,10.5C907.2,330.1,907.4,331.7,907.8,333.2z"/>
		</g>
		<g>
			<path class="st0" d="M927.2,396.4c-31,0-51.7-7-65.1-22l-0.7-0.9c-9.4-11.3-14.5-25.6-15.2-42.6c-0.2-7.4,0.2-14.7,1.4-22v-0.1
				l29.7-189.1c3.8-24.6,13.3-44.1,28.3-57.9l0.6-0.6c15.5-13.7,38.4-21,70.1-22.3l50.3-1.8c22.1-0.7,53.5,0.9,72.1,22.2l0.1,0.2
				c9.8,11.4,15.1,25.9,15.7,43.3c0.2,7.3-0.3,14.6-1.4,21.8l-6.3,40.6l2-0.1l-23.5,148.6c-3.8,24.7-13.4,44.2-28.6,58.1l-0.2,0.2
				c-15.4,13.8-38.4,21.1-70.1,22.5h-0.2l-52.1,1.9C931.8,396.3,929.5,396.4,927.2,396.4z M877.1,361.1
				c9.3,10.4,25.3,15.3,50.1,15.3c2,0,4.1,0,6.3-0.1l52.1-1.9c26.9-1.1,45.7-6.8,57.6-17.4l0.2-0.1c11.7-10.6,19.2-26.2,22.3-46.3
				l19.7-124.6l-2,0.1l10.1-64.6c1-5.9,1.4-12,1.2-18c-0.5-12.7-4.1-23.1-10.9-30.9l-0.1-0.1c-13-14.9-38.4-15.9-56.4-15.3
				l-50.2,1.8c-26.8,1.2-45.7,6.8-57.6,17.3l-0.3,0.3c-11.5,10.7-19,26.2-22,46.3l-29.8,189.2c-1,6-1.4,12.1-1.2,18.2
				c0.5,12.4,4,22.7,10.5,30.5L877.1,361.1z M927.3,345.4c-12.1,0-19-1.4-22.7-2.7l-5-1.7l-1.4-5.1c-0.6-2.3-0.9-4.6-1-6.9
				c-0.1-4.1,0.2-8.3,0.9-12.3l29.8-189.1c2-12.7,6-22.1,12-27.9l0.7-0.6c4.5-3.6,14.8-8.2,38-9.2l49.8-1.8
				c15.5-0.5,23.8,1.2,28,2.6l4.8,1.7l1.5,4.9c0.7,2.4,1,4.9,1.1,7.3c0.1,4.1-0.2,8.1-0.8,12.1l-5.9,37.7l-29.9,1.1l2.8-18.3
				c0.2-1.5,0.3-3.1,0.2-4.6c-0.1-6-2.8-11.6-7.4-15.4c-4.3-3.3-9.6-5-15-4.6l-26.3,1c-12.1,0.4-21.2,8.7-23,21l-25.2,161L933,296
				c-0.2,1.6-0.3,3.1-0.2,4.7c0.1,5.9,2.8,11.4,7.3,15.2c4.2,3.4,9.6,5.1,15,4.8l28.3-1c12.2-0.5,21.3-8.7,23.2-21l8.7-55.5L994,244
				l3.8-23.9l51.1-1.9l-13.8,87.5c-2,13-6,22.2-12.4,28l-0.3,0.3c-3.6,3-13.3,8.3-38,9.3l-51.8,1.9
				C930.7,345.3,928.9,345.4,927.3,345.4L927.3,345.4z M917.3,324.9c1.2,0.1,2.5,0.2,4.1,0.3c-1.3-1.7-2.5-3.5-3.5-5.4
				C917.5,321.6,917.3,323.3,917.3,324.9L917.3,324.9z M1041.7,108.2c0.6,0.8,1.2,1.6,1.8,2.5c0.1-0.8,0.2-1.6,0.2-2.3
				C1043,108.3,1042.4,108.2,1041.7,108.2L1041.7,108.2z"/>
		</g>
		<g>
			<path class="st0" d="M1165.2,67.4l100.8-3.7l6.7,284.5l-63.4,2.3l-0.8-53.8l-58.4,2.2l-17.8,54.5l-63.4,2.3L1165.2,67.4z
				 M1208.2,114.3l-39.9,129.5l39-1.4L1208.2,114.3z"/>
		</g>
		<g>
			<path class="st0" d="M1054.8,366.3l103.1-308.6l57.9-2.1l2.8-9.2l-0.1,9.1l57.3-2.1l7.2,304.5l-83.5,3.1l-0.8-53.8l-41.3,1.5
				l-17.8,54.4L1054.8,366.3z M1172.4,77.2l-89.6,268.1l42-1.5l17.8-54.4l75.6-2.8l0.8,53.8l43.3-1.6l-6.3-264.5l-37.9,1.4
				l-1.1,176.5l-62.7,2.3l55-178.5L1172.4,77.2z M1197.7,182.1l-15.7,51.1l15.4-0.6L1197.7,182.1z"/>
		</g>
		<g>
			<path class="st0" d="M1234.1,39.3l56.8-2.1l7.9,335.5l-114.6,4.2l-0.8-53.8l-14.7,0.5l-17.8,54.4l-118,4.4l113.6-340l57.6-2.1
				 M1183.7,92.2l-79.1,236.7l8.9-0.3l17.8-54.4l102.3-3.8l0.8,53.8l12.2-0.5l-5.5-233.6l-7.3,0.3l-1.2,176.5l-99.3,3.7l55-178.5
				L1183.7,92.2z"/>
		</g>
		<g>
			<path class="st0" d="M1244.2,29l56.4-2.1l8.4,355.5l-134.7,5l-0.7-46.5l-15.4,47l-139.4,5.1l120.4-360.3l57.5-2.1 M1211.7,50.2
				l-57.8,2.1L1047,372.1l96.6-3.6l17.8-54.4l31.8-1.2l0.8,53.8l94.6-3.5l-7.5-315.5l-57.1,2.1 M1090.6,339.4l85.8-256.9l25.6-0.9
				L1147,260l75.7-2.8l1.2-176.5l27-1l6,253.6l-32.3,1.2l-0.8-53.8l-85.1,3.1l-17.8,54.4L1090.6,339.4z"/>
		</g>
		<g>
			<path class="st0" d="M1377.3,245.3l-15.6,99.7l-63.4,2.3l44.8-286.4l107.8-4c23-0.7,37.7,2.6,44.2,10.1
				c4.4,5.1,6.8,12.2,7.1,21.4c0.1,5.1-0.2,10.1-1,15.1l-10.9,69.3c-2.6,16.6-11.7,29.2-27.4,37.7c-3.9,1.7-6,3.3-6.4,4.6v0.2
				c0,1.1,1.7,2.3,5.1,3.8c11.7,6.1,17.8,15.2,18.3,27.3c0.1,2.9-0.1,5.9-0.5,8.8l-13.5,86l-63.4,2.3l14.5-92
				c0.1-0.7,0.1-1.5,0.1-2.2c-0.1-3.6-2.3-5.3-6.3-5.1L1377.3,245.3z M1397.9,113.6l-11.9,76.5l33.5-1.2c4.9-0.2,7.7-2.8,8.4-7.9
				l9.6-61.3c0.1-0.7,0.1-1.5,0.1-2.2c-0.1-3.6-2.2-5.3-6.3-5.1L1397.9,113.6z"/>
		</g>
		<g>
			<path class="st0" d="M1286.6,357.7l48-306.6l116.1-4.3c26.8-0.8,43.4,3.5,52.1,13.5c6,6.9,9.2,16.2,9.6,27.6
				c0.2,5.7-0.2,11.4-1.1,17l-11,69.3c-2.7,17.3-11.4,31-25.9,40.9c9.7,7.3,15.5,18.6,15.7,30.8c0.1,3.5-0.1,7-0.6,10.5v0.2
				l-14.8,94.2l-83.8,3.1l15.7-99.6l-20.5,0.8l-15.6,99.6L1286.6,357.7z M1351.7,70.5l-41.7,266.3l43.1-1.6l15.6-99.6l41.7-1.5
				c9.6-0.4,16.4,5.6,16.7,14.8c0,1.3,0,2.6-0.2,3.8v0.3l-12.6,80l43.1-1.6l12.2-77.8c0.3-2.3,0.4-4.6,0.4-6.9
				c-0.3-8.5-4.2-14.2-12.6-18.6c-3.2-1.4-10.5-4.8-10.8-12.4l-0.1-1.7l0.4-1.4c1.5-5.7,6.7-8.8,11.6-11c12.7-7,19.9-16.9,21.9-30.3
				l11-69.3c0.7-4.4,1-8.8,0.9-13.2c-0.3-6.7-1.8-11.9-4.7-15.2c-1.9-2.2-9.5-7.4-36.3-6.6L1351.7,70.5z M1374.3,200.5l15-96.6
				l41.7-1.5c4.1-0.3,8.1,0.9,11.3,3.4c3.4,2.8,5.4,7,5.4,11.4c0,1.3,0,2.6-0.2,3.8v0.3l-9.6,61.2c-1.4,9.7-8.3,16-18,16.3
				L1374.3,200.5z M1406.5,123.3l-8.7,56.3l20.4-0.8l8.9-56.3L1406.5,123.3z"/>
		</g>
		<g>
			<path class="st0" d="M1268.3,373.9l52.8-337.8l129-4.8c20-0.6,48.4,0.6,64.2,18.8l0.1,0.1c8.3,9.6,12.8,22.1,13.3,37.1
				c0.2,6.7-0.3,13.3-1.3,19.9v0.1l-10.9,69.3c-2.1,14.9-8.8,28.8-19.1,39.9c5.6,8.6,8.7,18.6,9,28.8c0.1,4.4-0.1,8.8-0.7,13.1
				l-0.1,0.5L1488,365.8L1268.3,373.9z M1365.1,85.6l-36.8,235.1l11.5-0.4l15.6-99.6l54.5-2c9.2-0.5,18.2,3,24.6,9.7
				c-2.1-3.7-3.3-7.9-3.4-12.1l-0.2-3.8c-3.4,1.2-6.9,1.9-10.5,2l-64.4,2.4l19.8-127.8l54.5-2c7.8-0.5,15.5,1.9,21.6,6.8
				c6.9,5.6,10.9,14,11.1,22.8c0.1,2.1,0,4.2-0.3,6.3l-0.1,0.8l-9.6,61.2c-0.1,0.7-0.2,1.4-0.4,2c7.4-4.5,11.1-10,12.4-18l10.9-69.3
				c0.6-3.4,0.8-6.8,0.7-10.3c0-1.6-0.2-3.2-0.7-4.8c-2.4-0.8-9.3-2.6-24.3-2.1L1365.1,85.6z M1438.5,233.7c2.6,4.5,4,9.5,4.2,14.6
				c0.1,2.1,0,4.2-0.3,6.4l-0.1,0.7l-9.7,61.4l11.5-0.4l10.2-65c0.2-1.4,0.3-2.8,0.2-4.2c-0.1-1.9-0.1-3.2-4-5.3
				C1446,240,1441.9,237.2,1438.5,233.7L1438.5,233.7z"/>
		</g>
		<g>
			<path class="st0" d="M1256.6,384.4l56-357.9l137.2-5.1c22.1-0.7,53.5,0.9,72.1,22.2l0.1,0.1c9.8,11.4,15.1,26,15.8,43.3
				c0.2,7.3-0.3,14.6-1.4,21.8v0.2l-10.9,69.3c-2.1,14.4-7.9,28-16.8,39.4c4.2,8.5,6.5,17.8,6.8,27.3c0.2,5-0.1,9.9-0.8,14.8
				l-0.1,0.6l-18,115L1256.6,384.4z M1329.8,45.8l-49.7,317.6l199.2-7.4l15.5-99c0.5-3.8,0.7-7.6,0.6-11.4
				c-0.2-8.4-2.7-16.6-7.3-23.7l-4.3-6.6l5.4-5.8c8.9-9.6,14.7-21.6,16.5-34.6l11-69.4c0.9-6,1.3-12,1.2-18
				c-0.5-12.7-4.1-23.1-10.9-30.9l-0.1-0.1c-13-14.9-38.4-15.9-56.4-15.4L1329.8,45.8z M1316.5,331.1l39.9-255.3l95-3.5
				c15.6-0.5,23.8,1.2,28,2.7l4.8,1.7l1.5,4.9c0.7,2.4,1,4.9,1.1,7.3c0.1,4.1-0.2,8.1-0.8,12.1l-11,69.4c-1.7,11-7.1,19-17,25
				l-17.3,10.6l0.4,9.8c0.1,2.7,0.8,5.3,2.1,7.6l1,1.8l1.5,1.6c2.6,2.6,5.6,4.6,9,6.1l0.6,0.3c6.2,3.4,9,7.5,9.2,13.7
				c0.1,1.9,0,3.9-0.3,5.8v0.3l-0.9,5.7l21.2,37.4l-23.2-24.7l-8.6,54.7l-31.8,1.2l11.6-73.9c0.2-1.5,0.3-3.1,0.2-4.6
				c-0.1-3.5-1.1-7-2.8-10l-1.1-1.9l-1.5-1.6c-4.4-4.6-10.6-6.9-16.9-6.5l-46.3,1.7l-15.6,99.6L1316.5,331.1z M1384.5,98.6
				l-16.7,107.6l42.2-1.6l-23.3-40l37.3,39.2c1.2-0.2,2.5-0.6,3.7-1l12.5-4.4l2.8-13.7c0.1-0.5,0.2-1,0.3-1.5l9.7-61.8
				c0.2-1.5,0.3-3.1,0.2-4.6c-0.1-6-2.8-11.6-7.4-15.4c-4.3-3.3-9.6-5-15-4.6L1384.5,98.6z M1464.9,92.6c0.6,0.8,1.2,1.6,1.8,2.5
				c0.1-0.8,0.2-1.6,0.2-2.3L1464.9,92.6z"/>
		</g>
		<g class="st1">
			<path class="st2" d="M118.3,341.8l100.3-3.7l-8.7,55.1l-163.7,6L58.1,323c2.8-18,8.7-31.1,17.8-39.4c9-8,27.4-19.5,55.2-34.5
				c27.8-15,42.3-25.7,43.4-32.1l7.1-45.3c0.1-0.8,0.1-1.5,0.1-2.2c-0.1-3.6-2.2-5.3-6.1-5.1l-22.4,0.8c-4.9,0.2-7.7,2.8-8.4,7.9
				l-4.8,30.3l-61.4,2.3l7.1-44.3c2.6-16.6,8.3-29.1,17.3-37.4c9.1-8,25.1-12.5,48.1-13.5l46-1.7c23-0.7,37.7,2.6,44.2,10.1
				c4.4,5.1,6.8,12.3,7.1,21.4c0.2,4.5-0.2,9.5-1,15.1l-10.3,65.3c-2.8,18-8.7,31.1-17.8,39.4c-9,8-27.4,19.5-55.2,34.5
				c-27.8,15-42.2,25-43,30.1L118.3,341.8z"/>
			<path class="st2" d="M245.3,384.1l3.2-53.1l115.6-4.3l-3.2,53.1L245.3,384.1z M275.1,135.3c1.7-10,5.6-17.5,11.5-22.4
				c6-4.8,16.6-7.6,31.8-8.2l34.3-1.3c15.2-0.5,24.9,1.5,29.2,6c2.9,3.1,4.5,7.3,4.7,12.8c0.1,2.7-0.1,5.7-0.7,9.1l-20.1,113.5
				c-1.7,10-5.6,17.5-11.6,22.5c-5.9,4.8-16.5,7.6-31.7,8.2l-34.3,1.3c-15.2,0.5-24.9-1.5-29.3-5.9c-2.8-3.1-4.3-7.3-4.5-12.7
				c-0.1-2.8,0.1-5.8,0.7-9.2L275.1,135.3z M298.4,238.8c-0.1,0.5-0.1,0.9-0.1,1.3c0.1,2.1,1.4,3.2,4,3.1l17.4-0.6
				c3.2-0.1,5.1-1.7,5.6-4.7l17-96.7c0.1-0.5,0.1-0.9,0.1-1.3c-0.1-2.1-1.5-3.2-4.2-3.1l-17.4,0.6c-3.1,0.1-5,1.7-5.5,4.7
				L298.4,238.8z"/>
			<path class="st2" d="M558,95.6l63.4-2.3l-36.1,231.3l71.7-2.6l-8.7,55.1l-135.2,5L558,95.6z"/>
			<path class="st2" d="M816.8,86l63.4-2.3L843,321.4c-2.6,16.6-8.4,29.1-17.5,37.4c-9,8-24.9,12.5-47.9,13.5l-51.9,1.9
				c-23,0.7-37.8-2.6-44.4-10.1c-4.3-5.1-6.6-12.2-6.9-21.2c-0.2-4.6,0.2-9.7,1-15.3l37.3-237.7l63.4-2.3l-35,223.8
				c-0.1,0.8-0.1,1.5-0.1,2.2c0.1,3.6,2.2,5.3,6.1,5.1l26.4-1c4.9-0.2,7.7-2.8,8.4-7.9L816.8,86z"/>
			<path class="st2" d="M1070.2,207.7l-16.7,106c-2.6,16.6-8.4,29.1-17.5,37.4c-9,8-24.9,12.5-47.9,13.5l-51.9,1.9
				c-23,0.7-37.8-2.6-44.4-10.1c-4.3-5.1-6.6-12.2-6.9-21.2c-0.2-4.6,0.2-9.7,1-15.3l29.8-189c2.6-16.6,8.3-29.1,17.3-37.4
				c9.1-8,25.1-12.5,48.1-13.5l49.9-1.8c23-0.7,37.7,2.6,44.2,10.1c4.4,5.1,6.8,12.3,7.1,21.4c0.2,4.5-0.2,9.5-1,15.1l-7.9,50.3
				l-61.4,2.3l5.6-36.3c0.1-0.8,0.1-1.5,0.1-2.2c-0.1-3.6-2.2-5.3-6.3-5.1l-26.4,1c-4.8,0.2-7.5,2.8-8.2,7.8l-25.2,161.1
				c-0.1,0.8-0.1,1.5-0.1,2.2c0.1,3.6,2.2,5.3,6.1,5.1l28.3-1c4.9-0.2,7.7-2.8,8.4-7.9l5.8-36.9l-21.2,0.8l8.7-55.1L1070.2,207.7z"
				/>
			<path class="st2" d="M1168.2,73.1l100.9-3.7l6.7,284.5l-63.4,2.3l-0.8-53.8l-58.5,2.2l-17.8,54.4l-63.4,2.3L1168.2,73.1z
				 M1211.2,119.9l-39.9,129.5l39-1.4L1211.2,119.9z"/>
			<path class="st2" d="M1380.4,251l-15.6,99.6l-63.4,2.3l44.8-286.4l107.8-4c23-0.7,37.7,2.6,44.2,10.1c4.4,5.1,6.8,12.3,7.1,21.4
				c0.2,4.5-0.2,9.5-1,15.1l-10.9,69.3c-2.6,16.6-11.7,29.2-27.4,37.7c-3.9,1.7-6,3.3-6.4,4.6l0,0.2c0,1.1,1.7,2.3,5.1,3.8
				c11.7,6.1,17.8,15.2,18.3,27.3c0.1,2.8-0.1,5.7-0.5,8.7l-13.5,86l-63.4,2.3l14.5-92c0.1-0.8,0.1-1.5,0.1-2.2
				c-0.1-3.6-2.2-5.3-6.3-5.1L1380.4,251z M1400.9,119.3l-11.9,76.4l33.5-1.2c4.9-0.2,7.7-2.8,8.4-7.9l9.7-61.3
				c0.1-0.8,0.1-1.5,0.1-2.2c-0.1-3.6-2.2-5.3-6.3-5.1L1400.9,119.3z"/>
		</g>
	</g>
</g>
</svg>
