<?xml version="1.0" encoding="utf-8"?>
<!-- Generator: Adobe Illustrator 22.0.1, SVG Export Plug-In . SVG Version: 6.00 Build 0)  -->
<svg version="1.1" id="Camada_1" xmlns="http://www.w3.org/2000/svg" xmlns:xlink="http://www.w3.org/1999/xlink" x="0px" y="0px"
	 viewBox="0 0 1529.2 491.7" style="enable-background:new 0 0 1529.2 491.7;" xml:space="preserve">
<style type="text/css">
	.st0{fill:#003366;}
	.st1{enable-background:new    ;}
	.st2{fill:#FFFFFF;}
</style>
<title>Asset 7</title>
<g id="Layer_2">
	<g id="Objects">
		<g>
			<path class="st0" d="M93.6,393.5c-23,0.7-37.8-2.6-44.4-10.1c-4.3-5.1-6.6-12.2-6.9-21.2c-0.2-5.1,0.2-10.3,1-15.3l6.8-42.3
				l63.4-2.3l-4.5,28.4c-0.1,0.7-0.1,1.5-0.1,2.2c0.1,3.6,2.3,5.3,6.3,5.1l22.2-0.8c4.9-0.2,7.7-2.8,8.4-7.9l7.1-45.3
				c0.1-0.8,0.1-1.6,0.1-2.4c-0.1-3.4-2.2-5.1-6.1-4.9l-24.6,0.9l8.5-55.3l24.6-0.9c4.9-0.2,7.8-2.8,8.6-7.9l7.1-45.3
				c0.1-0.7,0.1-1.5,0.1-2.2c-0.1-3.6-2.3-5.3-6.3-5.1l-20.2,0.8c-4.9,0.2-7.7,2.8-8.4,7.9l-4.8,30.4L69.8,202l7.2-44.3
				c2.6-16.6,8.3-29.1,17.3-37.3c9.1-8,25.1-12.5,48.1-13.5l42-1.6c23-0.7,37.7,2.6,44.2,10.1c4.4,5.1,6.8,12.2,7.1,21.4
				c0.1,5.1-0.2,10.1-1,15.1l-8.4,53.3c-2.7,16.7-11.8,29.2-27.4,37.7c-4,1.7-6.2,3.3-6.6,4.6c0,1.2,1.7,2.5,5.1,4
				c11.8,6,18,15.1,18.4,27.1c0.1,3-0.1,6-0.7,9l-8.3,53.3c-2.6,16.6-8.4,29.1-17.5,37.4c-9,8-24.9,12.5-47.9,13.5L93.6,393.5z"/>
		</g>
		<g>
			<path class="st0" d="M87.3,425.1c-20.3,0-45.9-3.1-61.6-20.7l-0.7-0.8c-8.9-10.6-13.7-24.1-14.2-40.2c-0.2-7.1,0.2-14.2,1.4-21.2
				v-0.2L23,274l68.3-2.5l6-39l-64.6,2.4l13.1-82.1c3.7-23.7,12.8-42.4,27-55.6l0.6-0.5c14.8-13,36.9-20,67.6-21.3h0.2l42.2-1.6
				c21.2-0.7,51.4,0.8,68.9,20.8l0.1,0.2c9.2,10.7,14.2,24.4,14.8,40.8c0.2,7-0.3,14.1-1.4,21v0.1l-8.4,53.5
				c-2.2,14.5-8.3,28.1-17.6,39.4c4.7,8.5,7.3,18.1,7.6,27.8c0.2,5.1-0.2,10.2-1.1,15.3l-8.3,53c-3.7,23.8-12.9,42.6-27.4,55.8
				l-0.2,0.2c-14.7,13.1-36.8,20.1-67.6,21.5h-0.2l-48.1,1.8C92.2,425,89.8,425.1,87.3,425.1z M73.7,361.1c6,0.9,12,1.2,18,0.9
				l-1-0.8c-7.9-6.4-12.8-15.9-13.3-26.1H77l-2.7,16.6C73.8,354.8,73.6,357.9,73.7,361.1L73.7,361.1z M173.8,344.9
				c-1.7,3.9-4,7.5-6.8,10.7c0.5-0.2,1-0.5,1.5-0.8C170.6,352.7,172.4,349.3,173.8,344.9L173.8,344.9z M184.4,280.3v0.1
				c0,0.1,0,0.3,0,0.5C184.4,280.6,184.4,280.5,184.4,280.3L184.4,280.3z M188.3,136.7c0.3,0.3,0.6,0.5,1,0.8
				c6.5,5.2,11,12.6,12.6,20.8l1.8-11.2c0.5-3,0.7-6.1,0.7-9.1v-0.2C199,136.9,193.6,136.5,188.3,136.7L188.3,136.7z"/>
		</g>
		<g>
			<path class="st0" d="M237.6,380.4l3.2-53.1l115.6-4.3l-3.2,53.1L237.6,380.4z M267.4,131.5c1.7-10,5.5-17.5,11.5-22.4
				c6-4.8,16.6-7.6,31.8-8.2l34.3-1.3c15.2-0.5,24.9,1.5,29.2,6c2.9,3.1,4.5,7.3,4.7,12.8c0.1,3-0.2,6.1-0.7,9.1L358,241
				c-1.7,10-5.6,17.5-11.6,22.5c-5.9,4.8-16.5,7.6-31.6,8.2l-34.3,1.3c-15.2,0.5-24.9-1.5-29.3-5.9c-2.8-3.1-4.3-7.3-4.5-12.7
				c-0.1-3.1,0.2-6.2,0.7-9.2L267.4,131.5z M290.7,235.1c-0.1,0.4-0.1,0.9-0.1,1.3c0.1,2.1,1.4,3.2,4,3.1l17.4-0.6
				c3.2-0.1,5.1-1.7,5.6-4.7l17-96.7c0.1-0.4,0.1-0.9,0.1-1.3c-0.1-2.1-1.5-3.2-4.2-3.1l-17.4,0.6c-3.1,0.1-5,1.7-5.5,4.7
				L290.7,235.1z"/>
		</g>
		<g>
			<path class="st0" d="M204.1,413.2l7-116.3l26.5-1c-3.3-1.9-6.2-4.3-8.9-7l-0.7-0.7c-5.5-6-12.2-16.6-12.8-32.9
				c-0.2-5.3,0.2-10.5,1.1-15.7v-0.1l20-113.5c3-17.4,10.5-31.3,22.2-41.1l0.6-0.5c11.7-9.3,27.6-14.1,50.2-15.1h0.2l34.4-1.3
				c15.8-0.5,38.4,0.6,52.9,15.6l0.2,0.2c5.7,6,12.6,16.7,13.3,33.3c0.2,5.2-0.2,10.4-1.1,15.5v0.2l-20,113.5
				c-3,17.5-10.6,31.4-22.5,41.3l-0.2,0.2c-1.5,1.3-3.2,2.4-4.8,3.5l28.6-1.1l-7,116.3L204.1,413.2z"/>
		</g>
		<g>
			<path class="st0" d="M550.2,91.8l63.4-2.3l-36.1,231.3l71.8-2.6l-8.7,55.1l-135.2,5L550.2,91.8z"/>
		</g>
		<g>
			<polygon class="st0" points="468.4,411.1 523.1,61.3 650.7,56.6 614.5,287.9 686.3,285.3 667.7,403.8 			"/>
		</g>
		<g>
			<path class="st0" d="M809.1,82.3l63.4-2.3l-37.3,237.8c-2.6,16.6-8.4,29.1-17.5,37.4c-9,8-24.9,12.5-47.9,13.5l-51.9,1.9
				c-23,0.7-37.8-2.6-44.4-10.1c-4.3-5.1-6.6-12.2-6.9-21.2c-0.1-5.1,0.2-10.3,1-15.3l37.3-237.7l63.4-2.3l-35,223.8
				c-0.1,0.7-0.1,1.5-0.1,2.2c0.1,3.6,2.2,5.3,6.1,5.1l26.4-1c4.9-0.2,7.7-2.8,8.4-7.9L809.1,82.3z"/>
		</g>
		<g>
			<path class="st0" d="M711.6,402c-20.3,0-45.9-3.1-61.6-20.7l-0.7-0.8c-8.9-10.6-13.7-24.1-14.2-40.2c-0.2-7.1,0.2-14.2,1.4-21.2
				V319l41.3-263.4L909.5,47l-43.2,275.5c-3.7,23.8-12.9,42.6-27.4,55.8l-0.2,0.2c-14.7,13.1-36.8,20.1-67.6,21.5H771l-52.1,1.9
				C716.5,402,714.1,402,711.6,402z M698,338c6,0.9,12,1.3,18,1c-8.8-6.7-14.1-17-14.3-28.1V310l-2.9,18.7
				C698.2,331.8,698,334.9,698,338z M802.1,321.7c-1.7,3.9-4,7.5-6.8,10.7c0.5-0.2,1-0.5,1.5-0.8
				C798.9,329.5,800.7,326.1,802.1,321.7L802.1,321.7z"/>
		</g>
		<g>
			<path class="st0" d="M1062.4,203.9l-16.7,106c-2.6,16.7-8.4,29.1-17.5,37.4c-9,8-24.9,12.5-47.9,13.5l-51.9,1.9
				c-23,0.7-37.8-2.6-44.4-10.1c-4.3-5.1-6.6-12.2-6.9-21.2c-0.2-5.1,0.2-10.3,1-15.3l29.7-189c2.6-16.6,8.3-29.1,17.3-37.4
				c9.1-8,25.1-12.5,48.1-13.5l50-1.8c23-0.7,37.7,2.6,44.2,10.1c4.4,5.1,6.8,12.3,7.1,21.4c0.1,5.1-0.2,10.1-1,15.1l-7.9,50.3
				l-61.4,2.3l5.6-36.3c0.1-0.7,0.1-1.5,0.1-2.2c-0.1-3.6-2.2-5.3-6.3-5.1l-26.4,1c-4.7,0.2-7.5,2.8-8.2,7.8l-25.3,161
				c-0.1,0.7-0.1,1.5-0.1,2.2c0.1,3.6,2.2,5.3,6.1,5.1l28.3-1c4.9-0.2,7.7-2.8,8.4-7.9l5.8-36.9l-21.2,0.8l8.7-55.1L1062.4,203.9z"
				/>
		</g>
		<g>
			<path class="st0" d="M922,394.3c-20.3,0-45.9-3.1-61.6-20.7l-0.7-0.8c-8.9-10.6-13.7-24.1-14.2-40.2c-0.2-7.1,0.2-14.2,1.4-21.2
				v-0.1l29.7-189c3.7-23.8,12.8-42.5,27-55.7l0.6-0.5c14.8-13,36.9-20,67.6-21.3h0.3l50.1-1.8c21.2-0.7,51.4,0.8,68.9,20.8l0.1,0.2
				c9.2,10.7,14.2,24.4,14.8,40.8c0.2,7-0.3,14.1-1.4,21v0.1l-7.1,45.3l2-0.1l-22.7,143.8c-3.7,23.8-12.9,42.6-27.4,55.8l-0.2,0.2
				c-14.7,13.1-36.8,20.1-67.6,21.5h-0.2l-52.1,1.9C927,394.2,924.6,394.3,922,394.3z M908.4,330.3c5.9,0.9,12,1.2,18,0.9
				c-0.5-0.4-1-0.7-1.4-1.1c-8-6.7-12.7-16.6-12.9-27v-0.9l-2.9,18.7C908.6,324,908.4,327.1,908.4,330.3L908.4,330.3z M1027,105.8
				c7,5.3,11.9,12.9,13.6,21.5l1.8-11.2c0.5-3,0.7-6.1,0.7-9.1v-0.2C1037.7,106,1032.4,105.6,1027,105.8z M946,113.2
				c-2,2.1-3.8,5.5-5.2,9.8c1.7-3.9,4-7.6,6.9-10.8C947.1,112.6,946.5,112.9,946,113.2z"/>
		</g>
		<g>
			<path class="st0" d="M1160.5,69.3l100.9-3.7l6.7,284.5l-63.4,2.3l-0.8-53.8l-58.5,2.2l-17.8,54.4l-63.4,2.3L1160.5,69.3z
				 M1203.5,116.1l-39.9,129.5l39.1-1.4L1203.5,116.1z"/>
		</g>
		<g>
			<path class="st0" d="M1235.5,35l56.6-2.1l8.2,347.5l-126.7,4.7l-0.8-53.8l-4.3,0.2l-17.8,54.5l-130.8,4.8l117.7-352.2l57.5-2.1
				 M1235.3,300.3l0.3,19.5h0.2L1235.3,300.3z M1234.1,247l-0.1,19.1h0.6L1234.1,247z"/>
		</g>
		<g>
			<path class="st0" d="M1372.6,247.3l-15.6,99.6l-63.4,2.3l44.8-286.4l107.8-4c23-0.7,37.7,2.6,44.2,10.1
				c4.4,5.1,6.8,12.3,7.1,21.4c0.1,5.1-0.2,10.1-1,15.1l-10.9,69.3c-2.6,16.6-11.7,29.2-27.4,37.7c-3.9,1.7-6,3.3-6.4,4.6v0.2
				c0,1.1,1.7,2.3,5.1,3.8c11.7,6.1,17.8,15.2,18.3,27.3c0.1,2.9-0.1,5.9-0.5,8.8l-13.5,86l-63.4,2.3l14.5-92
				c0.1-0.7,0.1-1.5,0.1-2.2c-0.1-3.6-2.3-5.3-6.3-5.1L1372.6,247.3z M1393.2,115.5l-11.9,76.5l33.5-1.2c4.9-0.2,7.7-2.8,8.4-7.9
				l9.6-61.3c0.1-0.7,0.1-1.5,0.1-2.2c-0.1-3.6-2.2-5.3-6.3-5.1L1393.2,115.5z"/>
		</g>
		<g>
			<path class="st0" d="M1256.6,382.1l54.7-349.9l134-4.9c21.2-0.7,51.4,0.8,68.9,20.8l0.1,0.2c9.2,10.7,14.2,24.4,14.8,40.8
				c0.2,7-0.2,14.1-1.4,21v0.2l-10.9,69.2c-2.1,14.6-8.2,28.3-17.6,39.6c4.7,8.6,7.3,18.2,7.5,28c0.2,4.7-0.1,9.5-0.7,14.2l-0.1,0.6
				l-17.6,111.7L1256.6,382.1z M1450.2,90.2c7,5.3,11.8,12.9,13.6,21.5l1.8-11.2c0.5-3,0.7-6.1,0.7-9.1v-0.2
				C1460.9,90.3,1455.5,90,1450.2,90.2z"/>
		</g>
		<g class="st1">
			<path class="st2" d="M99.1,397.2c-23,0.7-37.8-2.6-44.4-10.1c-4.3-5.1-6.6-12.2-6.9-21.2c-0.2-4.6,0.2-9.7,1-15.3l6.8-42.3
				L119,306l-4.5,28.3c-0.1,0.8-0.1,1.5-0.1,2.2c0.1,3.6,2.2,5.3,6.3,5.1l22.2-0.8c4.9-0.2,7.7-2.8,8.4-7.9l7.1-45.3
				c0.1-0.9,0.1-1.7,0.1-2.4c-0.1-3.4-2.2-5.1-6.1-4.9l-24.6,0.9l8.5-55.3l24.6-0.9c4.9-0.2,7.8-2.8,8.6-7.9l7.1-45.3
				c0.1-0.8,0.1-1.5,0.1-2.2c-0.1-3.6-2.2-5.3-6.3-5.1l-20.2,0.7c-4.9,0.2-7.7,2.8-8.4,7.9l-4.8,30.3l-61.4,2.3l7.1-44.3
				c2.6-16.6,8.3-29.1,17.3-37.4c9.1-8,25.1-12.5,48.1-13.5l42-1.5c23-0.7,37.7,2.6,44.2,10.1c4.4,5.1,6.8,12.3,7.1,21.4
				c0.2,4.5-0.2,9.5-1,15.1l-8.4,53.3c-2.7,16.6-11.8,29.2-27.4,37.7c-4,1.7-6.2,3.3-6.6,4.6c0,1.2,1.7,2.5,5.1,4
				c11.9,6,18,15.1,18.5,27.1c0.1,2.9-0.1,5.9-0.7,9l-8.4,53.3c-2.6,16.6-8.4,29.1-17.5,37.4c-9,8-24.9,12.5-47.9,13.5L99.1,397.2z"
				/>
			<path class="st2" d="M243.1,384.1l3.2-53.1l115.6-4.3l-3.2,53.1L243.1,384.1z M272.9,135.3c1.7-10,5.6-17.5,11.5-22.4
				c6-4.8,16.6-7.6,31.8-8.2l34.3-1.3c15.2-0.5,24.9,1.5,29.2,6c2.9,3.1,4.5,7.3,4.7,12.8c0.1,2.7-0.1,5.7-0.7,9.1l-20.1,113.5
				c-1.7,10-5.6,17.5-11.6,22.5c-5.9,4.8-16.5,7.6-31.7,8.2l-34.3,1.3c-15.2,0.5-24.9-1.5-29.3-5.9c-2.8-3.1-4.3-7.3-4.5-12.7
				c-0.1-2.8,0.1-5.8,0.7-9.2L272.9,135.3z M296.3,238.8c-0.1,0.5-0.1,0.9-0.1,1.3c0.1,2.1,1.4,3.2,4,3.1l17.4-0.6
				c3.2-0.1,5.1-1.7,5.6-4.7l17-96.7c0.1-0.5,0.1-0.9,0.1-1.3c-0.1-2.1-1.5-3.2-4.2-3.1l-17.4,0.6c-3.1,0.1-5,1.7-5.5,4.7
				L296.3,238.8z"/>
			<path class="st2" d="M555.8,95.6l63.4-2.3l-36.1,231.3l71.7-2.6l-8.7,55.1L511,382L555.8,95.6z"/>
			<path class="st2" d="M814.6,86l63.4-2.3l-37.3,237.7c-2.6,16.6-8.4,29.1-17.5,37.4c-9,8-24.9,12.5-47.9,13.5l-51.9,1.9
				c-23,0.7-37.8-2.6-44.4-10.1c-4.3-5.1-6.6-12.2-6.9-21.2c-0.2-4.6,0.2-9.7,1-15.3l37.3-237.7l63.4-2.3l-35,223.8
				c-0.1,0.8-0.1,1.5-0.1,2.2c0.1,3.6,2.2,5.3,6.1,5.1l26.4-1c4.9-0.2,7.7-2.8,8.4-7.9L814.6,86z"/>
			<path class="st2" d="M1068,207.7l-16.7,106c-2.6,16.6-8.4,29.1-17.5,37.4c-9,8-24.9,12.5-47.9,13.5l-51.9,1.9
				c-23,0.7-37.8-2.6-44.4-10.1c-4.3-5.1-6.6-12.2-6.9-21.2c-0.2-4.6,0.2-9.7,1-15.3l29.8-189c2.6-16.6,8.3-29.1,17.3-37.4
				c9.1-8,25.1-12.5,48.1-13.5l49.9-1.8c23-0.7,37.7,2.6,44.2,10.1c4.4,5.1,6.8,12.3,7.1,21.4c0.2,4.5-0.2,9.5-1,15.1l-7.9,50.3
				l-61.4,2.3l5.6-36.3c0.1-0.8,0.1-1.5,0.1-2.2c-0.1-3.6-2.2-5.3-6.3-5.1l-26.4,1c-4.8,0.2-7.5,2.8-8.2,7.8l-25.2,161.1
				c-0.1,0.8-0.1,1.5-0.1,2.2c0.1,3.6,2.2,5.3,6.1,5.1l28.3-1c4.9-0.2,7.7-2.8,8.4-7.9l5.8-36.9l-21.2,0.8l8.7-55.1L1068,207.7z"/>
			<path class="st2" d="M1166,73.1l100.9-3.7l6.7,284.5l-63.4,2.3l-0.8-53.8l-58.5,2.2l-17.8,54.4l-63.4,2.3L1166,73.1z M1209,119.9
				l-39.9,129.5l39-1.4L1209,119.9z"/>
			<path class="st2" d="M1378.2,251l-15.6,99.6l-63.4,2.3L1344,66.5l107.8-4c23-0.7,37.7,2.6,44.2,10.1c4.4,5.1,6.8,12.3,7.1,21.4
				c0.2,4.5-0.2,9.5-1,15.1l-10.9,69.3c-2.6,16.6-11.7,29.2-27.4,37.7c-3.9,1.7-6,3.3-6.4,4.6l0,0.2c0,1.1,1.7,2.3,5.1,3.8
				c11.7,6.1,17.8,15.2,18.3,27.3c0.1,2.8-0.1,5.7-0.5,8.7l-13.5,86l-63.4,2.3l14.5-92c0.1-0.8,0.1-1.5,0.1-2.2
				c-0.1-3.6-2.2-5.3-6.3-5.1L1378.2,251z M1398.7,119.3l-11.9,76.4l33.5-1.2c4.9-0.2,7.7-2.8,8.4-7.9l9.7-61.3
				c0.1-0.8,0.1-1.5,0.1-2.2c-0.1-3.6-2.2-5.3-6.3-5.1L1398.7,119.3z"/>
		</g>
	</g>
</g>
</svg>
