<svg xmlns="http://www.w3.org/2000/svg" xmlns:xlink="http://www.w3.org/1999/xlink" viewBox="0 0 282.25 315.56"><defs><style>.cls-1{fill:none;}.cls-2{isolation:isolate;}.cls-11,.cls-12,.cls-3,.cls-4{fill:#92e8ff;}.cls-3{opacity:0.5;}.cls-3,.cls-4{mix-blend-mode:hard-light;}.cls-31,.cls-5{opacity:0.1;}.cls-6{fill:#f6feff;}.cls-7{fill:#242893;}.cls-8{fill:url(#Gradient_bez_nazwy_56);}.cls-11,.cls-32,.cls-9{mix-blend-mode:lighten;}.cls-10{fill:#0d85d6;}.cls-13{mix-blend-mode:screen;}.cls-14{fill:url(#Gradient_bez_nazwy_56-2);}.cls-15,.cls-34{mix-blend-mode:color-dodge;}.cls-16{fill:url(#Gradient_bez_nazwy_56-3);}.cls-17{fill:url(#Gradient_bez_nazwy_56-4);}.cls-18{fill:url(#Gradient_bez_nazwy_56-5);}.cls-19{fill:#171d6d;}.cls-20{fill:url(#Gradient_bez_nazwy_56-6);}.cls-21{fill:url(#Gradient_bez_nazwy_56-7);}.cls-22{fill:url(#Gradient_bez_nazwy_56-8);}.cls-23{fill:url(#Gradient_bez_nazwy_56-9);}.cls-24{fill:url(#Gradient_bez_nazwy_56-10);}.cls-25{fill:url(#Gradient_bez_nazwy_56-11);}.cls-26{fill:#dd8583;}.cls-27{fill:#f8b7b0;}.cls-28{fill:url(#Gradient_bez_nazwy_56-12);}.cls-29{fill:url(#Gradient_bez_nazwy_56-13);}.cls-30{clip-path:url(#clip-path);}.cls-31{fill:#ff4a1a;mix-blend-mode:multiply;}.cls-32{fill:url(#Gradient_bez_nazwy_60);}.cls-33{clip-path:url(#clip-path-2);}.cls-34{fill:url(#Gradient_bez_nazwy_56-14);}</style><linearGradient id="Gradient_bez_nazwy_56" x1="160.48" y1="193.46" x2="160.48" y2="120.85" gradientUnits="userSpaceOnUse"><stop offset="0.28" stop-color="#5213ba"/><stop offset="1" stop-color="#4750b7"/></linearGradient><linearGradient id="Gradient_bez_nazwy_56-2" x1="196.27" y1="157.68" x2="196.27" y2="120.88" xlink:href="#Gradient_bez_nazwy_56"/><linearGradient id="Gradient_bez_nazwy_56-3" x1="177.8" y1="46.56" x2="182.13" y2="79.22" gradientTransform="translate(171.9 -125.2) rotate(66.99)" xlink:href="#Gradient_bez_nazwy_56"/><linearGradient id="Gradient_bez_nazwy_56-4" x1="169.32" y1="47.68" x2="173.65" y2="80.35" xlink:href="#Gradient_bez_nazwy_56"/><linearGradient id="Gradient_bez_nazwy_56-5" x1="186.28" y1="45.43" x2="190.61" y2="78.1" xlink:href="#Gradient_bez_nazwy_56"/><linearGradient id="Gradient_bez_nazwy_56-6" x1="172.72" y1="321.71" x2="111.65" y2="213.68" xlink:href="#Gradient_bez_nazwy_56"/><linearGradient id="Gradient_bez_nazwy_56-7" x1="257.76" y1="280.33" x2="198.6" y2="175.69" xlink:href="#Gradient_bez_nazwy_56"/><linearGradient id="Gradient_bez_nazwy_56-8" x1="232.53" y1="294.55" x2="166.66" y2="178.03" xlink:href="#Gradient_bez_nazwy_56"/><linearGradient id="Gradient_bez_nazwy_56-9" x1="237.53" y1="286.3" x2="180.82" y2="185.98" xlink:href="#Gradient_bez_nazwy_56"/><linearGradient id="Gradient_bez_nazwy_56-10" x1="193.92" y1="324.97" x2="128.45" y2="209.16" xlink:href="#Gradient_bez_nazwy_56"/><linearGradient id="Gradient_bez_nazwy_56-11" x1="243.68" y1="289.6" x2="183.9" y2="183.84" xlink:href="#Gradient_bez_nazwy_56"/><linearGradient id="Gradient_bez_nazwy_56-12" x1="71.5" y1="318.85" x2="71.5" y2="275.82" xlink:href="#Gradient_bez_nazwy_56"/><linearGradient id="Gradient_bez_nazwy_56-13" x1="-532.82" y1="319.09" x2="-532.82" y2="275.75" gradientTransform="matrix(-1, 0, 0, 1, -295.5, 0)" xlink:href="#Gradient_bez_nazwy_56"/><clipPath id="clip-path"><path class="cls-1" d="M123.45,248.19a18.54,18.54,0,0,0-7.21,1.3,31.61,31.61,0,0,0,2.48-3.1c2.28,1.66,7-.45,7.76-1.4,1.15-1.53.44-5.49,0-8.63a39.57,39.57,0,0,0-1.17-6c-.44-2-2.22-3.77-5.88-3.89a3.51,3.51,0,0,0-2.13.74,14.21,14.21,0,0,0-.91-3.17c-.59-1.64-2.4-2.67-5.85-2.77-1.85-.05-3.67,1.86-5.39,4.56-.6-1.77-2.5-2.77-6.16-2.61-1.67.08-3.2,1.74-4.62,4.13A8.88,8.88,0,0,0,90,226.06c-2.95-.24-6.12,4.5-9,9.52-4.7,4-8.52,10.61-14,20.4-7.12,2.82-10.46,9.44-14.19,14.5-5.42,7.34-10.88,14.62-10.88,14.62H95.11s.87-5.1,5.58-15.24a4.69,4.69,0,0,0-.12-3.87c4.79-.46,9.93-1.56,13.39-4.06,8.24-5.93,18.81-3.73,18.68-8.47C132.48,247.83,128.66,248.14,123.45,248.19Z"/></clipPath><linearGradient id="Gradient_bez_nazwy_60" x1="138.64" y1="248.1" x2="138.64" y2="208.37" gradientUnits="userSpaceOnUse"><stop offset="0" stop-color="blue" stop-opacity="0"/><stop offset="1" stop-color="#48a5f9"/></linearGradient><clipPath id="clip-path-2"><path class="cls-1" d="M256.25,270.48c-3.83-5.2-7.95-11.89-16-14.72-2.54-6.06-4.7-10.83-7.08-14.51a2.47,2.47,0,0,0-.11-.36c-2.37-6.82-5.19-17.11-9.36-17.52-2.79-.27-4.58.21-5.58,1.23-1.19-2.94-2.62-5.11-4.43-5.41-4.13-.67-6.17.43-6.69,2.66a1.3,1.3,0,0,0,0,.21,25.8,25.8,0,0,0-.94,2.71,3.84,3.84,0,0,0-2.38-1.36c-3.44-.31-5.36.5-6.14,2.06a9.12,9.12,0,0,0-.64,1.29c-1.1-1.71-2.3-2.84-3.64-3a7.29,7.29,0,0,0-4.3.78,3.75,3.75,0,0,0-.69.36c-1.42.94-2.3,4.1-3.11,6.68s-2.09,5.9-1.31,7.13c1,1.58,3.71,2.13,5.91,1.34,1.54,3.37,3.55,6.85,4.91,8.19l.27.45c-6-1.15-6.29-2.53-12.13-2.53-5.2,0-9-.29-9.14,5.35-.1,4.73,10.45,2.45,18.75,8.31,4.06,2.87,10.38,3.85,15.77,4.1l1.55,1.49a7.27,7.27,0,0,0,.19,5c4.72,10.14,4.09,14.62,4.09,14.62h51.36A114.49,114.49,0,0,0,256.25,270.48Z"/></clipPath><linearGradient id="Gradient_bez_nazwy_56-14" x1="240.29" y1="222.39" x2="232.34" y2="210.36" xlink:href="#Gradient_bez_nazwy_56"/></defs><title>Asset 1</title><g class="cls-2"><g id="Layer_2" data-name="Layer 2"><g id="Objects"><rect class="cls-3" x="167.8" y="167.78" width="25.49" height="2.56"/><rect class="cls-3" x="166.35" y="172.02" width="16.74" height="2.56"/><rect class="cls-3" x="187.06" y="172.02" width="6.23" height="2.56"/><rect class="cls-3" x="179.13" y="176.25" width="14.16" height="2.56"/><rect class="cls-4" x="184.79" y="180.49" width="8.5" height="2.56"/><rect class="cls-3" x="170.35" y="180.49" width="11.54" height="2.56"/><rect class="cls-3" x="164.4" y="184.72" width="28.89" height="2.56"/><rect class="cls-3" x="176.3" y="188.95" width="16.99" height="2.56"/><rect class="cls-3" x="187.06" y="193.19" width="6.23" height="2.56"/><rect class="cls-3" x="166.35" y="176.25" width="9.65" height="2.56"/><rect class="cls-3" x="170.91" y="214.36" width="6.23" height="2.56"/><rect class="cls-3" x="161.28" y="214.36" width="6.23" height="2.56"/><rect class="cls-3" x="173.46" y="197.42" width="19.83" height="2.56"/><rect class="cls-3" x="166.35" y="201.66" width="15.61" height="2.56"/><rect class="cls-3" x="184.79" y="201.66" width="8.5" height="2.56"/><rect class="cls-3" x="169.21" y="193.19" width="14.16" height="2.56"/><rect class="cls-3" x="179.13" y="205.89" width="14.16" height="2.56"/><rect class="cls-3" x="187.06" y="210.13" width="6.23" height="2.56"/><rect class="cls-4" x="170.35" y="205.89" width="6.23" height="2.56"/><rect class="cls-4" x="179.13" y="214.36" width="14.16" height="2.56"/><rect class="cls-3" x="167.8" y="210.13" width="16.66" height="2.56"/><rect class="cls-4" x="164.4" y="218.6" width="28.89" height="2.56"/><rect class="cls-3" x="185.36" y="222.83" width="7.93" height="2.56"/><rect class="cls-3" x="166.95" y="222.83" width="14.93" height="2.56"/><rect class="cls-3" x="158.88" y="227.07" width="16.1" height="2.56"/><rect class="cls-3" x="177.92" y="227.07" width="15.37" height="2.56"/><rect class="cls-3" x="171.76" y="231.3" width="21.53" height="2.56"/><rect class="cls-3" x="115.18" y="231.3" width="14.9" height="2.56"/><rect class="cls-3" x="115.18" y="227.07" width="6.23" height="2.56"/><rect class="cls-3" x="115.18" y="222.83" width="14.16" height="2.56"/><rect class="cls-3" x="115.18" y="218.6" width="8.5" height="2.56"/><rect class="cls-3" x="115.18" y="214.36" width="16.89" height="2.56"/><rect class="cls-3" x="115.18" y="210.13" width="21.53" height="2.56"/><rect class="cls-4" x="115.18" y="205.89" width="6.23" height="2.56"/><rect class="cls-3" x="115.18" y="201.66" width="11.59" height="2.56"/><rect class="cls-3" x="115.18" y="197.42" width="14.16" height="2.56"/><rect class="cls-3" x="115.18" y="193.19" width="14.16" height="2.56"/><rect class="cls-3" x="115.18" y="188.95" width="6.23" height="2.56"/><rect class="cls-3" x="115.18" y="184.72" width="14.16" height="2.56"/><rect class="cls-3" x="115.18" y="180.49" width="16.89" height="2.56"/><rect class="cls-3" x="115.18" y="176.25" width="7.93" height="2.56"/><rect class="cls-3" x="115.18" y="172.02" width="15.37" height="2.56"/><rect class="cls-3" x="115.18" y="167.78" width="12.58" height="2.56"/><g class="cls-5"><rect class="cls-3" x="223.55" width="50.02" height="5.02"/><rect class="cls-3" x="220.72" y="8.31" width="32.85" height="5.02"/><rect class="cls-3" x="261.34" y="8.31" width="12.23" height="5.02"/><rect class="cls-3" x="245.78" y="16.62" width="27.79" height="5.02"/><rect class="cls-4" x="256.9" y="24.92" width="16.67" height="5.02"/><rect class="cls-3" x="228.55" y="24.92" width="22.63" height="5.02"/><rect class="cls-3" x="216.88" y="33.23" width="56.69" height="5.02"/><rect class="cls-3" x="240.23" y="41.54" width="33.34" height="5.02"/><rect class="cls-3" x="261.34" y="49.85" width="12.23" height="5.02"/><rect class="cls-3" x="220.72" y="16.62" width="18.93" height="5.02"/><rect class="cls-3" x="229.67" y="91.39" width="12.23" height="5.02"/><rect class="cls-3" x="210.77" y="91.39" width="12.23" height="5.02"/><rect class="cls-3" x="234.67" y="58.16" width="38.9" height="5.02"/><rect class="cls-3" x="220.72" y="66.47" width="30.62" height="5.02"/><rect class="cls-3" x="256.9" y="66.47" width="16.67" height="5.02"/><rect class="cls-3" x="226.33" y="49.85" width="27.79" height="5.02"/><rect class="cls-3" x="245.78" y="74.77" width="27.79" height="5.02"/><rect class="cls-3" x="261.34" y="83.08" width="12.23" height="5.02"/><rect class="cls-4" x="228.55" y="74.77" width="12.23" height="5.02"/><rect class="cls-4" x="245.78" y="91.39" width="27.79" height="5.02"/><rect class="cls-3" x="223.55" y="83.08" width="32.7" height="5.02"/><rect class="cls-4" x="216.88" y="99.7" width="56.69" height="5.02"/><rect class="cls-3" x="258.01" y="108.01" width="15.56" height="5.02"/><rect class="cls-3" x="221.89" y="108.01" width="29.3" height="5.02"/><rect class="cls-3" x="206.06" y="116.32" width="31.58" height="5.02"/><rect class="cls-3" x="243.41" y="116.32" width="30.16" height="5.02"/><rect class="cls-3" x="231.33" y="124.62" width="42.24" height="5.02"/><rect class="cls-3" x="120.31" y="124.62" width="29.24" height="5.02"/><rect class="cls-3" x="120.31" y="116.32" width="12.23" height="5.02"/><rect class="cls-3" x="120.31" y="108.01" width="27.79" height="5.02"/><rect class="cls-3" x="120.31" y="99.7" width="16.67" height="5.02"/><rect class="cls-3" x="120.31" y="91.39" width="33.14" height="5.02"/><rect class="cls-3" x="120.31" y="83.08" width="42.24" height="5.02"/><rect class="cls-4" x="120.31" y="74.77" width="12.23" height="5.02"/><rect class="cls-3" x="120.31" y="66.47" width="22.74" height="5.02"/><rect class="cls-3" x="120.31" y="58.16" width="27.79" height="5.02"/><rect class="cls-3" x="120.31" y="49.85" width="27.79" height="5.02"/><rect class="cls-3" x="120.31" y="41.54" width="12.23" height="5.02"/><rect class="cls-3" x="120.31" y="33.23" width="27.79" height="5.02"/><rect class="cls-3" x="120.31" y="24.92" width="33.14" height="5.02"/><rect class="cls-3" x="120.31" y="16.62" width="15.56" height="5.02"/><rect class="cls-3" x="120.31" y="8.31" width="30.16" height="5.02"/><rect class="cls-3" x="120.31" width="24.69" height="5.02"/></g><path class="cls-6" d="M251.77,200.82h-182a2.12,2.12,0,0,1-2.12-2l-5.21-116a2.07,2.07,0,0,1,2-2.21l192-.2a2.09,2.09,0,0,1,2.06,2.21l-4.64,116.17A2.11,2.11,0,0,1,251.77,200.82Z"/><path class="cls-7" d="M251.77,202.57h-182a2.12,2.12,0,0,1-2.12-2l-5.21-116a2.06,2.06,0,0,1,2-2.21l192-.21a2.09,2.09,0,0,1,2.06,2.21l-4.64,116.17A2.11,2.11,0,0,1,251.77,202.57Z"/><path class="cls-8" d="M252.68,91.86l-3.82,102a3.8,3.8,0,0,1-3.79,3.59H76.41a3.8,3.8,0,0,1-3.79-3.58L68.28,92.05a3.7,3.7,0,0,1,3.66-3.94l177-.18A3.72,3.72,0,0,1,252.68,91.86Z"/><g class="cls-9"><rect class="cls-10" x="94.86" y="130.1" width="29.41" height="60.01"/></g><rect class="cls-11" x="94.86" y="186.07" width="29.41" height="4.03"/><rect class="cls-11" x="99.78" y="173.18" width="5.37" height="2.39"/><rect class="cls-11" x="99.78" y="169.23" width="1.55" height="2.39"/><rect class="cls-11" x="99.78" y="165.27" width="2.89" height="2.39"/><rect class="cls-11" x="99.78" y="161.32" width="3.53" height="2.39"/><rect class="cls-11" x="99.78" y="157.37" width="3.53" height="2.39"/><rect class="cls-11" x="99.78" y="153.41" width="1.55" height="2.39"/><rect class="cls-11" x="99.78" y="149.46" width="3.53" height="2.39"/><rect class="cls-11" x="99.78" y="145.5" width="4.21" height="2.39"/><rect class="cls-11" x="99.78" y="141.55" width="1.98" height="2.39"/><rect class="cls-11" x="99.78" y="137.59" width="3.83" height="2.39"/><rect class="cls-11" x="114" y="153.41" width="1.55" height="2.39"/><rect class="cls-11" x="111.72" y="137.59" width="3.83" height="2.39"/><rect class="cls-11" x="99.78" y="133.64" width="3.14" height="2.39"/><path class="cls-12" d="M69.11,207.38A2.63,2.63,0,0,1,66.49,205L59.59,88.87a2.66,2.66,0,0,1,.69-2,2.49,2.49,0,0,1,1.81-.8l192.3-3a2.63,2.63,0,0,1,1.85.75,2.69,2.69,0,0,1,.76,2l-3,116.43a2.63,2.63,0,0,1-2.58,2.51L69.15,207.38ZM254.44,84.11h0l-192.3,3a1.53,1.53,0,0,0-1.1.48,1.64,1.64,0,0,0-.42,1.23l6.9,116.08a1.62,1.62,0,0,0,1.62,1.49h0l182.31-2.63a1.61,1.61,0,0,0,1.6-1.54l3-116.43a1.66,1.66,0,0,0-.47-1.21A1.5,1.5,0,0,0,254.44,84.11Z"/><rect class="cls-3" x="75.59" y="46.19" width="27.14" height="3.86"/><rect class="cls-3" x="86.44" y="52.58" width="27.14" height="3.86"/><rect class="cls-4" x="75.59" y="52.58" width="6.63" height="3.86"/><rect class="cls-3" x="75.59" y="58.97" width="15.08" height="3.86"/><rect class="cls-3" x="75.59" y="65.35" width="9.05" height="3.86"/><rect class="cls-4" x="87.73" y="65.35" width="10.47" height="3.86"/><rect class="cls-3" x="75.59" y="71.74" width="30.76" height="3.86"/><rect class="cls-3" x="75.59" y="78.12" width="22.87" height="3.86"/><rect class="cls-3" x="75.59" y="84.51" width="6.63" height="3.86"/><rect class="cls-3" x="101.83" y="65.35" width="6.64" height="3.86"/><rect class="cls-3" x="92.78" y="116.44" width="6.64" height="3.86"/><rect class="cls-3" x="103.03" y="116.44" width="6.63" height="3.86"/><rect class="cls-3" x="75.59" y="90.9" width="21.11" height="3.86"/><rect class="cls-3" x="106.65" y="97.28" width="8.14" height="3.86"/><rect class="cls-3" x="75.59" y="97.28" width="28.05" height="3.86"/><rect class="cls-3" x="86.14" y="84.51" width="15.08" height="3.86"/><rect class="cls-3" x="75.59" y="103.67" width="15.08" height="3.86"/><rect class="cls-3" x="75.59" y="110.05" width="6.63" height="3.86"/><rect class="cls-3" x="93.38" y="103.67" width="6.63" height="3.86"/><rect class="cls-3" x="75.59" y="116.44" width="15.08" height="3.86"/><rect class="cls-3" x="87.65" y="110.05" width="15.08" height="3.86"/><rect class="cls-3" x="75.59" y="122.82" width="30.76" height="3.86"/><rect class="cls-4" x="75.59" y="129.21" width="8.44" height="3.86"/><rect class="cls-3" x="87.73" y="129.21" width="26.16" height="3.86"/><rect class="cls-3" x="95.08" y="135.6" width="6.74" height="3.86"/><rect class="cls-3" x="75.59" y="135.6" width="16.37" height="3.86"/><rect class="cls-3" x="75.59" y="141.98" width="22.92" height="3.86"/><rect class="cls-3" x="142.89" y="141.98" width="15.87" height="3.86"/><rect class="cls-3" x="152.12" y="135.6" width="6.63" height="3.86"/><rect class="cls-3" x="143.68" y="129.21" width="15.08" height="3.86"/><rect class="cls-3" x="149.71" y="122.82" width="9.05" height="3.86"/><rect class="cls-3" x="140.77" y="116.44" width="17.98" height="3.86"/><rect class="cls-3" x="135.84" y="110.05" width="22.92" height="3.86"/><rect class="cls-3" x="152.12" y="103.67" width="6.63" height="3.86"/><rect class="cls-3" x="146.42" y="97.28" width="12.34" height="3.86"/><rect class="cls-3" x="143.68" y="90.9" width="15.08" height="3.86"/><rect class="cls-3" x="143.68" y="84.51" width="15.08" height="3.86"/><rect class="cls-4" x="152.12" y="78.12" width="6.63" height="3.86"/><rect class="cls-3" x="143.68" y="71.74" width="15.08" height="3.86"/><rect class="cls-3" x="140.77" y="65.35" width="17.98" height="3.86"/><rect class="cls-3" x="150.31" y="58.97" width="8.44" height="3.86"/><rect class="cls-3" x="142.39" y="52.58" width="16.37" height="3.86"/><rect class="cls-3" x="145.36" y="46.19" width="13.4" height="3.86"/><g class="cls-13"><rect class="cls-7" x="149.05" y="100.51" width="94.45" height="59.17" rx="1.03" ry="1.03"/><rect class="cls-14" x="149.05" y="104.19" width="94.45" height="55.49"/><rect class="cls-12" x="154.75" y="109.07" width="55.89" height="2.38"/><rect class="cls-12" x="154.75" y="113.01" width="55.89" height="2.38"/><rect class="cls-12" x="154.75" y="116.94" width="24.59" height="2.38"/><rect class="cls-12" x="154.75" y="120.87" width="55.89" height="2.38"/><rect class="cls-12" x="154.75" y="124.81" width="66.66" height="2.38"/><rect class="cls-12" x="154.75" y="128.74" width="31.3" height="2.38"/><rect class="cls-12" x="154.75" y="132.68" width="60.67" height="2.38"/><rect class="cls-12" x="154.75" y="136.61" width="49.67" height="2.38"/></g><rect class="cls-12" x="133.11" y="100.51" width="1" height="89.59"/><g class="cls-15"><rect class="cls-16" x="171.75" y="65.86" width="17.59" height="2.84" transform="translate(48.05 207.16) rotate(-66.99)"/><polygon class="cls-17" points="173.43 61.76 167.92 67.27 173.43 72.78 175.44 70.77 171.94 67.27 175.44 63.77 173.43 61.76"/><polygon class="cls-18" points="187.66 61.76 185.65 63.77 189.15 67.27 185.65 70.77 187.66 72.78 193.17 67.27 187.66 61.76"/></g><path class="cls-19" d="M260.89,258.43a2.11,2.11,0,0,1-1.77,2.46l-201.73.75a1.8,1.8,0,0,1-1.57-2.44"/><path class="cls-7" d="M259.12,259.81l-201.73.74c-1.27,0-1.89-.72-1.4-1.61L77.49,220A3.07,3.07,0,0,1,80,218.91H246.94c1,0,2,.49,2.17,1.1l11.73,38.2C261.11,259.09,260.34,259.8,259.12,259.81Z"/><polygon class="cls-20" points="61.85 256.77 193.43 256.33 192.7 225.88 78.27 225.95 61.85 256.77"/><polygon class="cls-21" points="224.12 256.23 255.68 256.12 246.97 225.85 219.45 225.87 224.12 256.23"/><polygon class="cls-22" points="196.28 256.32 221.28 256.24 219.86 246.25 195.93 246.31 196.28 256.32"/><polygon class="cls-23" points="195.56 236.11 218.42 236.07 216.97 225.87 195.19 225.88 195.56 236.11"/><polygon class="cls-24" points="79.3 224.03 192.66 223.97 192.58 220.8 81.01 220.82 79.3 224.03"/><polygon class="cls-25" points="195.12 223.97 216.7 223.96 216.25 220.79 195.01 220.8 195.12 223.97"/><path class="cls-12" d="M255.83,259.06h0l-198.64-.81a2,2,0,0,1-1.86-.85,1.48,1.48,0,0,1,.06-1.49L76.9,217.76a3.43,3.43,0,0,1,2.92-1.34L244.2,217.7a2.68,2.68,0,0,1,2.61,1.46l11.2,37.7a1.54,1.54,0,0,1-.23,1.38A2.38,2.38,0,0,1,255.83,259.06Zm0-1a1.57,1.57,0,0,0,1.16-.42.53.53,0,0,0,.07-.49l-11.2-37.71a1.86,1.86,0,0,0-1.66-.74L79.81,217.42a2.42,2.42,0,0,0-2,.83L56.25,256.4a.53.53,0,0,0-.06.5c.09.17.41.35,1,.35Z"/><path class="cls-26" d="M117.65,244.76c-1.32-5-3.93-12.22-.73-14.81s5.82-2.6,7.2-1.59,1.84,4.86,2.32,8,1.19,7.1,0,8.63C125.6,246.15,118.77,249,117.65,244.76Z"/><path class="cls-26" d="M109.06,239.27c-1.33-5-3.94-12.22-.73-14.81s5.81-2.6,7.19-1.59,1.85,4.86,2.33,8,1.59,6.8.91,8.07S110.17,243.53,109.06,239.27Z"/><path class="cls-27" d="M102.21,262.79C90.61,271,85.4,277.45,82.44,285.1H48c6.53-9.68,12.92-18.36,15-22,16-28.22,17.76-35.51,45.93-31.57C133.25,234.89,111.64,256.08,102.21,262.79Z"/><path class="cls-27" d="M108,242.6c3.18-6.45,7.24-16.31,11.42-16.16s5.9,2.45,6,4.74-1.93,7.62-4.14,11.34-5.19,7.67-6.67,8.4S105.27,248.07,108,242.6Z"/><path class="cls-27" d="M99.17,237.48c3.14-6.48,7.15-16.36,11.33-16.24s6,1.59,6.09,3.88-2.73,7.57-4.92,11.31-4.37,8.58-5.84,9.32S96.5,243,99.17,237.48Z"/><path class="cls-27" d="M88.68,240.2c2.73-6.69,6.09-16.82,10.27-17s6.08,1.16,6.34,3.43-2.24,7.74-4.18,11.62-3.81,8.87-5.23,9.71S86.38,245.85,88.68,240.2Z"/><path class="cls-27" d="M77.66,241.64c3.54-6.29,8.16-15.92,12.33-15.58s5.89,1.91,5.85,4.2-3.19,7.4-5.61,11-4.9,8.31-6.41,9S74.66,247,77.66,241.64Z"/><path class="cls-27" d="M109.41,243.67c-3.46,7-2.13,7.94,1.74,7.19,6.24-1.21,6.4-2.62,12.3-2.67,5.21-.05,9-.36,9.19,5.27.13,4.74-10.44,2.54-18.68,8.47S88,266,88,266Z"/><path class="cls-26" d="M192.44,237.64c1.83-4.2,5.12-10.25,2.39-12.06s-5.2-1.59-6.62-.64-2.3,4.1-3.11,6.68-2.09,5.9-1.31,7.13C185.32,241.17,190.89,241.19,192.44,237.64Z"/><path class="cls-26" d="M202.92,241.49c1.91-4.85,5.35-11.68,2.48-14.62s-5.47-3.28-7-2.43-2.41,4.6-3.25,7.66-2.39,6.57-1.87,7.92S201.31,245.59,202.92,241.49Z"/><path class="cls-26" d="M212.94,237c1.91-4.85,5.35-11.68,2.47-14.62s-5.47-3.28-7-2.43-2.4,4.6-3.25,7.66-2.39,6.57-1.86,7.92S211.33,241.11,212.94,237Z"/><path class="cls-27" d="M254.33,285.1H222.61c-2.19-7.41-6.69-14.14-16.65-23.17-8.57-7.78-27.52-31.37-3-31.87,28.44-.59,29.33,6.86,41.88,36.77C246.19,270.05,250,277,254.33,285.1Z"/><path class="cls-27" d="M202.63,241.21c-2.39-6.79-5.27-17.06-9.43-17.41s-6.15,1.74-6.51,4,1,7.79,2.77,11.75,4.25,8.22,5.62,9.12S204.66,247,202.63,241.21Z"/><path class="cls-27" d="M213,240.87c-2.37-6.8-5.18-17.08-9.34-17.46s-6.13.88-6.51,3.14,1.82,7.84,3.55,11.8,3.33,9,4.7,10S215,246.63,213,240.87Z"/><path class="cls-27" d="M221.86,237.29c-1.92-7-4.06-17.42-8.19-18.1s-6.17.43-6.69,2.66,1.3,8,2.77,12,2.74,9.25,4.05,10.26S223.48,243.18,221.86,237.29Z"/><path class="cls-27" d="M233,240.89c-2.37-6.82-5.19-17.11-9.36-17.52s-6.13.83-6.5,3.09,1.82,7.85,3.56,11.83,3.34,9.05,4.71,10S235.05,246.66,233,240.89Z"/><path class="cls-27" d="M196.75,241.56c3.52,6.93,2.2,7.92-1.67,7.21-6.26-1.16-6.43-2.57-12.33-2.57-5.2,0-9-.29-9.14,5.35-.1,4.73,10.45,2.45,18.75,8.31s26,3.83,26,3.83Z"/><path class="cls-28" d="M41.94,285.1s5.46-7.28,10.88-14.62,10-17.94,26.48-15.52c16.85,2.48,23.44,10.48,21.39,14.9C96,280,95.11,285.1,95.11,285.1Z"/><path class="cls-29" d="M265.32,285.1a114.49,114.49,0,0,0-9.07-14.62c-5.42-7.34-11.4-17.69-28.31-15.87s-20.12,11.46-18.07,15.87c4.72,10.14,4.09,14.62,4.09,14.62Z"/><g class="cls-30"><path class="cls-31" d="M29.86,307.78c14.25-22,38-56.49,54.25-56.49s26.7,3.37,24.48,15.18,2.23,3.82,8.63,7.54,4.69,4.52-1.71,11.52-5,21.75-9.94,27S29.86,307.78,29.86,307.78Z"/><polyline class="cls-32" points="76.31 186.07 0 285.1 277.27 285.1 235.03 186.07"/></g><g class="cls-33"><path class="cls-31" d="M282.25,309.29c-14.25-22-38-56.49-54.25-56.5s-26.7,3.38-24.48,15.19-2.23,3.82-8.62,7.54S190.2,280,196.6,287s5,21.75,9.94,27S282.25,309.29,282.25,309.29Z"/><polyline class="cls-32" points="76.31 186.07 0 285.1 277.27 285.1 235.03 186.07"/></g><rect class="cls-11" x="127.52" y="230.44" width="3.53" height="2.02"/><rect class="cls-11" x="127.52" y="227.1" width="1.55" height="2.02"/><rect class="cls-11" x="131.73" y="230.44" width="1.55" height="2.02"/><rect class="cls-11" x="127.52" y="223.75" width="3.53" height="2.02"/><rect class="cls-11" x="127.52" y="220.41" width="4.21" height="2.02"/><rect class="cls-11" x="180.44" y="230.68" width="2.9" height="2.02"/><rect class="cls-11" x="179.81" y="227.33" width="3.53" height="2.02"/><rect class="cls-11" x="176.58" y="227.33" width="2.33" height="2.02"/><rect class="cls-11" x="177.92" y="223.99" width="5.42" height="2.02"/><polygon class="cls-34" points="234.15 208.82 232.57 208.82 232.57 211.11 230.28 211.11 230.28 212.69 232.57 212.69 232.57 214.98 234.15 214.98 234.15 212.69 236.44 212.69 236.44 211.11 234.15 211.11 234.15 208.82"/></g></g></g></svg>