<?xml version="1.0" encoding="utf-8"?>
<!-- Generator: Adobe Illustrator 22.1.0, SVG Export Plug-In . SVG Version: 6.00 Build 0)  -->
<svg version="1.1" id="Layer_1" xmlns="http://www.w3.org/2000/svg" xmlns:xlink="http://www.w3.org/1999/xlink" x="0px" y="0px"
	 viewBox="0 0 417.3 409.1" style="enable-background:new 0 0 417.3 409.1;" xml:space="preserve">
<style type="text/css">
	.st0{fill:#065499;}
	.st1{fill:#003366;}
	.st2{clip-path:url(#SVGID_2_);}
	.st3{fill:#043C7F;}
	.st4{fill:#0D5399;}
	.st5{clip-path:url(#SVGID_4_);}
	.st6{fill:#023340;}
	.st7{fill:#17424F;}
	.st8{fill:#F7BEAA;}
	.st9{fill:#FFFFFF;}
	.st10{fill:#FFF0E9;}
	.st11{fill:#FFC0AD;}
	.st12{fill:#FFAA9A;}
	.st13{fill:#FB9590;}
	.st14{fill:#A51A5D;}
	.st15{fill:#F3F4D5;}
	.st16{fill:#D74F77;}
	.st17{fill:#02536A;}
	.st18{fill:#FFF6E7;}
	.st19{fill:#D67F1E;}
	.st20{fill:#AE5616;}
	.st21{fill:#CC751E;}
	.st22{fill:#EE972D;}
	.st23{fill:#F4AE35;}
	.st24{fill:#FAD175;}
	.st25{fill:#FFE6AF;}
	.st26{fill:#994914;}
	.st27{font-family:'UPBOLTERS';}
	.st28{font-size:42px;}
</style>
<title>Asset 2</title>
<g id="Layer_2_1_">
	<g id="OBJECTS">
		<path class="st0" d="M331.1,134.1c-0.7,0-1.4-0.5-1.6-1.1c-8.7-25.7-24.7-48.3-46.1-65c-0.7-0.6-0.9-1.6-0.3-2.3
			c0.6-0.7,1.6-0.9,2.3-0.3c21.9,17.1,38.3,40.3,47.2,66.6c0.3,0.9-0.1,1.8-1,2.1C331.5,134.1,331.3,134.1,331.1,134.1L331.1,134.1z
			"/>
		<path class="st0" d="M56.9,179.2c-0.9,0-1.7-0.7-1.7-1.6c0,0,0,0,0,0c-0.1-22.6,5.3-44.9,15.7-65.1c10-19.4,24.3-36.3,41.9-49.4
			c0.7-0.6,1.8-0.5,2.4,0.2c0.6,0.7,0.5,1.8-0.2,2.4c0,0-0.1,0.1-0.1,0.1c-35.3,26.3-56.1,67.7-56.2,111.8
			C58.5,178.4,57.8,179.2,56.9,179.2z"/>
		<path class="st1" d="M328,177.5c0,2.3,0,4.6-0.2,6.8c0,0.2,0,0.4,0,0.6c-1.7,30-13.7,58.6-34.1,80.7c-11.8,12.9-26,23.3-41.9,30.5
			c-5.5,2.5-11.2,4.7-17.1,6.4c-12.1,3.6-24.6,5.4-37.2,5.4c-22.9,0-45.4-6-65.2-17.5c-2.1-1.2-4.2-2.5-6.3-3.8
			c-16.5-10.9-30.4-25.4-40.6-42.4c-10.8-18.1-17-38.5-18.2-59.5c0-0.2,0-0.4,0-0.6c-0.1-2.2-0.2-4.4-0.2-6.6c0-2.5,0.1-4.9,0.2-7.3
			l0,0c4-71.9,65.6-127,137.5-122.9c66.3,3.7,119.2,56.6,122.9,122.9l0,0C327.9,172.6,328,175.1,328,177.5z"/>
		<g>
			<defs>
				<circle id="SVGID_1_" cx="197.5" cy="177.5" r="130.4"/>
			</defs>
			<clipPath id="SVGID_2_">
				<use xlink:href="#SVGID_1_"  style="overflow:visible;"/>
			</clipPath>
			<g class="st2">
				<circle class="st3" cx="181.2" cy="128.4" r="128.4"/>
				<circle class="st4" cx="150.5" cy="108.9" r="99.3"/>
			</g>
		</g>
		<g>
			<defs>
				<circle id="SVGID_3_" cx="197.5" cy="177.5" r="130.4"/>
			</defs>
			<clipPath id="SVGID_4_">
				<use xlink:href="#SVGID_3_"  style="overflow:visible;"/>
			</clipPath>
			<g class="st5">
				<circle class="st4" cx="143.9" cy="169.3" r="31.8"/>
				<path class="st4" d="M197.7,168.8h10c0.3,0,0.6,0.3,0.6,0.6v2.4c0,0.3-0.3,0.6-0.6,0.6h-10c-0.3,0-0.6-0.3-0.6-0.6v-2.4
					C197.1,169.1,197.3,168.8,197.7,168.8z"/>
				<path class="st4" d="M184.8,168.8h10c0.3,0,0.6,0.3,0.6,0.6v2.4c0,0.3-0.3,0.6-0.6,0.6h-10c-0.3,0-0.6-0.3-0.6-0.6v-2.4
					C184.1,169.1,184.4,168.8,184.8,168.8z"/>
				<path class="st4" d="M210.4,175.6h-28.5c-0.7,0-1.3-0.6-1.3-1.3c0,0,0,0,0,0V167c0-0.7,0.6-1.3,1.3-1.3c0,0,0,0,0,0h28.5
					c0.7,0,1.3,0.6,1.3,1.3l0,0v7.3C211.7,175,211.1,175.6,210.4,175.6C210.4,175.6,210.4,175.6,210.4,175.6z M181.9,166.1
					c-0.5,0-0.9,0.4-0.9,0.9v7.3c0,0.5,0.4,0.9,0.9,0.9h28.5c0.5,0,0.9-0.4,0.9-0.9V167c0-0.5-0.4-0.9-0.9-0.9L181.9,166.1z"/>
			</g>
		</g>
		<path class="st0" d="M1.7,207.3c-0.9-0.1-1.6-0.9-1.5-1.8c0.1-0.8,0.7-1.5,1.5-1.5l79.9-2.7c0.9,0,1.6,0.8,1.6,1.7
			c0,0.8-0.7,1.5-1.5,1.6L1.7,207.3L1.7,207.3z"/>
		<path class="st0" d="M306.9,156.6c-0.9-0.1-1.6-0.8-1.6-1.8c0.1-0.8,0.7-1.5,1.5-1.6l77.5-2.6c0.9,0,1.6,0.8,1.6,1.7
			c0,0.8-0.7,1.5-1.5,1.6L306.9,156.6L306.9,156.6z"/>
		<path class="st0" d="M315.8,208.2c-0.9-0.1-1.6-0.8-1.6-1.8c0.1-0.8,0.7-1.5,1.5-1.6l36.9-1.2c0.9,0,1.7,0.7,1.7,1.6
			c0,0.9-0.7,1.7-1.6,1.7L315.8,208.2L315.8,208.2z"/>
		<path class="st0" d="M339.8,190.1c-0.9,0-1.7-0.7-1.7-1.6s0.7-1.7,1.6-1.7l75.8-2.5c0.9,0,1.6,0.8,1.6,1.7c0,0.8-0.7,1.5-1.5,1.6
			L339.8,190.1L339.8,190.1z"/>
		<path class="st0" d="M33.5,230.5c-0.9-0.1-1.6-0.8-1.6-1.8c0.1-0.8,0.7-1.5,1.5-1.6l77.4-2.6c0.9,0,1.6,0.8,1.6,1.7
			c0,0.8-0.7,1.5-1.5,1.6L33.5,230.5L33.5,230.5z"/>
		<path class="st6" d="M210.1,96.1c0.7,0.9,1.3,1.8,1.7,2.8c0.5,1,0.5,2.2,0.2,3.2c-0.4,1.1-1.4,1.8-2.5,1.8c-1.4-0.1-2.4-1.4-3-2.7
			c-0.8-1.7-1.4-3.4-1.7-5.2c-0.2-0.9-0.2-1.8,0-2.7c0.2-0.9,1-1.6,1.9-1.8L210.1,96.1z"/>
		<polygon class="st6" points="172.4,220.1 157.6,337.6 149.8,342.7 166.8,342.7 167.1,333.9 199.5,237.4 206.3,237.1 221.5,336.9 
			220.4,342.7 239.9,342.7 230.9,335.4 231.4,218.9 		"/>
		<polygon class="st7" points="213.9,234.6 229.7,231.9 229.7,332.1 224.9,332.1 		"/>
		<path class="st7" d="M174.7,222.3c0,0,30.8,2.7,43.8,1.1c0,0-17.8,5.8-20.8,8.5s-34.8,103.7-34.8,103.7l-3,0.3L174.7,222.3z"/>
		<path class="st8" d="M121.1,225.1l5.4-2.8c-2.5-2.2-5.1-4.3-7.7-6.4c-3.4,4-6.8,8.3-10.7,11.4c-1.3,1-7.2,1.9-6.6,5.6
			c0,0-1.3,3.3-2.3,5.3s4.5,0,5.1,2s4.2,0.4,5.3,2.4s1.2,1.8,3.1,1.5s3.5-2,3-5c0,0,3.9-0.8,3.9-4.2S113.9,228.8,121.1,225.1z"/>
		<path class="st9" d="M170.4,174.9l2.1,45.2c33.4,6.4,59-1.2,59-1.2c0-20.7-4.6-49.4-4.6-49.4s23.6-51.6,23.8-57
			s-3.9-26.6-3.9-26.6l-12.2,1.5c-0.7,3.1-5.6,31-9.4,32.6s-2.4,6.1-3.8,8.4c-1.4,2.3-7.9,13.6-7.9,13.6l-35.5,0.2
			c0,0-11.5,1.2-15.7,3.7s-8.4,15.2-8.4,15.2L141,185.6l-23.7,29.6l9.2,8.2c0,0,16.9-13.9,19.8-16.2s11.1-8.8,13.5-12.1
			S170.4,174.9,170.4,174.9z"/>
		<path class="st10" d="M230.8,205c-5-3.8-8.6-9.1-10.1-15.2c-0.9-3.5-1-7.1-2.3-10.5c-1.4-3.7-4.1-6.8-6.2-10.2s-3.4-7.6-2-11.3
			l6.2,2.4c-0.8-4.8-1.6-9.5-2.4-14.3c-0.2-1.4-0.5-2.7-0.9-4l-34,0.2l-0.1,1.1l19.1,21.3l4.8-5c-1.2,2.7,0.2,5.9,2.1,8.2
			s4.4,4.1,5.9,6.6c2.3,3.7,2.2,8.4,1.7,12.7s-1.5,8.6-0.9,13c1,6.6,5.7,12.2,12,14.4c2.4,0.8,5,1,7.5,0.7
			C231.3,211.9,231.1,208.5,230.8,205z"/>
		<polygon class="st10" points="117.4,215.2 113.6,219.7 121,226.9 126.5,223.4 		"/>
		<path class="st11" d="M230.3,48.6c1-0.2,1.8,0.9,2.2,1.9s0.8,2.1,1.7,2.5c0.5-0.9,0.6-2,0.3-3c-0.1-1.2,0.2-3,1.7-3.1
			c0.8,0,1.6,0.3,2.3,0.8l1.9,1.2c0.6,0.3,1.1,0.7,1.6,1.2c0.8,0.8,1.3,2.1,2.4,2.3c0.8,0.2,1.7-0.2,2.3,0.3
			c0.9,0.7,0.4,2.3,1.2,3.1c0.4,0.3,0.9,0.4,1.4,0.4c1.5,0,1.6,0.4,1.8,1.6c0.2,0.9,0.3,1.8,0.1,2.8c-0.6,1.7-2.5,2.6-4.3,2
			c-0.1,0-0.1-0.1-0.2-0.1c0.3,0,0.7,4.2,0.6,4.7c-0.2,1.3-1.3,2.4-2.6,2.6c-2.5,0.7-3.8,3.3-2.4,10.6c-2.2,0.5-4.4,1-6.5,1.6
			c0.1-2,0.1-4-0.1-6.1c-0.3-3.8-0.2-7.7-1-11.5c-0.8-4-2.3-7.9-4.6-11.3c-0.6-0.7-0.9-1.5-1.1-2.4
			C228.8,49.8,229.4,48.9,230.3,48.6z"/>
		<path class="st12" d="M242,78.6c0.1,0.6,0.2,1.2,0.3,1.8c-2.2,0.5-4.4,1-6.5,1.6c0.1-1.8,0.1-3.5,0-4.9
			C237.8,77.7,239.9,78.2,242,78.6z"/>
		<path class="st13" d="M234.6,51.7c5.7,2.5,10.8,6.2,15,10.8c-0.9,0.5-2,0.5-2.9,0.1c0.3,0,0.7,4.2,0.6,4.7c-0.2,1.1-0.9,2-1.9,2.3
			c-0.2,0-0.3-0.1-0.4-0.1c-1-0.4-1.8-1.1-2.3-2l-2.4-3c-0.8-1-1.6-2.1-2.3-3.2c-0.7-1.2-1.2-2.4-1.8-3.6l-2-4.6
			C234.4,52.7,234.6,52.2,234.6,51.7z"/>
		<path class="st8" d="M213.7,145.4l-2.8-0.8l-2.4-8.9L176,124l8.6,25.3c0,0-1.5-3.2,2.8,0.1c0,0,6,8.6,19.4,3.3
			C213.6,149.9,213.7,145.4,213.7,145.4z"/>
		<path class="st13" d="M179.7,127.1c5.1,6.4,11.9,11.3,19.7,13.9c3.4,1,7.1,1.2,10.6,0.4l-1.5-5.7l-28.1-10.1L179.7,127.1z"/>
		<path class="st11" d="M182.1,130.1c3.7,2.9,12.1,5.7,16.5,6.9c4.6,1.2,8.8,1.8,12.3-2.4c2.9-3.6,3.6-8.5,3.5-13.1
			c-0.1-6.5-1.4-13-3.9-19c-0.8-1.9-3.7-11.5-6.9-11l-33,5l-4.4,5l11.1,25.7L182.1,130.1z"/>
		<path class="st13" d="M179.8,107.1c-0.7,0.7-1.4,1.5-1.9,2.4c-1.2,2-1,4.6-0.7,6.9c-2.9-3.6-4.4-8.1-4.3-12.7
			c0.1-2.8,0.8-5.4,2.1-7.9l28.6-4.3c1.5-0.2,3,1.8,4.2,4.2c-6.9,6.6-17.2,8.1-25.7,3.8C182.3,102.2,181.5,104.9,179.8,107.1z"/>
		<path class="st13" d="M199.5,124.5c0.5,0.1,1.1,0.1,1.7,0c0.6-0.1,1-0.6,1.1-1.1c0.2-0.8-0.6-1.6-1.4-1.9s-1.7-0.3-2.4-0.7
			c-0.7-0.5-1.4-1-2.1-1.6c-0.7-0.6-1.7-0.6-2.4-0.1c-0.5,0.5-0.6,1.2-0.3,1.8c0.3,0.6,0.7,1.1,1.3,1.5
			C196.2,123.5,197.8,124.2,199.5,124.5z"/>
		<path class="st13" d="M202.6,126.1c-3,2-6.9,1.5-9.4-1c-0.4-0.4-0.7-0.8-0.8-1.3c-0.1-0.5,0-1.1,0.4-1.4c0.6-0.3,1.2-0.4,1.8-0.1
			C197.5,123,200.2,124.3,202.6,126.1z"/>
		<path class="st14" d="M196.5,126.3c1.4,0.5,3,0.6,4.5,0.4c0.7-0.1,1.4-0.3,2-0.7c0.6-0.4,1-1.1,0.9-1.8c-0.2-0.8-0.8-1.5-1.5-1.7
			c-0.8-0.2-1.6-0.4-2.4-0.4c-1.6-0.3-3.1-0.9-4.3-1.9c-0.8-0.6-1.6-1.4-2.6-1.3c-1,0.1-1.7,0.9-1.8,1.9c-0.1,1,0.2,1.9,0.8,2.7
			C193.3,125.4,194.2,125.6,196.5,126.3z"/>
		<path class="st15" d="M195.6,120.2c1.3,1,2.8,1.6,4.3,1.9c0.8,0.1,1.6,0.2,2.4,0.4c0.3,0.1,0.6,0.3,0.9,0.5
			c-3.6,1.7-8,0.2-9.7-3.4c-0.1-0.2-0.2-0.5-0.3-0.7C194.1,119.1,195,119.5,195.6,120.2z"/>
		<path class="st16" d="M198.8,126.7c-0.8-0.1-1.5-0.2-2.3-0.4c-2.3-0.7-3.2-0.9-4.5-2.8c-0.6-0.8-0.9-1.7-0.8-2.7
			c0-0.2,0.1-0.3,0.1-0.5l0.5,0.3C194.5,122.2,196.9,124.2,198.8,126.7z"/>
		<path class="st17" d="M186.9,109.3c0.3,1.8,1.5,3.1,2.6,2.9s1.8-1.8,1.5-3.6s-1.5-3.1-2.6-2.9S186.6,107.5,186.9,109.3z"/>
		<path class="st6" d="M187.6,109.2c0.2,1.2,1,2,1.7,1.9s1.2-1.2,1-2.3s-0.9-2-1.7-1.9S187.4,108,187.6,109.2z"/>
		<path class="st18" d="M187.2,108.3c0,0.2,0.3,0.4,0.5,0.3c0.2,0,0.3-0.2,0.3-0.4c0-0.2-0.2-0.4-0.4-0.4c-0.2,0-0.4,0.2-0.4,0.4
			C187.2,108.2,187.2,108.3,187.2,108.3z"/>
		<path class="st17" d="M200.3,107.4c0.3,1.8,1.5,3.1,2.6,2.9s1.8-1.8,1.5-3.6s-1.5-3.1-2.6-2.9S200,105.6,200.3,107.4z"/>
		<path class="st6" d="M201.1,107.3c0.2,1.2,1,2,1.7,1.9s1.2-1.2,1-2.3s-0.9-2-1.7-1.9S200.9,106.1,201.1,107.3z"/>
		<path class="st18" d="M200.6,106.4c0,0.2,0.2,0.4,0.4,0.4c0.2,0,0.4-0.1,0.5-0.4s-0.1-0.4-0.4-0.5c-0.1,0-0.1,0-0.2,0
			C200.8,106,200.6,106.2,200.6,106.4z"/>
		<path class="st13" d="M202.5,119.9C202.5,119.9,202.5,119.9,202.5,119.9L202.5,119.9c0.1,0.1,0.2,0.1,0.3,0.1l0.3-0.2
			c0.6-0.4,1.1-0.9,1.6-1.5c0.3-0.4,0.5-0.8,0.6-1.2c0-0.5-0.2-1-0.6-1.3l-2.7-3.1c-1.7-1.9-3.2-4-4.4-6.3c-0.9-1.8-1-3-0.9-3
			s0.6,1.1,1.5,2.7c1.3,2.1,2.8,4.1,4.5,5.9c0.9,1.1,1.9,2.2,2.7,3.2c0.2,0.3,0.4,0.6,0.6,0.9c0.1,0.4,0.2,0.7,0.1,1.1
			c-0.1,0.6-0.4,1.1-0.9,1.5c-0.5,0.6-1.2,1.1-1.9,1.4c-0.1,0.1-0.2,0.1-0.4,0.1c-0.1,0-0.2,0-0.3-0.1c-0.1,0-0.1-0.2-0.1-0.2
			S202.5,119.9,202.5,119.9z"/>
		<path class="st6" d="M170.3,91.7c-2.6-0.9-5.6,0.5-7,2.9c-1.3,2.4-1.5,5.3-0.5,7.9c1,2.6,2.4,4.9,4.2,7c3.3,3.9,7,7.5,11,10.8
			l2.9-1.1c-2.3-3-3.8-6.4-4.3-10.1c3.5-2.7,5.2-7.2,4.2-11.5c13.1,5.7,28.4-0.2,34.1-13.3c0.3-0.6,0.5-1.3,0.8-1.9
			c-6.9-5.9-16.1-8.3-25.1-6.5C181.7,77.7,174.2,83.6,170.3,91.7z"/>
		<path class="st6" d="M204.3,155.5c-1.4,4.8,0.2,10,2.4,14.5s5,8.7,6.4,13.6c1.1,3.9,1.2,8.1,1.5,12.1s0.8,8.2,2.8,11.8
			s5.6,6.5,9.6,6.6c3.8,0.1,7.1-1.9,10.6-3.1c-0.7-3.3-1.2-6.6-1.9-9.9c-4.1-0.1-7.7-3.3-10-6.7s-3.4-7.4-4.5-11.3s-2.1-8-4.3-11.4
			c-1.8-2.9-4.4-5.2-6.2-8.1s-2.9-6.6-1.3-9.6C207.7,154.2,206,155.2,204.3,155.5z"/>
		<polygon class="st9" points="206.8,152.7 209.4,139.2 213.4,141.9 215.4,158.7 206.4,155.1 198.5,162.2 177.9,142.2 180.5,137.4 
					"/>
		<polygon class="st9" points="246.7,85.9 245.7,78 234.3,80.1 234.5,87.4 		"/>
		<path class="st19" d="M283,57c0.4-0.4,10.3-8.8,11.2-18.8c0.9-9.8-6.5-28.9-6.8-29.7l-0.3-0.8l-11-1.7L275,16.1l-5.2,3.2l1.6,2.6
			l6.5-4l0.9-8.5l6.1,0.9c1.4,3.8,7,19.5,6.3,27.5c-0.8,8.8-10,16.7-10.1,16.7L283,57z"/>
		<path class="st20" d="M301.6,72.9l1.9,1.4c0,0-2.5,6.1-10.1,11.4S275.9,89,275.9,89l-0.2-2.3L301.6,72.9z"/>
		<path class="st19" d="M288.4,73.1c4.4-0.4,8.8-0.5,13.2-0.2c0,0-6,16.1-25.9,13.8c1.8-4.2,4.6-8,8.1-11L288.4,73.1z"/>
		<path class="st21" d="M286.6,86c-1.2-3.8-1.4-7.8-0.5-11.6l2.2-1.3c4.4-0.4,8.8-0.5,13.2-0.2C298.8,79.3,293.3,84.1,286.6,86z"/>
		<path class="st22" d="M278.1,85.2c1.5-3.3,3.5-6.3,6-8.8c0,2.9,0.1,5.8,0.2,8.7C282.3,85.9,280.1,86,278.1,85.2z"/>
		<path class="st19" d="M288.4,84.3c0.2-1.7,0.6-3.3,1.1-4.9c0.5-1.6,1.5-3,2.8-4c2.3-1.7,5.4-1.7,8.3-1.6
			C297.4,78.1,293.2,81.7,288.4,84.3z"/>
		<path class="st19" d="M288.1,67.6l0.3,5.4c-0.5,1.9-2.4,3.1-4.3,2.6c-0.1,0-0.2,0-0.2-0.1l-4.6-2.7L288.1,67.6z"/>
		<path class="st19" d="M280.1,61.9c0,0,1.8,3.9,8,5.7c0,0-0.5,6.7-8.9,5.4c0,0,0.8-5.8-2.2-9.8L280.1,61.9z"/>
		<path class="st21" d="M279.5,62.2l0.6-0.3c0,0,1.8,3.9,8,5.7c-0.4,3.2-3,5.5-6.2,5.5C282.2,69.4,281.3,65.5,279.5,62.2z"/>
		<path class="st22" d="M279.4,64.9c0,2.4,0.4,4.7,1.2,6.9C281.3,69.4,280.9,66.9,279.4,64.9z"/>
		<path class="st19" d="M285.8,70.6c0.8-0.6,1.3-1.5,1.3-2.6c-2.2-0.9-4.3-2.2-6.1-3.8C282.4,66.5,284,68.7,285.8,70.6z"/>
		<path class="st21" d="M281.2,57.5c0,0,2.5,3.3-2.1,6.1c-5.4,3.2-6.5-0.4-6.5-0.4L281.2,57.5z"/>
		<path class="st22" d="M271.8,63.8c-0.5,0.2-12.4,5.4-21.8,1.7c-9.1-3.5-23.1-18.6-23.7-19.2l-0.6-0.7l3.3-10.6l9.6,3.5l5.2-3.3
			l1.6,2.6l-6.5,4.1l-8-2.9l-1.8,5.8c2.8,2.9,14.4,14.9,21.9,17.8c8.2,3.2,19.4-1.6,19.5-1.7L271.8,63.8z"/>
		<path class="st23" d="M287,46.7c0,0.2,0,0.3,0,0.5s0,0.3,0,0.5s0,0.2,0,0.3l-0.1,0.6c0,0.3-0.1,0.7-0.2,1s-0.1,0.7-0.3,1.1
			l-0.1,0.5c-0.2,0.7-0.5,1.5-0.9,2.2c-0.1,0.2-0.2,0.3-0.3,0.5s-0.2,0.3-0.3,0.5c-0.4,0.7-0.9,1.4-1.4,2.1l0,0
			c-0.3,0.3-0.5,0.7-0.8,1l-0.5,0.5l-0.5,0.5l-0.7,0.6c-0.2,0.2-0.5,0.4-0.7,0.6c-0.5,0.4-1,0.8-1.6,1.2s-1.1,0.7-1.6,1l-0.6,0.4
			c-0.9,0.5-1.9,1-2.9,1.4l-0.6,0.2h-0.1l0,0l-0.7,0.2l-0.5,0.1l-0.4,0.1l-0.5,0.1l-0.7,0.1l-0.7,0.1h-0.1l-0.6,0.1h-0.5
			c-0.5,0-0.9,0-1.4,0s-0.9-0.1-1.3-0.1s-0.7-0.1-1.1-0.2h-0.2c-0.4-0.1-0.7-0.2-1-0.3h-0.2c-0.3-0.1-0.6-0.2-1-0.4h-0.1l0,0
			l-0.8-0.4l0,0c-3.9-1.9-7.2-5.4-9.9-9.6c-0.4-0.7-0.9-1.3-1.3-2c-2.4-4.2-4.4-8.6-6-13.2c-0.4-1-0.7-2.1-1-3
			c-1.6-4.9-2.3-8.4-2.3-8.4l0,0l3.3-1.9l10.2-5.9l0.3-0.2l0,0l6.3-3.7l0,0l3.7-2.1c0,0,0.6,0.4,1.5,1.3l0,0l0.1,0.1
			c0.3,0.3,0.7,0.6,1,0.9l0.4,0.3l0,0l0.4,0.3l0.1,0.1l0.1,0.1l0.1,0l0.2,0.1l0.4,0.3l0.1,0.1l0.3,0.2l0.8,0.7l0.3,0.3l0.1,0.1
			l0.2,0.2l0.1,0.1l0,0l0.5,0.5l0.4,0.4l0.1,0.1l0.3,0.3c0.1,0.1,0.3,0.3,0.4,0.4l0.3,0.3l0.1,0.1l0,0l0.2,0.2
			c0.2,0.2,0.5,0.5,0.7,0.7l0.5,0.5l1,1.1l0.5,0.6c0.4,0.5,0.8,0.9,1.2,1.4l0.3,0.4c0.4,0.5,0.8,0.9,1.1,1.4
			c0.1,0.2,0.3,0.4,0.4,0.5l0.4,0.5l0,0c0.8,1.1,1.6,2.2,2.4,3.4c0.3,0.4,0.5,0.8,0.7,1.2l0.4,0.6l0.6,1c0.1,0.3,0.3,0.5,0.4,0.8
			l0.1,0.3l0.3,0.5c0.1,0.2,0.2,0.5,0.4,0.7s0.3,0.8,0.5,1.1s0.3,0.7,0.4,1c0,0,0,0,0,0.1c0.1,0.4,0.3,0.8,0.4,1.1
			c0.2,0.7,0.4,1.3,0.5,1.9c0,0.2,0.1,0.4,0.1,0.7c0.2,1,0.3,2,0.4,3C287,46.2,287,46.5,287,46.7z"/>
		<path class="st19" d="M287,46.7c0,0.2,0,0.3,0,0.5s0,0.3,0,0.5s0,0.2,0,0.3l-0.1,0.6c0,0.3-0.1,0.7-0.2,1s-0.1,0.7-0.3,1.1
			l-0.1,0.5c-0.2,0.7-0.5,1.5-0.9,2.2c-0.1,0.2-0.2,0.3-0.3,0.5s-0.2,0.3-0.3,0.5c-0.4,0.7-0.9,1.4-1.4,2.1l0,0
			c-0.3,0.3-0.5,0.7-0.8,1l-0.5,0.5l-0.5,0.5l-0.7,0.6c-0.2,0.2-0.5,0.4-0.7,0.6c-0.5,0.4-1,0.8-1.6,1.2s-1.1,0.7-1.6,1l-0.6,0.4
			c-0.9,0.5-1.9,1-2.9,1.4l-0.6,0.2l-0.1,0l0,0l-0.7,0.2l-0.5,0.1l-0.4,0.1l-0.5,0.1l-0.7,0.1l-0.7,0.1h-0.1l-0.6,0.1h-0.5
			c-0.5,0-0.9,0-1.4,0c-1.6-0.1-3.3-0.5-4.8-1.1c0.1-0.2,0.1-0.3,0.2-0.5c1.5-3.4,2.8-6.9,3.8-10.5c0.2-0.5,0.3-1,0.4-1.6
			c0.1-0.3,0.1-0.6,0.2-0.9c0.3-1.1,0.5-2.2,0.7-3.3s0.4-2,0.5-3c0.3-1.9,0.5-3.9,0.7-5.8l0,0c0.3-3.3,0.3-6.6,0.1-9.8
			c-0.1-1.1-0.2-2.2-0.3-3.3c-0.3-3.5-1.1-6.9-2.2-10.2l0,0l0.1,0.1c0.3,0.3,0.7,0.6,1,0.9l0.4,0.3l0,0l0.4,0.3l0.1,0.1l0.2,0.2
			l0.2,0.1l0.4,0.3h0l0,0l0.3,0.2l0.8,0.7l0.3,0.2l0,0l0.1,0.1l0.2,0.2l0.1,0.1l0,0l0.5,0.5l0.4,0.4l0.1,0.1
			c0.1,0.1,0.2,0.2,0.3,0.3s0.3,0.3,0.4,0.4l0.3,0.3l0.1,0.1l0.2,0.2c0.2,0.2,0.5,0.5,0.7,0.7l0.5,0.5l1,1.1l0.5,0.6
			c0.4,0.5,0.8,0.9,1.2,1.4l0.3,0.4c0.4,0.5,0.8,0.9,1.1,1.4c0.1,0.2,0.3,0.4,0.4,0.5l0.4,0.5l0,0c0.8,1.1,1.6,2.2,2.4,3.4
			c0.3,0.4,0.5,0.8,0.7,1.2l0.4,0.6l0.6,1c0.1,0.3,0.3,0.5,0.4,0.8l0.1,0.3l0.3,0.5c0.1,0.2,0.2,0.5,0.4,0.7s0.3,0.8,0.5,1.1
			s0.3,0.7,0.4,1c0,0,0,0,0,0.1c0.1,0.4,0.3,0.8,0.4,1.1c0.2,0.7,0.4,1.3,0.5,1.9c0,0.2,0.1,0.4,0.1,0.7c0.2,1,0.3,2,0.4,3
			C287,46.2,287,46.5,287,46.7z"/>
		<path class="st21" d="M279.4,28.5c3.3,5.6,6.4,11.7,6,18.2c-0.6,8.9-7.6,16.1-16.5,16.9c4.9-15.5,4.5-32.2-1.1-47.5
			C272,19.8,275.9,24,279.4,28.5z"/>
		<path class="st24" d="M264.7,13.5c0,0-1.9,19-23.9,13.7C240.8,27.2,246.2,12.9,264.7,13.5z"/>
		<path class="st25" d="M258.3,13.9c-0.3,0.3-0.5,0.6-0.8,0.9c-1.8,2.4-3.3,5-4.5,7.8c-0.8,1.8-1.6,3.5-2.2,5.4
			c-3.3,0.4-6.7,0.1-9.9-0.7C244.1,20.2,250.6,15.2,258.3,13.9z"/>
		<path class="st26" d="M244.1,25.8c5.5,0.8,9.9,0,13.1-2.5c2.4-2,4.2-4.7,5-7.7c-10.9,0.5-16.2,6.7-18.3,10.2L244.1,25.8
			L244.1,25.8z"/>
		<path class="st20" d="M255,23.6c-0.3-2.1-0.6-4.3-1.1-6.3c2.6-1,5.3-1.6,8-1.7C260.9,19.2,258.1,21.5,255,23.6z"/>
		<path class="st19" d="M282.1,42.1c-2.5-8.8-7.2-16.9-13.6-23.5c5.4,12.2,6.8,25.8,3.9,38.8c3.7-1,7.7-2.2,9.5-5.5
			C283.6,48.9,283,45.3,282.1,42.1z"/>
		<path class="st22" d="M242.7,28.2c4.1,1.7,8.7,1.7,12.8,0c4.1-1.8,7.4-5.1,9.1-9.2c4.4,14.3,2.6,29.7-4.9,42.7
			C249.7,53.3,243.5,41.2,242.7,28.2z"/>
		<path class="st23" d="M248.6,31c0.5,6.6,2,13,4.5,19.1c0-6.5-0.7-13-2-19.4c3.6-0.5,6.9-2,9.7-4.2c2.1,9.9,1.2,20.3-2.5,29.7
			c-8.2-5.7-12.8-15.5-13.2-25.5C246.3,31,247.4,31,248.6,31z"/>
		<path class="st22" d="M277.7,62.3c0.3-0.2,1-0.7,1.4-0.5c1.1,0.6-0.5,1.5-1,1.8c-1,0.5-2.2,0.8-3.3,0.7L277.7,62.3z"/>
		<path class="st22" d="M286.7,71.6c-1.5,1.3-3.5,2.1-5.5,2.2c0.5,0.5,1.1,0.8,1.8,1.2c0.7,0.3,1.4,0.4,2.1,0.2
			c0.6-0.2,1-0.6,1.3-1.2C286.7,73.3,286.8,72.4,286.7,71.6z"/>
		<path class="st21" d="M275.9,89l-0.2-1.8c8.1,1.1,16.3-1.5,22.2-7.2c-0.2,0.8-0.4,1.7-0.6,2.5c-1.2,1.2-2.5,2.2-3.9,3.2
			C285.9,91,275.9,89,275.9,89z"/>
		<path class="st23" d="M249.4,62.2c3.4,1.6,7.2,2.2,10.9,1.8c-1.6,1.3-3.7,2-5.8,1.7c-2.2-0.4-4.3-1.1-6.3-2
			C248.6,63.3,249.1,62.6,249.4,62.2z"/>
		<path class="st23" d="M226,45.5c0.8-3.1,1.9-6.2,3.4-9c-0.3,2.9-0.7,5.9-1,8.8c2.3,3.1,5.1,5.8,8.3,7.9c0,0.6,0.1,1.2,0.1,1.8
			C233,52.1,229.4,48.9,226,45.5z"/>
		<path class="st22" d="M276.9,16.3l0.8-8.7c-0.4-0.3-1-0.7-1.4-1.1c-0.3,3.3-0.5,5.8-0.8,9.2C276,15.6,276.4,16.4,276.9,16.3z"/>
		<path class="st7" d="M176.7,94.5l10.3-7.6l-12.4,6.4c3.6-5.8,9.4-9.8,16.1-11c-5.9,0.5-11.5,3-15.9,7.1
			c8.8-12.7,26.2-15.9,38.9-7.2c0.1,0,0.1,0.1,0.2,0.1c-4.7,12.6-18.8,19-31.3,14.2c-1.3-0.5-2.5-1.1-3.7-1.7c7.7,1,15.5-1.2,21.5-6
			L176.7,94.5z"/>
		<path class="st7" d="M173,104.5c-0.3-3.2,0.1-6.5,1-9.5l-3.3,2.3c0.5-0.6,0.8-1.3,1-2c0.2-0.7-0.1-1.5-0.6-2
			c-0.8-0.4-1.7-0.3-2.4,0.2c-2.8,1.7-4.4,4.8-4.2,8.1c0.3,3.2,1.8,6.2,4.2,8.4c2.4,2.1,5.2,3.8,8.2,4.8c-1-2.2-2-4.3-3-6.5l3,3
			c-0.7-0.8-0.8-2-0.4-3c0.5-1,1-1.9,1.6-2.8c1.5-2.7,1.6-5.9,0.4-8.7c0,2.2-0.6,4.4-1.9,6.3l0.1-5.8
			C174.5,99,173.1,101.7,173,104.5z"/>
		<path class="st6" d="M203.1,99.9c1,0,2-0.2,3-0.6c0.9-0.4,1.5-1.3,1.4-2.3c-2.8-1.2-6.1-0.8-8.6,1.1c0.1,0.8,0.7,1.5,1.6,1.7
			C201.4,100,202.3,100,203.1,99.9z"/>
		<path class="st6" d="M184.6,98.9c1.7-0.5,3.5-0.7,5.3-0.7c1.8,0.1,3.5,1.1,4.4,2.7l-8.4,1.4c-0.8,0.2-1.5,0.2-2.3,0
			c-0.8-0.2-1.4-0.9-1.4-1.7C182.2,99.6,183.5,99.1,184.6,98.9z"/>
		<path class="st8" d="M174.3,116.8c-0.5-1.3-1.2-2.4-2.1-3.5c-0.9-1-2.4-1.4-3.7-1.1c-0.9,0.4-1.6,1.1-1.9,2
			c-0.3,0.9-0.5,1.9-0.4,2.8c0,1.9,0.6,3.7,1.6,5.3c1,1.6,2.7,2.7,4.5,3.1c2.1,0.4,4.7-0.2,4.4-2.7
			C176.4,120.6,175.1,118.7,174.3,116.8z"/>
		<path class="st13" d="M173.4,121.6c-0.9,0.3-1.9-0.3-2.2-1.2c-0.3-0.9,0.3-1.9,1.2-2.2c0.1-1.7-0.8-3.4-2.3-4.3
			c-0.6-0.4-1.5-0.5-2.2-0.2c-0.7,0.6-1,1.6-0.8,2.5c0.3,2.2,1.4,4.3,3,5.8c0.6,0.6,1.4,1,2.3,1.1
			C173.3,123,173.7,122.4,173.4,121.6z"/>
		<path class="st11" d="M250.4,56.9c1,1,1,2.5,1,3.9s0.1,2.2-1,3.1c-0.9,0.7-2.1,1.5-3.3,1.3c-1.3-0.3-2-1.5-1.8-2.8
			c0-0.2,0.1-0.3,0.1-0.4c-0.5,0.2-1.1,0.3-1.7,0.3c-0.6,0-1.1-0.3-1.4-0.8c-0.2-0.4-0.2-0.9-0.5-1.2s-0.9-0.2-1.3-0.2
			c-3.4,0-2.9-5.3-2.7-7.3c0.1-0.3,0.6-3.3,0.3-3.4l3.3,1.3L250.4,56.9z"/>
		<path class="st10" d="M236.5,87.1l10.1-1.2c0,0,0.1,0.7,0.3,1.7L236.5,87.1z"/>
		<polygon class="st1" points="327.3,381.6 257.2,381.6 252.7,342.7 137.7,342.7 133.2,381.6 63,381.6 57.6,409.1 332.8,409.1 		"/>
		<path class="st9" d="M284,35.7l-0.1-0.3c-0.1-0.3-0.3-0.5-0.4-0.8l-0.6-1l-0.5,0.3l-1.5,0.8c-0.4,0.2-0.7,0.6-0.7,1.1v0.7l0.1,3.7
			l-3.7-3.8l0,0l-3.7-3.8l-1.3-1.3l-2.9-3l-1.4-1.4c-0.3-0.3-0.6-0.4-1-0.4c-0.2,0-0.4,0.1-0.5,0.2c-0.5,0.3-0.7,0.9-0.5,1.5
			l1.6,4.8l0,0l1.7,5.1l0,0L272,48l0,0l0.1,0.2l-0.1-0.1l-4-4.2l-1.5-1.6l-4.4-4.5c-0.1-0.1-0.1-0.1-0.2-0.2c-0.4-0.3-1-0.3-1.4,0
			c-0.5,0.3-0.7,0.9-0.5,1.5l1.6,4.4l0,0l1.2,3.3v0.1l0.3,0.8l-0.7-0.6h0l-0.6-0.5c-0.2-0.1-0.4-0.2-0.6-0.3c-0.3-0.1-0.6-0.1-0.9,0
			l-7.9,4.4l-1.7,0.9l-0.5,0.3c0.4,0.7,0.8,1.3,1.3,2l0.6-0.3l1.9-1l6.8-3.8l0,0l3.6,3.1l0.7,0.5c0.3,0.3,0.7,0.4,1.2,0.4
			c0.2,0,0.3-0.1,0.5-0.2c0.5-0.3,0.6-0.9,0.4-1.5l-0.3-0.8l-1.1-3.2l0,0l-0.6-1.7v-0.1l-0.6-1.7l1.3,1.3l0,0l0.3,0.3l1.5,1.6
			l4.2,4.4l1.6,1.6l0.9,0.9c0.4,0.4,1,0.4,1.4,0.1l0,0c0.5-0.2,0.8-0.8,0.6-1.3l-2.4-7l0,0l-1.6-4.6l0,0l-2.9-8.4l2.6,2.7l1.4,1.5
			l7.3,7.5c0.5,0.5,1.3,0.5,1.8,0.1c0,0,0,0,0.1-0.1c0.2-0.2,0.3-0.5,0.3-0.9l-0.1-1.9l-0.1-2.4l-0.1-2.7l0.6-0.3L284,35.7z"/>
		<text transform="matrix(1 0 0 1 187.19 381.44)" class="st9 st27 st28">1</text>
	</g>
</g>
</svg>
