<svg xmlns="http://www.w3.org/2000/svg" xmlns:xlink="http://www.w3.org/1999/xlink" viewBox="0 0 457.62 445.13"><defs><style>.cls-1,.cls-10,.cls-12,.cls-13,.cls-14,.cls-15,.cls-16,.cls-9{fill:none;}.cls-2{clip-path:url(#clip-path);}.cls-3{fill:#c6d8ed;}.cls-4{fill:#5686c4;}.cls-5{fill:#b7c1da;}.cls-6{fill:#fff;}.cls-7{fill:#2a4f9a;}.cls-8{fill:#353c73;}.cls-10,.cls-14,.cls-15,.cls-16,.cls-9{stroke:#353c73;}.cls-10,.cls-12,.cls-14,.cls-15,.cls-16,.cls-9{stroke-linecap:round;}.cls-10,.cls-12,.cls-13,.cls-14,.cls-15,.cls-16,.cls-9{stroke-miterlimit:10;}.cls-10,.cls-13{stroke-width:2px;}.cls-11{fill:#ef8b7b;}.cls-12{stroke:#fff;stroke-width:1.5px;}.cls-13{stroke:#5686c4;}.cls-14{stroke-dasharray:7.8 7.8;}.cls-15{stroke-dasharray:8.07 8.07;}.cls-16{stroke-dasharray:8;}</style><clipPath id="clip-path" transform="translate(-19.19 -23.61)"><rect class="cls-1" width="500" height="500"/></clipPath></defs><title>Asset 1</title><g id="Layer_2" data-name="Layer 2"><g id="OBJECTS"><g class="cls-2"><path class="cls-3" d="M390.74,312.2H379.47a6.06,6.06,0,0,0-6-5.62h-8.58a6,6,0,0,0-6,5.62H347.56a10,10,0,0,0-10,10V347.7a10,10,0,0,0,10,10h43.18a10,10,0,0,0,10-10V322.22A10,10,0,0,0,390.74,312.2Zm-29.37,0a3.53,3.53,0,0,1,3.49-3.12h8.58a3.54,3.54,0,0,1,3.5,3.12Z" transform="translate(-19.19 -23.61)"/><polygon class="cls-4" points="359.14 308.52 352.79 308.52 352.79 302.16 347.13 302.16 347.13 308.52 340.77 308.52 340.77 314.17 347.13 314.17 347.13 320.53 352.79 320.53 352.79 314.17 359.14 314.17 359.14 308.52"/><rect class="cls-4" x="328.37" y="288.59" width="4.17" height="45.52"/><rect class="cls-4" x="366.77" y="288.59" width="4.17" height="45.52"/><rect class="cls-5" x="81.54" y="293.37" width="25.05" height="41.17"/><rect class="cls-6" x="84.72" y="304.15" width="18.69" height="15.16"/><rect class="cls-7" x="79.96" y="285.1" width="28.22" height="8.26"/><polygon class="cls-4" points="262.08 333.89 262.08 328.22 251.77 317.91 251.77 298.82 209.84 298.82 209.84 317.91 199.54 328.22 199.54 333.89 262.08 333.89"/><path class="cls-4" d="M359.89,191V316.88a12.17,12.17,0,0,1-12,12.36H152.08a12.17,12.17,0,0,1-12-12.36V191a12.18,12.18,0,0,1,12-12.37H347.92A12.18,12.18,0,0,1,359.89,191Z" transform="translate(-19.19 -23.61)"/><path class="cls-8" d="M359.89,303v13.9a12.17,12.17,0,0,1-12,12.36H152.08a12.17,12.17,0,0,1-12-12.36V303Z" transform="translate(-19.19 -23.61)"/><path class="cls-6" d="M264.41,316.67a5.76,5.76,0,0,1-5.76,5.76h-17.3a5.76,5.76,0,0,1-5.76-5.76h0a5.76,5.76,0,0,1,5.76-5.77h17.3a5.76,5.76,0,0,1,5.76,5.77Z" transform="translate(-19.19 -23.61)"/><rect class="cls-3" x="132.08" y="166.95" width="197.45" height="103.05" rx="2" ry="2"/><polygon class="cls-5" points="195.77 269.99 195.77 257.8 198.52 269.99 195.77 269.99"/><polygon class="cls-5" points="267.56 269.99 267.56 257.8 264.81 269.99 267.56 269.99"/><path class="cls-4" d="M470,358.15S453,270,436,270s6.17,74,6.17,74A19.08,19.08,0,0,0,425,333.5c-12.5,0-3.5,15.5-3.5,15.5s-12.5-3-13,9.15Z" transform="translate(-19.19 -23.61)"/><line class="cls-9" x1="420.06" y1="259.15" x2="437.64" y2="334.53"/><line class="cls-9" x1="428.85" y1="296.84" x2="416.97" y2="283.44"/><line class="cls-9" x1="428.85" y1="265.64" x2="424.38" y2="277.67"/><line class="cls-9" x1="410.3" y1="320.35" x2="416.97" y2="334.53"/><path class="cls-4" d="M82.83,358.15s19.5-100.65,0-102.15-20.83,51.06-15,88c0,0-6.07-13.38-13.25-10-5.25,2.5-4.75,10-1.75,17.05,0,0-18-9.26-18,7.1Z" transform="translate(-19.19 -23.61)"/><line class="cls-9" x1="63.47" y1="250.05" x2="54.81" y2="334.53"/><line class="cls-9" x1="59.87" y1="282.14" x2="51.47" y2="269.64"/><line class="cls-9" x1="63.47" y1="307.16" x2="56.26" y2="320.35"/><line class="cls-9" x1="38.42" y1="322.39" x2="43.98" y2="334.53"/><line class="cls-10" x1="456.62" y1="334.53" x2="5" y2="334.53"/><polygon class="cls-3" points="401.19 391.14 340.77 427.28 389.33 444.78 444.11 404.69 401.19 391.14"/><polygon class="cls-11" points="395.79 397.56 388.16 402.13 424.71 415.2 431.69 410.5 395.79 397.56"/><line class="cls-9" x1="374.96" y1="411.66" x2="409.92" y2="424.26"/><line class="cls-9" x1="366.11" y1="416.96" x2="401.07" y2="429.56"/><line class="cls-9" x1="358.13" y1="423.26" x2="393.09" y2="435.86"/><path class="cls-4" d="M303.09,407.13s-9-30,0-30,6.61,20.19,6.61,20.19,5.27-13.75,14-12.32c9,1.48,6,18.67,6,18.67s6.08-11.18,13.91-8.77c8.4,2.59,6,12.23,6,12.23Z" transform="translate(-19.19 -23.61)"/><line class="cls-9" x1="284.14" y1="356.68" x2="288.81" y2="383.83"/><line class="cls-9" x1="300.14" y1="383.51" x2="303.14" y2="368.51"/><line class="cls-9" x1="322.43" y1="377.41" x2="319.81" y2="383.83"/><line class="cls-9" x1="277.4" y1="383.51" x2="339.39" y2="383.51"/><path class="cls-5" d="M401.5,393.86s1-14.11,15-14.11c0,0,20.75,0,24.75,14.11Z" transform="translate(-19.19 -23.61)"/><line class="cls-9" x1="380.27" y1="370.24" x2="425.56" y2="370.24"/><path class="cls-4" d="M93.5,395.25s-1.32-9.45,8-10.54A10.6,10.6,0,0,1,112.26,390s.7-19.7,12.72-19,7.7,17.47,5.61,24.22Z" transform="translate(-19.19 -23.61)"/><line class="cls-9" x1="105.79" y1="353.72" x2="101.81" y2="371.64"/><line class="cls-9" x1="82.31" y1="367.39" x2="84.81" y2="371.64"/><line class="cls-9" x1="68.81" y1="371.64" x2="117.33" y2="371.64"/><path class="cls-5" d="M212.66,447.56s0-15.4,16.25-15.85c0,0,2.25-4.65,12.75-4.8a20.16,20.16,0,0,1,20.5,20.65Z" transform="translate(-19.19 -23.61)"/><line class="cls-9" x1="188.96" y1="423.94" x2="249.46" y2="423.94"/><rect class="cls-5" x="85.65" y="61.39" width="56.49" height="127"/><line class="cls-9" x1="95.14" y1="72.89" x2="132.64" y2="72.89"/><line class="cls-9" x1="95.14" y1="82.89" x2="132.64" y2="82.89"/><line class="cls-9" x1="95.14" y1="92.89" x2="132.64" y2="92.89"/><line class="cls-9" x1="95.14" y1="112.89" x2="132.64" y2="112.89"/><line class="cls-9" x1="95.14" y1="122.89" x2="132.64" y2="122.89"/><line class="cls-9" x1="95.14" y1="142.89" x2="132.64" y2="142.89"/><line class="cls-9" x1="95.14" y1="152.89" x2="132.64" y2="152.89"/><line class="cls-9" x1="95.14" y1="152.89" x2="132.64" y2="152.89"/><circle class="cls-6" cx="113.89" cy="171.55" r="11.34"/><polygon class="cls-11" points="120.89 169.39 116.05 169.39 116.05 164.55 111.74 164.55 111.74 169.39 106.89 169.39 106.89 173.7 111.74 173.7 111.74 178.55 116.05 178.55 116.05 173.7 120.89 173.7 120.89 169.39"/><path class="cls-7" d="M285.38,116.5h67.91a16.29,16.29,0,0,1,16.29,16.3v2.71a16.29,16.29,0,0,1-16.29,16.3H291.06l-10.58,11.55v-12.3a16.3,16.3,0,0,1-11.4-15.55V132.8A16.3,16.3,0,0,1,285.38,116.5Z" transform="translate(-19.19 -23.61)"/><line class="cls-12" x1="262.16" y1="102.97" x2="290.16" y2="102.97"/><line class="cls-12" x1="295.16" y1="102.97" x2="327.05" y2="102.97"/><line class="cls-12" x1="268.15" y1="109.47" x2="295.16" y2="109.47"/><line class="cls-12" x1="302.49" y1="109.47" x2="315.89" y2="109.47"/><line class="cls-12" x1="323.47" y1="109.47" x2="344.16" y2="109.47"/><line class="cls-12" x1="262.16" y1="116.31" x2="295.16" y2="116.31"/><line class="cls-12" x1="302.49" y1="116.31" x2="341.75" y2="116.31"/><path class="cls-11" d="M194,393.79a2.51,2.51,0,0,1-1.83,3l-9.94,2.47a2.49,2.49,0,0,1-3-1.82,2.51,2.51,0,0,1,1.82-3L191,392A2.51,2.51,0,0,1,194,393.79Z" transform="translate(-19.19 -23.61)"/><path class="cls-3" d="M194,393.79a2.51,2.51,0,0,1-1.83,3l-5,1.24L186,393.2l5-1.24A2.51,2.51,0,0,1,194,393.79Z" transform="translate(-19.19 -23.61)"/><path class="cls-11" d="M224,406a2.5,2.5,0,0,1-2.62,2.37l-10.24-.52a2.5,2.5,0,0,1-2.37-2.62,2.54,2.54,0,0,1,.82-1.73,2.42,2.42,0,0,1,1.8-.65l10.24.51A2.51,2.51,0,0,1,224,406Z" transform="translate(-19.19 -23.61)"/><path class="cls-3" d="M224,406a2.5,2.5,0,0,1-2.62,2.37l-5.12-.26.25-5,5.12.25A2.51,2.51,0,0,1,224,406Z" transform="translate(-19.19 -23.61)"/><path class="cls-11" d="M59.91,420.08a2.49,2.49,0,0,1-2.64,2.34L47,421.79a2.51,2.51,0,0,1-2.34-2.65,2.55,2.55,0,0,1,.84-1.72,2.51,2.51,0,0,1,1.82-.63l10.23.64A2.5,2.5,0,0,1,59.91,420.08Z" transform="translate(-19.19 -23.61)"/><path class="cls-3" d="M59.91,420.08a2.49,2.49,0,0,1-2.64,2.34l-5.13-.31.32-5,5.12.32A2.5,2.5,0,0,1,59.91,420.08Z" transform="translate(-19.19 -23.61)"/><rect class="cls-8" x="357.31" y="139.74" width="76.5" height="100.64" rx="2" ry="2"/><rect class="cls-6" x="360.91" y="144.47" width="69.3" height="91.18" rx="2" ry="2"/><rect class="cls-4" x="376.64" y="134.66" width="37.83" height="11.73"/><circle class="cls-13" cx="414.75" cy="160.79" r="7.29" transform="translate(-23.67 -11.56) rotate(-1.66)"/><line class="cls-9" x1="368.18" y1="157.89" x2="422.93" y2="157.89"/><line class="cls-9" x1="368.18" y1="167.89" x2="422.93" y2="167.89"/><line class="cls-9" x1="368.18" y1="177.89" x2="422.93" y2="177.89"/><line class="cls-9" x1="368.18" y1="187.89" x2="422.93" y2="187.89"/><line class="cls-9" x1="390.29" y1="197.89" x2="422.93" y2="197.89"/><rect class="cls-7" x="399.14" y="223.89" width="25.24" height="6.44"/><path class="cls-4" d="M55.23,468.24s.84-12.13,9.5-14.57c10.5-3,15,5.07,15,5.07s4.53-8,16.51-8,15,17.53,15,17.53Z" transform="translate(-19.19 -23.61)"/><line class="cls-9" x1="77.66" y1="433.13" x2="73.54" y2="444.63"/><line class="cls-9" x1="49.39" y1="438.18" x2="53.04" y2="444.63"/><line class="cls-9" x1="29.57" y1="444.63" x2="97.37" y2="444.63"/><path class="cls-3" d="M108.14,47h-3.88a9.74,9.74,0,0,0,.61-3.38,10,10,0,0,0-10-10h-2.3a8.18,8.18,0,0,0,.2-1.79,8.3,8.3,0,0,0-8.29-8.3H74.1a8.3,8.3,0,0,0-8.29,8.3A8.18,8.18,0,0,0,66,33.7H60A9.94,9.94,0,0,0,50.6,47H50a9.18,9.18,0,0,0,0,18.35h58.16a9.18,9.18,0,0,0,0-18.35Z" transform="translate(-19.19 -23.61)"/><path class="cls-3" d="M417.79,62.45h-.47A10.8,10.8,0,0,0,407.13,47.9H383.24a9.34,9.34,0,0,0-8.38-13.51H359.21a9.34,9.34,0,0,0-8.37,13.51H344.9a10.83,10.83,0,0,0-10.19,14.55h-8.9a12.28,12.28,0,1,0,0,24.55h92a12.28,12.28,0,0,0,0-24.55Z" transform="translate(-19.19 -23.61)"/><path class="cls-3" d="M78.87,214.69H78.6a6.19,6.19,0,0,0-5.83-8.33H59.09a5.36,5.36,0,0,0-4.79-7.74h-9a5.34,5.34,0,0,0-4.79,7.74h-3.4a6.22,6.22,0,0,0-5.84,8.33H26.22a7,7,0,1,0,0,14.05H78.87a7,7,0,0,0,0-14.05Z" transform="translate(-19.19 -23.61)"/><path class="cls-9" d="M57.61,188.16a37.16,37.16,0,0,1,.19-4" transform="translate(-19.19 -23.61)"/><path class="cls-14" d="M59.13,176.5c2.6-10.34,9.63-24.44,28.56-28.83" transform="translate(-19.19 -23.61)"/><path class="cls-9" d="M91.52,147c1.28-.19,2.6-.34,4-.45" transform="translate(-19.19 -23.61)"/><path class="cls-9" d="M189,81s1.37-.5,3.81-1.19" transform="translate(-19.19 -23.61)"/><path class="cls-15" d="M200.69,78c18.93-3.73,57-6,84.37,26.06" transform="translate(-19.19 -23.61)"/><path class="cls-9" d="M287.61,107.14c.81,1,1.6,2.11,2.39,3.21" transform="translate(-19.19 -23.61)"/><path class="cls-16" d="M376.5,121s27.5-5.5,38.25,25.5" transform="translate(-19.19 -23.61)"/><path class="cls-6" d="M268.2,245.18H231.8S199,245.09,199,293.61H301c0-48.52-32.79-48.43-32.79-48.43" transform="translate(-19.19 -23.61)"/><polygon class="cls-7" points="248.52 221.56 241.92 269.99 219.22 269.99 212.61 221.56 248.52 221.56"/><polygon class="cls-5" points="219.22 269.99 204.53 244.49 211.87 240.37 204.53 225.17 212.61 221.56 219.22 269.99"/><polygon class="cls-5" points="241.94 269.99 256.62 244.49 249.28 240.37 256.62 225.17 248.54 221.56 241.94 269.99"/><path class="cls-8" d="M217.52,184s-14.44,53.65,24.73,53.65,42.81-13.05,40.48-47.05S217.52,184,217.52,184Z" transform="translate(-19.19 -23.61)"/><path class="cls-11" d="M279.81,193.82c0,19.64-13.42,35.55-30,35.55s-30-15.91-30-35.55,13.42-35.55,30-35.55S279.81,174.19,279.81,193.82Z" transform="translate(-19.19 -23.61)"/><path class="cls-8" d="M217.52,184s28.13,2.48,39.56-13.49c0,0,5,20.09,25.65,20.09,0,0-2.57-32.29-33.26-32.29S217.52,184,217.52,184Z" transform="translate(-19.19 -23.61)"/><path class="cls-11" d="M241.88,227.37s5,17.81-10.08,17.81c0,0,10.47,11.51,18,11.51,9.45,0,18-11.51,18-11.51-15.11,0-10.08-17.81-10.08-17.81Z" transform="translate(-19.19 -23.61)"/><path class="cls-6" d="M236.78,209.59H262.9s-3,11.18-13.06,11.18S236.78,209.59,236.78,209.59Z" transform="translate(-19.19 -23.61)"/><path class="cls-8" d="M245.46,202.91a6.25,6.25,0,0,1,1-1.41,7.08,7.08,0,0,1,.62-.59,6,6,0,0,1,.78-.56,5.16,5.16,0,0,1,.94-.47,5.59,5.59,0,0,1,1.09-.26,3.94,3.94,0,0,1,1.14.08,3.19,3.19,0,0,1,1,.39,3.8,3.8,0,0,1,.8.6,3.71,3.71,0,0,1,.56.66,4.93,4.93,0,0,1,.61,1.12c.12.28.17.44.17.44l-.34-.33-.37-.39a3.82,3.82,0,0,0-.5-.45,4.16,4.16,0,0,0-.6-.47,5.68,5.68,0,0,0-.73-.4,3.13,3.13,0,0,0-.81-.22,2.48,2.48,0,0,0-.86,0,3.93,3.93,0,0,0-.88.18,4.91,4.91,0,0,0-.83.32,12.09,12.09,0,0,0-1.45.81C246,202.48,245.46,202.91,245.46,202.91Z" transform="translate(-19.19 -23.61)"/><path class="cls-8" d="M232.74,193.82a10.23,10.23,0,0,1,1.29-2.25,9.29,9.29,0,0,1,1.9-1.93,5.66,5.66,0,0,1,3-1.15,5,5,0,0,1,1.67.27,5.38,5.38,0,0,1,1.4.76,6.82,6.82,0,0,1,1.07,1,8.34,8.34,0,0,1,.78,1,11.31,11.31,0,0,1,.91,1.65c.19.41.28.65.28.65s-.17-.19-.45-.55a16.57,16.57,0,0,0-1.19-1.39c-.25-.28-.55-.55-.86-.84a8.35,8.35,0,0,0-1-.79,5.19,5.19,0,0,0-1.21-.58,3.9,3.9,0,0,0-1.32-.18,5.38,5.38,0,0,0-2.56.88,13.09,13.09,0,0,0-2,1.58c-.54.53-1,1-1.26,1.33Z" transform="translate(-19.19 -23.61)"/><polygon class="cls-8" points="215.08 168.2 211.13 164.75 215.66 167.38 215.08 168.2"/><path class="cls-8" d="M266.93,193.82l-.45-.54c-.28-.34-.73-.8-1.26-1.33a12.71,12.71,0,0,0-2-1.58,5.34,5.34,0,0,0-2.55-.88,4,4,0,0,0-1.33.18,5.39,5.39,0,0,0-1.21.58,9.17,9.17,0,0,0-1,.79c-.31.29-.6.56-.85.84a17,17,0,0,0-1.2,1.39c-.27.36-.44.55-.44.55s.09-.24.28-.65a10.42,10.42,0,0,1,.91-1.65,8.21,8.21,0,0,1,.77-1,6.82,6.82,0,0,1,1.07-1,5.29,5.29,0,0,1,1.41-.76,4.91,4.91,0,0,1,1.67-.27,5.73,5.73,0,0,1,3,1.15,9.55,9.55,0,0,1,1.9,1.93A9.89,9.89,0,0,1,266.93,193.82Z" transform="translate(-19.19 -23.61)"/><polygon class="cls-8" points="245.63 167.38 250.16 164.75 246.21 168.2 245.63 167.38"/><path class="cls-4" d="M188.6,144l-14-32.36a4.94,4.94,0,0,0-1-1.49,20.72,20.72,0,0,0-12.45-37.29,20.49,20.49,0,0,0-8.22,1.71,20.73,20.73,0,0,0,8.24,39.76,20,20,0,0,0,3.55-.33,5.16,5.16,0,0,0,.39,1.75l14,32.35a5.17,5.17,0,1,0,9.49-4.1ZM149.48,98.67a12.74,12.74,0,0,1,6.63-16.74,12.58,12.58,0,0,1,5-1.05,12.73,12.73,0,0,1,5.07,24.42,12.59,12.59,0,0,1-5.05,1A12.73,12.73,0,0,1,149.48,98.67Z" transform="translate(-19.19 -23.61)"/></g></g></g></svg>