<?xml version="1.0" encoding="utf-8"?>
<!-- Generator: Adobe Illustrator 22.1.0, SVG Export Plug-In . SVG Version: 6.00 Build 0)  -->
<svg version="1.1" id="Layer_1" xmlns="http://www.w3.org/2000/svg" xmlns:xlink="http://www.w3.org/1999/xlink" x="0px" y="0px"
	 viewBox="0 0 160.5 76.9" style="enable-background:new 0 0 160.5 76.9;" xml:space="preserve">
<style type="text/css">
	.st0{fill:#F49D26;}
	.st1{fill:#61C4F0;}
	.st2{fill:#EE869D;}
	.st3{fill:#DEDC1F;}
	.st4{fill:#C1368C;}
	.st5{fill:#358941;}
	.st6{fill:#868686;}
	.st7{fill:#848585;}
	.st8{fill:#DB1F2D;}
	.st9{fill:#F49C26;}
</style>
<g>
	<path class="st0" d="M35.6,69.2c0-0.6-0.1-1.2-0.3-1.8c-0.8-3.9-3.2-7.8-6.9-9.6c-2-1-4.5-1.2-6.4,0c-0.9,0.5-1.7,1.4-2.5,2.1
		c-0.8,0.7-1.8,1.3-2.9,1.3c-0.7,0-1.3-0.2-2-0.4c-1.9-0.7-4.5-1.1-6.5-1.5c-1.9-0.4-3.8-0.6-5.7-0.1c-0.7,0.2-1.3,0.5-1.7,1
		c-0.3,0.4-0.4,0.9-0.5,1.5c-0.2,1.1-0.1,2.3,0.6,3.1c0.5,0.5,1.2,0.8,1.9,1c2.9,0.9,6,1.9,9.1,2.2c2.8,0.3,4.8,0.6,7.3,2.2
		c3.5,2.2,6.4,4.1,10.8,4.3c1.8,0.1,3.8-0.3,4.9-1.8C35.5,71.5,35.6,70.4,35.6,69.2"/>
	<path class="st1" d="M20.2,36.5c0-0.1,0-0.2-0.1-0.3c-0.9-2-2.8-3.8-3.9-5.8c-1-1.9-1.7-4-2.7-5.9c-1.5-3-4.7-6.9-6.7-9.6
		c-0.4-0.5-0.7-1-1.3-1.3c-1.7-1.1-4.2,0.3-4.8,2.2c-0.6,1.9,0.1,4.1,1,5.9c1.6,2.9,5.1,6.5,7.6,8.8c1.2,1.1,2.5,2.1,3.3,3.5
		c1,1.6,1.6,3.8,2.9,5.2c1.7,1.8,1.5-1.2,3.2-1.5c0.3,0,0.6,0,0.9-0.1C20.1,37.2,20.3,36.9,20.2,36.5"/>
	<path class="st2" d="M29.5,32.3c0.1,0.1,0.2,0.2,0.3,0.3c0.9,0.8,3,0.1,3.7-0.9c0.5-0.8,0.5-1.8,0.4-2.8c-0.4-3.6-0.8-7.1-1.2-10.7
		C32.1,12.8,32.5,7,29.3,2c-1.3-1.9-4.1-1.8-5.7-0.2c-1.6,1.5-1.3,4-1,6.2c1.2,7,2.9,13.7,5,20.5C28,29.8,28.5,31.3,29.5,32.3"/>
	<path class="st3" d="M41.9,31.7c0.6,0.8,1.7,1.4,2.5,1.4c1.5,0,2.2-1.7,2.4-2.9c1.1-5.2,2.1-10.4,2.8-15.6c0.3-2.4,0.6-4.9,0.5-7.3
		c-0.1-0.9-0.2-1.9-0.8-2.7c-0.7-1-1.8-1.4-3-1.6c-1-0.1-2-0.2-3,0.2c-1.6,0.8-1.1,4-1,5.4c0.2,2.2,0,4.4,0.2,6.6
		c0.2,4-0.1,8.1-1,12c-0.3,1.2-0.6,2.4-0.2,3.6C41.4,31,41.6,31.3,41.9,31.7"/>
	<path class="st4" d="M53.3,34.8C53.3,34.9,53.3,34.9,53.3,34.8c-0.2,0.4-0.3,0.9-0.1,1.2c0.2,0.3,0.5,0.4,0.8,0.5
		c0.8,0.3,1.7,0.5,2.4,0.2c1.3-0.6,1.9-3.3,2.3-4.6c0.7-2.1,1.2-4.1,1.8-6.2c0.7-2.8,1.7-5.3,2-8.2c0.1-0.6,0.1-1.1,0-1.7
		c-0.4-1.7-3.6-4.2-5.1-2.3c-0.4,0.4-0.4,1.1-0.5,1.6C56.4,22,55.6,28.6,53.3,34.8"/>
	<path class="st5" d="M53.3,38.4c-0.8-0.2-1.6-0.5-2.5-0.5c-0.7,0-1.4,0-2-0.2c-0.4-0.1-0.8-0.4-1.2-0.6c-1.6-0.8-3.4-1.1-5.1-1.6
		c-0.7-0.2-1.6-0.5-2.2-1c-0.7-0.5-1-1.5-1.6-2.1c-0.1-0.1-0.2-0.2-0.3-0.2c-0.2,0-0.3,0.2-0.4,0.4c-0.8,1.4-2.1,2.4-3.6,2.9
		c-0.4,0.1-0.8,0.2-1.2,0.4c-0.8,0.4-1.1,1-2.1,0.8c-0.5-0.1-0.9-0.4-1-0.8c-0.1-0.3,0-0.6,0-0.9c-0.1-0.4-0.4-0.7-0.8-0.8
		c-0.4-0.1-0.8-0.1-1.2,0c-1.1,0.2-2.2,0.5-3.2,1c-0.2,0.1-0.4,0.2-0.5,0.4c-0.3,0.4-0.2,0.9-0.1,1.3c0.1,0.5,0.2,0.9,0.1,1.4
		c-0.1,0.5-0.4,0.9-0.9,1c-0.4,0.1-0.7,0-1.1-0.1c-2.2-0.4-4.7,1.2-3.9,3.6c0.3,0.8,0.4,1.7,0.4,2.5c0,0.4,0,0.7-0.2,1.1
		c-0.4,0.6-1.2,0.8-1.8,1.3c-0.5,0.4-0.6,1.2-0.5,1.8c0.1,0.6,0.4,1.2,0.7,1.8c0.4,0.6,0.8,1.1,1.3,1.6c1.3,1,3.3,1,4.6-0.1
		c0.4-0.3,0.8-0.7,1.2-0.7c0.4,0,0.7,0.3,0.9,0.6c0.5,0.6,0.9,1.2,1.6,1.4c0.7,0.3,1.6,0.5,2.3,0.6c0.6,0.1,1.1,0,1.6,0.2
		c0.9,0.4,1.2,1.6,2,2.2c0.3,0.2,0.8,0.4,1.1,0.6c1.2,0.7,1.5,2.4,1.5,3.8c0,0.7,0.1,1.5,0.7,1.9c0.5,0.3,1.1,0.3,1.7,0.3
		c1.4,0.1,2.8,1.1,3.3,2.5c0.5,1.3,0.3,3-0.7,4.1c-0.3,0.3-0.7,0.6-0.9,1c-0.2,0.4-0.3,0.9,0,1.3c0.4,0.4,1,0.4,1.6,0.5
		c0.6,0.2,1.1,0.6,1.3,1.2c0.2,0.4,0.2,1,0.6,1.2c0.8,0,1.3-0.8,1.8-1.5c0.7-1.2,1.8-2.5,2.2-3.8c0.3-1,0.3-2.1,0.6-3.2
		c0.2-0.6,0.3-1.2,0.6-1.7c0.6-1,1.6-1.6,2.6-2.1c1-0.5,2.1-0.8,3.1-1.4c0.4-0.2,0.8-0.5,1-0.9c0.2-0.3,0.3-0.8,0.5-1.2
		c0.2-0.7,0.4-1.5,0.6-2.2c0.2-0.7,0.4-1.5,0.5-2.3c0.1-1.3-0.1-2.6,0.2-3.9c0.4-1.5,1.4-2.8,2.3-4.2c0.7-1.2,1.3-2.6,1-4.1
		c-0.3-1.4-0.8-3-2.2-3.5c-1.1-0.4-2.2-0.5-3.3-0.8C54,38.6,53.7,38.5,53.3,38.4"/>
	<path class="st6" d="M76.5,40.1c-1.6,0-3.1-0.3-4.5-0.8c-1.4-0.5-2.7-1.3-4-2.4l2.1-2.5c1,0.8,2,1.5,3,2c1,0.5,2.1,0.7,3.4,0.7
		c1.1,0,2-0.2,2.6-0.7c0.6-0.5,1-1.1,1-1.9v-0.1c0-0.4-0.1-0.7-0.2-1c-0.1-0.3-0.4-0.5-0.7-0.8c-0.3-0.3-0.8-0.5-1.4-0.7
		c-0.6-0.2-1.4-0.4-2.3-0.6c-1.1-0.2-2-0.5-2.9-0.9c-0.8-0.3-1.5-0.7-2.1-1.2c-0.6-0.5-1-1-1.3-1.7c-0.3-0.7-0.4-1.4-0.4-2.4v-0.1
		c0-0.9,0.2-1.7,0.5-2.4c0.3-0.7,0.8-1.3,1.4-1.9c0.6-0.5,1.3-0.9,2.2-1.2c0.8-0.3,1.8-0.4,2.8-0.4c1.5,0,2.8,0.2,4,0.7
		c1.2,0.4,2.3,1.1,3.3,1.9l-1.9,2.7c-0.9-0.7-1.8-1.2-2.7-1.5c-0.9-0.4-1.8-0.5-2.7-0.5c-1,0-1.9,0.2-2.4,0.7
		c-0.6,0.5-0.9,1-0.9,1.7v0.1c0,0.4,0.1,0.7,0.2,1c0.1,0.3,0.4,0.6,0.7,0.8c0.4,0.2,0.9,0.5,1.5,0.7c0.6,0.2,1.4,0.4,2.4,0.7
		c1.1,0.3,2,0.6,2.8,0.9c0.8,0.3,1.5,0.7,2,1.2c0.5,0.5,1,1,1.2,1.6c0.3,0.6,0.4,1.4,0.4,2.2v0.1c0,0.9-0.2,1.8-0.5,2.5
		c-0.4,0.8-0.8,1.4-1.5,1.9c-0.6,0.5-1.4,0.9-2.3,1.2C78.5,40,77.6,40.1,76.5,40.1"/>
	<path class="st7" d="M90.5,19.6v20.3H87V19.6H90.5z M90.3,13.1l3.2,1.4L90,17.9h-2.7L90.3,13.1z"/>
	<polygon class="st7" points="94.8,19.6 109.8,19.6 109.8,22.8 98.3,22.8 98.3,28.4 108.5,28.4 108.5,31.6 98.3,31.6 98.3,39.8 
		94.8,39.8 	"/>
	<rect x="137.6" y="19.6" class="st7" width="3.5" height="20.3"/>
	<path class="st7" d="M152.5,40.1c-1.6,0-3.1-0.3-4.5-0.8c-1.4-0.5-2.7-1.3-4-2.4l2.1-2.5c1,0.8,2,1.5,3,2c1,0.5,2.1,0.7,3.4,0.7
		c1.1,0,2-0.2,2.6-0.7c0.6-0.5,1-1.1,1-1.9v-0.1c0-0.4-0.1-0.7-0.2-1c-0.1-0.3-0.4-0.5-0.7-0.8c-0.3-0.3-0.8-0.5-1.4-0.7
		c-0.6-0.2-1.4-0.4-2.3-0.6c-1.1-0.2-2-0.5-2.9-0.9c-0.8-0.3-1.5-0.7-2.1-1.2c-0.6-0.5-1-1-1.3-1.7c-0.3-0.7-0.4-1.4-0.4-2.4v-0.1
		c0-0.9,0.2-1.7,0.5-2.4c0.3-0.7,0.8-1.3,1.4-1.9c0.6-0.5,1.3-0.9,2.2-1.2c0.8-0.3,1.8-0.4,2.8-0.4c1.5,0,2.8,0.2,4,0.7
		c1.2,0.4,2.3,1.1,3.3,1.9l-1.9,2.7c-0.9-0.7-1.8-1.2-2.8-1.5c-0.9-0.4-1.8-0.5-2.7-0.5c-1,0-1.9,0.2-2.4,0.7
		c-0.6,0.5-0.9,1-0.9,1.7v0.1c0,0.4,0.1,0.7,0.2,1c0.1,0.3,0.4,0.6,0.7,0.8c0.4,0.2,0.8,0.5,1.5,0.7c0.6,0.2,1.4,0.4,2.4,0.7
		c1.1,0.3,2,0.6,2.8,0.9c0.8,0.3,1.5,0.7,2,1.2c0.5,0.5,1,1,1.2,1.6c0.3,0.6,0.4,1.4,0.4,2.2v0.1c0,0.9-0.2,1.8-0.5,2.5
		c-0.4,0.8-0.8,1.4-1.5,1.9c-0.6,0.5-1.4,0.9-2.3,1.2C154.5,40,153.5,40.1,152.5,40.1"/>
	<path class="st7" d="M124.1,36.6v-17h-3.5v17.1l5.8,1.7c-0.1,0.5-0.2,1-0.3,1.4h8.7v-3.2H124.1z"/>
	<path class="st7" d="M113.9,38c0.7,0.3,1.4,0.5,2.1,0.7c0.1,0,0.3,0.1,0.4,0.1V19.6h-3.5v18.1C113.2,37.7,113.5,37.8,113.9,38"/>
	<g>
		<path class="st8" d="M158.8,53.2c-0.9-2-2.1-3.8-3.7-5.4c-1.6-1.5-3.4-2.7-5.5-3.6c-2.1-0.9-4.5-1.3-7-1.3c-2.5,0-4.8,0.4-7,1.3
			c-2.1,0.9-4,2.1-5.6,3.6c-1.6,1.5-2.8,3.3-3.7,5.4c-0.8,1.8-1.2,3.7-1.3,5.7l-4.4-10.5c-0.6,0.2-1.3,0.3-2.1,0.3
			c-0.8,0-1.7-0.1-2.5-0.3c-0.8-0.2-1.6-0.5-2.3-0.7c-0.7-0.3-1.4-0.5-2.1-0.7c-0.6-0.2-1.2-0.3-1.6-0.3c-0.8,0-1.3,0.2-1.7,0.6
			c-0.4,0.4-0.8,1-1.1,1.9l-8,19V43.6h-8.9v17.2L76.9,43.6h-8.4v32.6h8.9V58.3l13.9,17.9h4.6l0,0h9.5l2.3-5.8h12.6l2.4,5.8h9.7
			l-1.5-3.6c1.4,1.2,3,2.2,4.8,2.9c2.1,0.9,4.5,1.3,7,1.3c2.5,0,4.8-0.4,7-1.3c2.1-0.9,4-2.1,5.6-3.6c1.6-1.5,2.8-3.3,3.7-5.4
			c0.9-2.1,1.3-4.3,1.3-6.6v-0.1C160.1,57.5,159.7,55.3,158.8,53.2z M110.3,63.4l3.7-9.3l3.6,9.3H110.3z M150.9,60
			c0,1.2-0.2,2.3-0.6,3.3c-0.4,1.1-1,2-1.7,2.8c-0.7,0.8-1.6,1.4-2.6,1.9c-1,0.5-2.2,0.7-3.4,0.7c-1.2,0-2.4-0.2-3.4-0.7
			c-1-0.5-1.9-1.1-2.6-1.9c-0.7-0.8-1.3-1.7-1.7-2.8c-0.4-1.1-0.6-2.2-0.6-3.4v-0.1c0-1.2,0.2-2.3,0.6-3.3c0.4-1.1,0.9-2,1.7-2.8
			c0.7-0.8,1.6-1.4,2.6-1.9c1-0.5,2.1-0.7,3.4-0.7c1.2,0,2.4,0.2,3.4,0.7c1,0.5,1.9,1.1,2.7,1.9c0.7,0.8,1.3,1.7,1.7,2.8
			C150.7,57.6,150.9,58.7,150.9,60L150.9,60z"/>
		<path class="st8" d="M108.4,45.9c0.4-0.4,0.9-0.6,1.7-0.6c0.4,0,1,0.1,1.6,0.3c0.6,0.2,1.3,0.5,2.1,0.7c0.7,0.3,1.5,0.5,2.3,0.7
			c0.8,0.2,1.6,0.3,2.5,0.3c1.9,0,3.3-0.7,4.3-2c1-1.3,1.8-3.4,2.4-6.1l-4.9-1.4c-0.4,0.8-0.7,1.5-1.1,1.9c-0.4,0.4-0.9,0.6-1.7,0.6
			c-0.4,0-1-0.1-1.6-0.3c-0.6-0.2-1.3-0.5-2.1-0.7c-0.7-0.3-1.5-0.5-2.4-0.7c-0.8-0.2-1.6-0.3-2.4-0.3c-1.9,0-3.3,0.7-4.3,2
			c-1,1.3-1.8,3.4-2.4,6.1l4.9,1.4C107.6,46.9,108,46.3,108.4,45.9z"/>
	</g>
	<path class="st9" d="M76.2,5.3h-1.2V4.8h1.3l0.4-2.3h-1.3V2.1h1.3l0.3-1.8h0.5l-0.3,1.8h2l0.3-1.8H80l-0.3,1.8h1.2v0.5h-1.2
		l-0.4,2.3h1.3v0.5h-1.3l-0.3,1.8h-0.5l0.3-1.8h-2l-0.3,1.8h-0.5L76.2,5.3z M78.8,4.8l0.4-2.3h-2l-0.4,2.3H78.8z"/>
	<polygon class="st8" points="84.3,0.7 81.9,0.7 81.9,0.3 87.2,0.3 87.2,0.7 84.8,0.7 84.8,7.1 84.3,7.1 	"/>
	<path class="st8" d="M89.6,7.2c-0.3,0-0.6-0.1-0.9-0.2c-0.3-0.1-0.6-0.3-0.8-0.5c-0.2-0.2-0.4-0.5-0.5-0.8
		c-0.1-0.3-0.2-0.7-0.2-1.1v0c0-0.4,0.1-0.7,0.2-1c0.1-0.3,0.3-0.6,0.5-0.8c0.2-0.2,0.5-0.4,0.7-0.6C88.8,2.1,89.1,2,89.5,2
		c0.4,0,0.7,0.1,0.9,0.2c0.3,0.1,0.5,0.3,0.7,0.6c0.2,0.2,0.4,0.5,0.5,0.8c0.1,0.3,0.2,0.7,0.2,1v0.1c0,0,0,0.1,0,0.1h-4.1
		c0,0.3,0.1,0.6,0.2,0.8c0.1,0.2,0.3,0.4,0.4,0.6c0.2,0.2,0.4,0.3,0.6,0.4c0.2,0.1,0.5,0.1,0.7,0.1c0.4,0,0.7-0.1,1-0.2
		c0.3-0.2,0.5-0.3,0.7-0.6l0.3,0.3c-0.3,0.3-0.5,0.5-0.9,0.7C90.4,7.1,90,7.2,89.6,7.2 M91.2,4.4c0-0.3-0.1-0.5-0.2-0.7
		C91,3.4,90.9,3.2,90.7,3c-0.1-0.2-0.3-0.3-0.5-0.4c-0.2-0.1-0.5-0.2-0.8-0.2c-0.2,0-0.5,0.1-0.7,0.1c-0.2,0.1-0.4,0.2-0.6,0.4
		c-0.2,0.2-0.3,0.4-0.4,0.6c-0.1,0.2-0.2,0.5-0.2,0.8H91.2z"/>
	<path class="st8" d="M94.7,7.2c-0.4,0-0.7-0.1-1.1-0.2c-0.4-0.1-0.7-0.3-0.9-0.5L93,6.1c0.3,0.2,0.6,0.4,0.9,0.5
		c0.3,0.1,0.6,0.2,0.9,0.2c0.3,0,0.6-0.1,0.9-0.3C95.9,6.3,96,6.1,96,5.8v0c0-0.1,0-0.3-0.1-0.4c-0.1-0.1-0.2-0.2-0.3-0.3
		c-0.1-0.1-0.3-0.1-0.4-0.2c-0.2-0.1-0.3-0.1-0.5-0.2c-0.2-0.1-0.4-0.1-0.6-0.2c-0.2-0.1-0.4-0.1-0.6-0.2c-0.2-0.1-0.3-0.2-0.4-0.4
		C93,3.8,93,3.6,93,3.4v0c0-0.2,0-0.4,0.1-0.5c0.1-0.2,0.2-0.3,0.3-0.4c0.1-0.1,0.3-0.2,0.5-0.3C94.1,2.1,94.4,2,94.6,2
		c0.3,0,0.6,0.1,0.9,0.2c0.3,0.1,0.6,0.2,0.8,0.4L96.1,3c-0.2-0.2-0.5-0.3-0.7-0.4c-0.3-0.1-0.5-0.1-0.8-0.1c-0.3,0-0.6,0.1-0.8,0.2
		c-0.2,0.2-0.3,0.4-0.3,0.6v0c0,0.1,0,0.3,0.1,0.4c0.1,0.1,0.2,0.2,0.3,0.3c0.1,0.1,0.3,0.1,0.4,0.2c0.2,0.1,0.3,0.1,0.5,0.2
		c0.2,0.1,0.4,0.1,0.6,0.2c0.2,0.1,0.4,0.2,0.5,0.3c0.2,0.1,0.3,0.2,0.4,0.4c0.1,0.2,0.1,0.3,0.1,0.6v0c0,0.2,0,0.4-0.1,0.6
		c-0.1,0.2-0.2,0.3-0.4,0.5c-0.2,0.1-0.3,0.2-0.5,0.3C95.2,7.2,95,7.2,94.7,7.2"/>
	<path class="st8" d="M99.6,7.2c-0.2,0-0.4,0-0.5-0.1c-0.2-0.1-0.3-0.1-0.4-0.2c-0.1-0.1-0.2-0.3-0.3-0.4c-0.1-0.2-0.1-0.4-0.1-0.6
		V2.6h-0.7V2.1h0.7V0.5h0.5v1.6h1.7v0.4h-1.7v3.2c0,0.4,0.1,0.6,0.3,0.7c0.2,0.1,0.4,0.2,0.7,0.2c0.1,0,0.2,0,0.4,0
		c0.1,0,0.2-0.1,0.4-0.1V7c-0.1,0.1-0.3,0.1-0.4,0.1C99.9,7.2,99.8,7.2,99.6,7.2"/>
	<path class="st8" d="M104,7.2c-0.3,0-0.6-0.1-0.9-0.2c-0.3-0.1-0.6-0.3-0.8-0.5c-0.2-0.2-0.4-0.5-0.5-0.8c-0.1-0.3-0.2-0.7-0.2-1.1
		v0c0-0.4,0.1-0.7,0.2-1c0.1-0.3,0.3-0.6,0.5-0.8c0.2-0.2,0.5-0.4,0.7-0.6c0.3-0.1,0.6-0.2,0.9-0.2c0.4,0,0.7,0.1,0.9,0.2
		c0.3,0.1,0.5,0.3,0.7,0.6c0.2,0.2,0.4,0.5,0.5,0.8c0.1,0.3,0.2,0.7,0.2,1v0.1c0,0,0,0.1,0,0.1H102c0,0.3,0.1,0.6,0.2,0.8
		c0.1,0.2,0.3,0.4,0.4,0.6c0.2,0.2,0.4,0.3,0.6,0.4c0.2,0.1,0.5,0.1,0.7,0.1c0.4,0,0.7-0.1,1-0.2c0.3-0.2,0.5-0.3,0.7-0.6l0.3,0.3
		c-0.3,0.3-0.5,0.5-0.9,0.7C104.9,7.1,104.5,7.2,104,7.2 M105.7,4.4c0-0.3-0.1-0.5-0.2-0.7c-0.1-0.2-0.2-0.4-0.3-0.6
		c-0.1-0.2-0.3-0.3-0.5-0.4c-0.2-0.1-0.5-0.2-0.8-0.2c-0.2,0-0.5,0.1-0.7,0.1c-0.2,0.1-0.4,0.2-0.6,0.4c-0.2,0.2-0.3,0.4-0.4,0.6
		c-0.1,0.2-0.2,0.5-0.2,0.8H105.7z"/>
	<polygon class="st9" points="109.2,0.7 106.8,0.7 106.8,0.3 112.1,0.3 112.1,0.7 109.7,0.7 109.7,7.1 109.2,7.1 	"/>
	<path class="st9" d="M112.7,2.1h0.5v1.4c0.1-0.2,0.2-0.4,0.4-0.6c0.2-0.2,0.3-0.3,0.5-0.5c0.2-0.1,0.4-0.2,0.6-0.3
		c0.2-0.1,0.5-0.1,0.7-0.1v0.5h0c-0.3,0-0.6,0.1-0.8,0.2c-0.3,0.1-0.5,0.3-0.7,0.5c-0.2,0.2-0.4,0.5-0.5,0.8
		c-0.1,0.3-0.2,0.7-0.2,1.1v2h-0.5V2.1z"/>
	<path class="st9" d="M118.1,7.2c-0.2,0-0.5,0-0.7-0.1c-0.2-0.1-0.4-0.2-0.6-0.3c-0.2-0.1-0.3-0.3-0.4-0.5c-0.1-0.2-0.2-0.4-0.2-0.7
		v0c0-0.3,0.1-0.5,0.2-0.7c0.1-0.2,0.3-0.4,0.4-0.5c0.2-0.1,0.4-0.2,0.7-0.3c0.3-0.1,0.6-0.1,0.9-0.1c0.4,0,0.7,0,0.9,0.1
		c0.3,0,0.5,0.1,0.7,0.2V4c0-0.5-0.1-0.9-0.4-1.1c-0.3-0.3-0.7-0.4-1.2-0.4c-0.3,0-0.6,0-0.8,0.1c-0.3,0.1-0.5,0.2-0.7,0.3l-0.2-0.4
		c0.3-0.1,0.5-0.2,0.8-0.3c0.3-0.1,0.6-0.1,0.9-0.1c0.7,0,1.2,0.2,1.6,0.5c0.3,0.3,0.5,0.8,0.5,1.4v3.1H120V6.3
		c-0.1,0.1-0.2,0.2-0.3,0.3c-0.1,0.1-0.3,0.2-0.4,0.3c-0.2,0.1-0.3,0.2-0.5,0.2C118.6,7.2,118.3,7.2,118.1,7.2 M118.1,6.8
		c0.3,0,0.5,0,0.7-0.1c0.2-0.1,0.4-0.2,0.6-0.3c0.2-0.1,0.3-0.3,0.4-0.5c0.1-0.2,0.2-0.4,0.2-0.6V4.7c-0.2-0.1-0.5-0.1-0.7-0.2
		c-0.3,0-0.6-0.1-1-0.1c-0.5,0-0.9,0.1-1.2,0.3c-0.3,0.2-0.4,0.5-0.4,0.8v0c0,0.2,0,0.3,0.1,0.5c0.1,0.1,0.2,0.3,0.3,0.4
		c0.1,0.1,0.3,0.2,0.5,0.2C117.8,6.7,118,6.8,118.1,6.8"/>
	<path class="st9" d="M123.9,7.2c-0.2,0-0.4,0-0.5-0.1c-0.2-0.1-0.3-0.1-0.4-0.2c-0.1-0.1-0.2-0.3-0.3-0.4c-0.1-0.2-0.1-0.4-0.1-0.6
		V2.6h-0.7V2.1h0.7V0.5h0.5v1.6h1.7v0.4h-1.7v3.2c0,0.4,0.1,0.6,0.3,0.7c0.2,0.1,0.4,0.2,0.7,0.2c0.1,0,0.2,0,0.3,0
		c0.1,0,0.2-0.1,0.4-0.1V7c-0.1,0.1-0.3,0.1-0.4,0.1C124.1,7.2,124,7.2,123.9,7.2"/>
	<path class="st9" d="M128.2,7.2c-0.3,0-0.6-0.1-0.9-0.2c-0.3-0.1-0.6-0.3-0.8-0.5c-0.2-0.2-0.4-0.5-0.5-0.8
		c-0.1-0.3-0.2-0.7-0.2-1.1v0c0-0.4,0.1-0.7,0.2-1c0.1-0.3,0.3-0.6,0.5-0.8c0.2-0.2,0.5-0.4,0.7-0.6c0.3-0.1,0.6-0.2,0.9-0.2
		c0.4,0,0.7,0.1,0.9,0.2c0.3,0.1,0.5,0.3,0.7,0.6c0.2,0.2,0.4,0.5,0.5,0.8c0.1,0.3,0.2,0.7,0.2,1v0.1c0,0,0,0.1,0,0.1h-4.1
		c0,0.3,0.1,0.6,0.2,0.8c0.1,0.2,0.3,0.4,0.4,0.6c0.2,0.2,0.4,0.3,0.6,0.4c0.2,0.1,0.5,0.1,0.7,0.1c0.4,0,0.7-0.1,1-0.2
		c0.3-0.2,0.5-0.3,0.7-0.6l0.3,0.3c-0.3,0.3-0.5,0.5-0.9,0.7C129.1,7.1,128.7,7.2,128.2,7.2 M129.9,4.4c0-0.3-0.1-0.5-0.2-0.7
		c-0.1-0.2-0.2-0.4-0.3-0.6c-0.1-0.2-0.3-0.3-0.5-0.4c-0.2-0.1-0.5-0.2-0.8-0.2c-0.2,0-0.5,0.1-0.7,0.1c-0.2,0.1-0.4,0.2-0.6,0.4
		c-0.2,0.2-0.3,0.4-0.4,0.6c-0.1,0.2-0.2,0.5-0.2,0.8H129.9z"/>
	<path class="st8" d="M135,7.2c-0.5,0-0.9-0.1-1.4-0.3c-0.4-0.2-0.8-0.4-1.1-0.7c-0.3-0.3-0.5-0.7-0.7-1.1c-0.2-0.4-0.3-0.9-0.3-1.4
		v0c0-0.5,0.1-0.9,0.3-1.4c0.2-0.4,0.4-0.8,0.7-1.1c0.3-0.3,0.7-0.6,1.1-0.8c0.4-0.2,0.9-0.3,1.4-0.3c0.3,0,0.6,0,0.8,0.1
		c0.2,0.1,0.5,0.1,0.7,0.2c0.2,0.1,0.4,0.2,0.6,0.3c0.2,0.1,0.4,0.3,0.5,0.4l-0.4,0.4c-0.1-0.1-0.3-0.3-0.5-0.4
		c-0.2-0.1-0.3-0.2-0.5-0.3c-0.2-0.1-0.4-0.2-0.6-0.2c-0.2-0.1-0.5-0.1-0.7-0.1c-0.4,0-0.8,0.1-1.1,0.2c-0.4,0.2-0.7,0.4-0.9,0.6
		c-0.3,0.3-0.5,0.6-0.6,1c-0.1,0.4-0.2,0.8-0.2,1.2v0c0,0.4,0.1,0.8,0.2,1.2c0.1,0.4,0.4,0.7,0.6,1c0.3,0.3,0.6,0.5,0.9,0.7
		c0.4,0.2,0.7,0.2,1.1,0.2c0.5,0,0.9-0.1,1.3-0.3c0.4-0.2,0.7-0.4,1.1-0.8l0.3,0.3c-0.2,0.2-0.4,0.3-0.6,0.5
		c-0.2,0.1-0.4,0.3-0.6,0.4c-0.2,0.1-0.5,0.2-0.7,0.2C135.5,7.2,135.3,7.2,135,7.2"/>
	<path class="st8" d="M140.9,7.2c-0.3,0-0.6-0.1-0.8-0.2c-0.2-0.1-0.5-0.2-0.6-0.4c-0.2-0.2-0.3-0.4-0.4-0.6
		c-0.1-0.2-0.1-0.5-0.1-0.8v-3h0.5v3c0,0.5,0.1,0.9,0.4,1.2c0.3,0.3,0.7,0.5,1.2,0.5c0.2,0,0.5,0,0.7-0.1c0.2-0.1,0.4-0.2,0.6-0.4
		c0.2-0.2,0.3-0.3,0.4-0.6c0.1-0.2,0.1-0.5,0.1-0.7V2.1h0.5v5h-0.5V6.2c-0.2,0.3-0.4,0.5-0.7,0.7C141.7,7.1,141.3,7.2,140.9,7.2"/>
	<path class="st8" d="M144.9,2.1h0.5v1.4c0.1-0.2,0.2-0.4,0.4-0.6c0.2-0.2,0.3-0.3,0.5-0.5c0.2-0.1,0.4-0.2,0.6-0.3
		c0.2-0.1,0.5-0.1,0.7-0.1v0.5h0c-0.3,0-0.6,0.1-0.8,0.2c-0.3,0.1-0.5,0.3-0.7,0.5c-0.2,0.2-0.4,0.5-0.5,0.8
		c-0.1,0.3-0.2,0.7-0.2,1.1v2h-0.5V2.1z"/>
	<path class="st8" d="M150.9,7.2c-0.3,0-0.6-0.1-0.9-0.2c-0.3-0.1-0.6-0.3-0.8-0.5c-0.2-0.2-0.4-0.5-0.5-0.8
		c-0.1-0.3-0.2-0.7-0.2-1.1v0c0-0.4,0.1-0.7,0.2-1c0.1-0.3,0.3-0.6,0.5-0.8c0.2-0.2,0.5-0.4,0.7-0.6c0.3-0.1,0.6-0.2,0.9-0.2
		c0.4,0,0.7,0.1,0.9,0.2c0.3,0.1,0.5,0.3,0.7,0.6c0.2,0.2,0.4,0.5,0.5,0.8c0.1,0.3,0.2,0.7,0.2,1v0.1c0,0,0,0.1,0,0.1H149
		c0,0.3,0.1,0.6,0.2,0.8c0.1,0.2,0.3,0.4,0.4,0.6c0.2,0.2,0.4,0.3,0.6,0.4c0.2,0.1,0.5,0.1,0.7,0.1c0.4,0,0.7-0.1,1-0.2
		c0.3-0.2,0.5-0.3,0.7-0.6l0.3,0.3c-0.3,0.3-0.5,0.5-0.9,0.7C151.8,7.1,151.4,7.2,150.9,7.2 M152.6,4.4c0-0.3-0.1-0.5-0.2-0.7
		c-0.1-0.2-0.2-0.4-0.3-0.6c-0.1-0.2-0.3-0.3-0.5-0.4c-0.2-0.1-0.5-0.2-0.8-0.2c-0.2,0-0.5,0.1-0.7,0.1c-0.2,0.1-0.4,0.2-0.6,0.4
		c-0.2,0.2-0.3,0.4-0.4,0.6c-0.1,0.2-0.2,0.5-0.2,0.8H152.6z"/>
	<rect x="74.9" y="9.3" class="st8" width="78.4" height="0.3"/>
</g>
</svg>
