<svg xmlns="http://www.w3.org/2000/svg" xmlns:xlink="http://www.w3.org/1999/xlink" viewBox="0 0 417.27 408.55"><defs><style>.cls-1{fill:none;}.cls-2{fill:#065499;}.cls-3,.cls-8{fill:#036;}.cls-4{clip-path:url(#clip-path);}.cls-5{fill:#043c7f;}.cls-6{fill:#0d5399;}.cls-11,.cls-7{fill:#fff;}.cls-8{font-size:40.07px;letter-spacing:-0.02em;}.cls-11,.cls-8{font-family:UPBOLTERS-Italic, UPBOLTERS;font-style:italic;}.cls-9{letter-spacing:-0.04em;}.cls-10{letter-spacing:-0.02em;}.cls-11{font-size:87.86px;letter-spacing:-0.02em;}.cls-12{letter-spacing:-0.04em;}</style><clipPath id="clip-path"><circle class="cls-1" cx="197.53" cy="177.51" r="130.44" transform="translate(-67.66 191.66) rotate(-45)"/></clipPath></defs><title>Asset 3</title><g id="Layer_2" data-name="Layer 2"><g id="Objects"><path class="cls-2" d="M331.15,134.06a1.65,1.65,0,0,1-1.58-1.13,139,139,0,0,0-46.11-65,1.66,1.66,0,0,1,2.05-2.62,142.28,142.28,0,0,1,47.21,66.58,1.64,1.64,0,0,1-1.57,2.19Z"/><path class="cls-2" d="M56.87,179.18a1.66,1.66,0,0,1-1.67-1.66,141,141,0,0,1,15.68-65.05,143.87,143.87,0,0,1,41.87-49.38,1.67,1.67,0,1,1,2,2.67A139.88,139.88,0,0,0,58.53,177.52,1.66,1.66,0,0,1,56.87,179.18Z"/><path class="cls-3" d="M328,177.51c0,2.27,0,4.55-.16,6.82,0,.18,0,.4,0,.58a130.16,130.16,0,0,1-34.09,80.72,129.77,129.77,0,0,1-41.89,30.54,130.22,130.22,0,0,1-17.06,6.4,132.08,132.08,0,0,1-37.21,5.4,129.6,129.6,0,0,1-65.24-17.48c-2.15-1.22-4.21-2.52-6.27-3.84a131.23,131.23,0,0,1-40.57-42.37,130.17,130.17,0,0,1-18.2-59.53c0-.21,0-.39,0-.61-.11-2.19-.16-4.41-.16-6.63,0-2.46.08-4.9.21-7.33v0a130.44,130.44,0,0,1,260.47,0v0C327.88,172.61,328,175.05,328,177.51Z"/><g class="cls-4"><circle class="cls-5" cx="181.24" cy="128.41" r="128.41" transform="translate(-37.72 165.77) rotate(-45)"/><circle class="cls-6" cx="150.55" cy="108.85" r="99.34" transform="translate(-32.88 138.34) rotate(-45)"/></g><g class="cls-4"><circle class="cls-6" cx="143.93" cy="169.26" r="31.78"/><rect class="cls-6" x="197.06" y="168.83" width="11.25" height="3.63" rx="0.61" ry="0.61"/><rect class="cls-6" x="184.14" y="168.83" width="11.25" height="3.63" rx="0.61" ry="0.61"/><path class="cls-6" d="M210.38,175.61H181.86a1.32,1.32,0,0,1-1.33-1.33V167a1.32,1.32,0,0,1,1.33-1.33h28.52a1.33,1.33,0,0,1,1.33,1.33v7.27A1.33,1.33,0,0,1,210.38,175.61Zm-28.52-9.52a.92.92,0,0,0-.92.92v7.27a.92.92,0,0,0,.92.92h28.52a.92.92,0,0,0,.91-.92V167a.92.92,0,0,0-.91-.92Z"/></g><path class="cls-2" d="M1.66,207.27a1.67,1.67,0,0,1,0-3.33l79.86-2.66a1.67,1.67,0,0,1,.11,3.33L1.72,207.27Z"/><path class="cls-2" d="M306.93,156.63a1.67,1.67,0,0,1-.05-3.33l77.54-2.58a1.67,1.67,0,0,1,.12,3.33L307,156.63Z"/><path class="cls-2" d="M315.82,208.23a1.67,1.67,0,0,1-.05-3.33l36.85-1.23a1.69,1.69,0,0,1,1.72,1.61,1.67,1.67,0,0,1-1.61,1.72l-36.85,1.23Z"/><path class="cls-2" d="M339.79,190.13a1.66,1.66,0,0,1-.05-3.32l75.81-2.53a1.67,1.67,0,0,1,.11,3.33l-75.81,2.52Z"/><path class="cls-2" d="M33.46,230.52a1.67,1.67,0,0,1-.05-3.33l77.39-2.58a1.67,1.67,0,0,1,.11,3.33l-77.39,2.58Z"/><path class="cls-7" d="M327.75,170.18H295.86c-2.91,0-5.59,1-6.9,3.62l-.51,1-11.84,22.88-8.52-31.58,0-.05L246.88,87.46a7.75,7.75,0,0,0-15.1.63L208.61,216.33,186,130.25a7.84,7.84,0,0,0-7.89-5.82,7.66,7.66,0,0,0-7.27,6.37l-8.12,49.72,0,.4-.87,5.34-2-5.23-.16-.4L157.8,176c-1.15-3-4-5.84-7.19-5.84H67.28c-.13,2.43-.21,4.87-.21,7.33,0,2.22.05,4.44.16,6.64,0,.21,0,.39,0,.61h78.13L157.67,217c1.32,3.23,4.63,6.56,8.07,6.17a7.92,7.92,0,0,0,6.8-6.62l5.84-36.12.06-.4,1.8-11.05,2.88,10.9.11.42L202.55,253c.88,3.43,4,4.66,7.49,4.66h.31c3.63,0,6.7-1.64,7.33-5.27L240.9,124.8l26,96.47a7.84,7.84,0,0,0,6.69,5.69,7.62,7.62,0,0,0,7.72-4.07l5.26-10.38,6.64-13.12,7.41-14.63,9.41.05,9.41.05,8.33,0c0-.19,0-.4,0-.58.1-2.27.16-4.55.16-6.82C328,175.05,327.88,172.61,327.75,170.18Z"/><text class="cls-8" transform="matrix(1, -0.05, 0, 1, 92.57, 399.53)">b<tspan class="cls-9" x="19.88" y="0">r</tspan><tspan class="cls-10" x="39.04" y="0">asil sem sífilis</tspan></text><path class="cls-3" d="M83.61,290.67l-1.75,11.74-.55,3.67-.47,3.11-1,6.52L71,316.1l1-6.62.46-3.1,2.29-15.31-13.72.62-4.55,30.63-4,27.19-.63,4.21,13.72-.61,2.56-17.17L69.3,328l8.83-.39L76.89,336,74.4,352.7l8.21-.36,2.57-.12,2.94-.13,2.43-16.39h0l4-27,.46-3.11,2.31-15.56Z"/><polygon class="cls-3" points="42.8 361.88 54.33 284.23 106.38 281.9 94.85 359.55 42.8 361.88"/><path class="cls-3" d="M137.25,339.52l-.1-3.1-.73-23.16-.19-5.91-.09-3.1-.51-15.9-21.82,1-5.16,15.85-1,3.13-9.48,29.14v0l-.08.26-1,3.14-3.58,11,2.58-.11,11.15-.5,3.45-10.83.31-1,12.66-.56,0,1.1.24,10.53,10.46-.48,3.26-.14Zm-15.66-34.79,1.61-5.35v8.4l0,19.3-8.45.37,5.88-19.59Z"/><polygon class="cls-3" points="130.92 280.8 143.13 280.25 145.56 357.28 116.28 358.59 116.06 348.86 112.91 358.74 82.61 360.1 108.1 281.82 120.53 281.26 130.92 280.8"/><path class="cls-3" d="M182.1,293.48a9.11,9.11,0,0,0-.5-2.76,5.93,5.93,0,0,0-1.08-1.85c-1.42-1.59-4.61-2.3-9.59-2.1l-10.38.46q-7.45.39-10.39,3c-1.93,1.8-3.15,4.51-3.68,8.11l-2.29,15.36h0l-3.38,22.59-.44,3a.51.51,0,0,0,0,.13,17,17,0,0,0-.18,3.18,7.35,7.35,0,0,0,1.54,4.57,6.51,6.51,0,0,0,3.59,1.75,25.33,25.33,0,0,0,6,.35l10.38-.46c5-.25,8.43-1.25,10.35-3a10.17,10.17,0,0,0,1.65-2,15.55,15.55,0,0,0,2.07-6.1l2-13.05-1.19.05-11.67.52-1.49,10-.06.31a1.7,1.7,0,0,1-1.75,1.4l-5.71.26c-.86,0-1.31-.33-1.34-1.1a2.53,2.53,0,0,1,0-.27,1.49,1.49,0,0,1,0-.21l5.18-34.88a1.74,1.74,0,0,1,1.77-1.71l5.71-.26c.88,0,1.35.33,1.38,1.1a2.75,2.75,0,0,1,0,.48l-1.48,10,11.66-.52,1.21-.05,1.95-13.06A17.37,17.37,0,0,0,182.1,293.48Z"/><path class="cls-3" d="M189.84,293.13a16.44,16.44,0,0,0-.35-2.87,13.94,13.94,0,0,0-3.17-6.53,12,12,0,0,0-3.3-2.59c-3.91-2.12-8.76-2.26-12.43-2.12l-10.43.47c-6.86.35-11.82,2-15.17,5l-.13.11a16.08,16.08,0,0,0-1.54,1.65,22,22,0,0,0-4.5,11l-1,7.06-.46,3.06-.89,5.95-3.48,23.3-.24,1.6c-.08.51-.13,1-.17,1.51a21.34,21.34,0,0,0-.1,3.26,15.88,15.88,0,0,0,1.88,7.09,14.55,14.55,0,0,0,1.49,2.16l.17.19c2.54,2.8,6.1,4,9.57,4.43a34.68,34.68,0,0,0,5.3.23l.85,0,10.42-.47a32.06,32.06,0,0,0,10-1.89,16.48,16.48,0,0,0,5.16-3.11l.06-.05a18.29,18.29,0,0,0,3.84-5.14,24.39,24.39,0,0,0,2.28-7.51l3.35-22.37,2.78-18.61A25.3,25.3,0,0,0,189.84,293.13Zm-41.92,48.34c0-.23,0-.51.08-.82a10.11,10.11,0,0,0,.58.87Z"/><path class="cls-3" d="M227.28,284.24l-3.59.16-10.3.47L200,311.49l3.9-26.2-13.73.62-.65,4.35-8.32,56.09-.24,1.59,13.72-.61,4.1-27.59L205,346.86l9.44-.42,4.45-.21-2.71-11.51-4.61-19.59,10.63-20.95Z"/><polygon class="cls-3" points="185.59 355.49 171.89 356.1 183.42 278.45 212.92 277.13 212.92 277.13 213.04 277.12 240.2 275.91 219.8 316.12 228.61 353.56 186.49 355.45 185.59 355.49"/><path class="cls-3" d="M246.83,333.14l-9,.4,7.42-50.11-9.12.41-4.6.21-1.86,12.52h0l-5.62,37.8h0l-1.74,11.7,4.45-.2,16.11-.72,8.27-.38h.42l.36-2.39,1.43-9.54Z"/><polygon class="cls-3" points="213.32 354.25 224.85 276.6 254.34 275.27 246.91 325.38 262.45 324.68 258.33 352.23 213.32 354.25"/><path class="cls-3" d="M294.6,320.14h0l-1.22-38.84-21.84,1L257.67,324.9,252,342.39l-.78,2.4h.42l7.89-.36,5.41-.24,3.77-11.81,12.65-.56.26,11.62,9.62-.43,4.11-.18Zm-22.08.25,8.41-28.07L281,320Z"/><polygon class="cls-3" points="288.66 273.74 300.87 273.19 303.3 350.22 274.02 351.53 273.8 341.8 270.65 351.68 240.35 353.04 265.84 274.76 278.27 274.2 288.66 273.74"/><path class="cls-3" d="M308.3,280.61l-5.93,40v0l-3.28,22,4-.18,9.75-.43.72-4.87,3.5-23.53,1.25-8.45h0l3.22-21.63a0,0,0,0,0,0,0L322,280Z"/><polygon class="cls-3" points="290.04 350.81 301.57 273.16 331.07 271.84 319.54 349.49 290.04 350.81"/><path class="cls-3" d="M363.39,285.36a7.27,7.27,0,0,0-1.59-4.61q-2.12-2.38-9.58-2.1l-10.38.47c-5,.25-8.44,1.24-10.39,3a10.28,10.28,0,0,0-2.43,3.52h0a17.48,17.48,0,0,0-1.24,4.57l-1.56,10.25a20.49,20.49,0,0,0-.23,3.71c0,.4.06.78.11,1.14v0a6.45,6.45,0,0,0,1.44,3.45c1.41,1.59,4.75,3.78,10,6.54q7.53,4.05,7.61,5.72v.13l-.89,6a1.74,1.74,0,0,1-1.78,1.71l-6.13.28c-.89,0-1.34-.32-1.38-1.1a3.94,3.94,0,0,1,0-.47l1.07-7-12.3.55-1,0-1.52,10a18.78,18.78,0,0,0-.21,3.32,10,10,0,0,0,.39,2.37,6.16,6.16,0,0,0,1.16,2.2q2.16,2.39,9.63,2.1l11.23-.51q7.47-.36,10.36-3t3.71-8.1L359,319.7a21,21,0,0,0,.23-3.75,7.52,7.52,0,0,0-1.5-4.57q-2.18-2.38-10.22-6.58-7.69-3.94-7.79-6v-.21l.9-5.93a1.74,1.74,0,0,1,1.77-1.71l6.13-.27c.88,0,1.35.33,1.38,1.09a2.64,2.64,0,0,1,0,.48l-1.06,7,12.87-.58,1.52-10A17.54,17.54,0,0,0,363.39,285.36Z"/><path class="cls-3" d="M371.13,285a14.83,14.83,0,0,0-3.53-9.41c-4.09-4.61-10.93-4.88-15.73-4.7l-10.42.47a31,31,0,0,0-10.63,2.14,16,16,0,0,0-4.53,2.82l-.14.12a18.36,18.36,0,0,0-4.64,7.07,0,0,0,0,1,0,0,26,26,0,0,0-1.39,5.5l-1.57,10.31a27.38,27.38,0,0,0-.3,5.16c0,.23,0,.45,0,.66h0a14.83,14.83,0,0,0,3.05,8.27l-4.3.18-1,.05-2.49,16.38a25.63,25.63,0,0,0-.28,4.77,21.58,21.58,0,0,0,.25,2.33,14.29,14.29,0,0,0,3.13,6.92l.16.18a12.18,12.18,0,0,0,3.13,2.46c3.65,2,8.14,2.29,11.74,2.21l.86,0,11.27-.51c6.88-.34,11.84-2,15.23-5s5.34-7.3,6.12-12.65l1.5-9.92a28.5,28.5,0,0,0,.29-5.18,15,15,0,0,0-3.31-9.22l0-.05,4.77-.22,2.49-16.37A25.31,25.31,0,0,0,371.13,285Zm-42.36,48.35q0-.11,0-.24a1.59,1.59,0,0,0,.18.27Zm22.71-17.05-.22-.33.21.16s0,.1,0,.15Z"/><text class="cls-11" transform="translate(48.29 354.34) rotate(-2.56)">H<tspan class="cls-12" x="44.83" y="0">A</tspan><tspan x="87.73" y="0">CKLAIS</tspan></text></g></g></svg>